<?xml version="1.0" encoding="utf-8" standalone="no"?>
<!DOCTYPE svg PUBLIC "-//W3C//DTD SVG 1.1//EN"
  "http://www.w3.org/Graphics/SVG/1.1/DTD/svg11.dtd">
<svg xmlns:xlink="http://www.w3.org/1999/xlink" width="856.433125pt" height="423.079824pt" viewBox="0 0 856.433125 423.079824" xmlns="http://www.w3.org/2000/svg" version="1.1">
 <metadata>
  <rdf:RDF xmlns:dc="http://purl.org/dc/elements/1.1/" xmlns:cc="http://creativecommons.org/ns#" xmlns:rdf="http://www.w3.org/1999/02/22-rdf-syntax-ns#">
   <cc:Work>
    <dc:type rdf:resource="http://purl.org/dc/dcmitype/StillImage"/>
    <dc:date>2026-05-04T17:07:25.506643</dc:date>
    <dc:format>image/svg+xml</dc:format>
    <dc:creator>
     <cc:Agent>
      <dc:title>Matplotlib v3.10.0, https://matplotlib.org/</dc:title>
     </cc:Agent>
    </dc:creator>
   </cc:Work>
  </rdf:RDF>
 </metadata>
 <defs>
  <style type="text/css">*{stroke-linejoin: round; stroke-linecap: butt}</style>
 </defs>
 <g id="figure_1">
  <g id="patch_1">
   <path d="M 0 423.079824 
L 856.433125 423.079824 
L 856.433125 -0 
L 0 -0 
z
" style="fill: #ffffff"/>
  </g>
  <g id="axes_1">
   <g id="patch_2">
    <path d="M 40.603125 333.764063 
L 849.233125 333.764063 
L 849.233125 22.318125 
L 40.603125 22.318125 
z
" style="fill: #ffffff"/>
   </g>
   <g id="matplotlib.axis_1">
    <g id="xtick_1">
     <g id="line2d_1">
      <defs>
       <path id="mb3b7c84446" d="M 0 0 
L 0 3.5 
" style="stroke: #000000; stroke-width: 0.8"/>
      </defs>
      <g>
       <use xlink:href="#mb3b7c84446" x="91.1425" y="333.764063" style="stroke: #000000; stroke-width: 0.8"/>
      </g>
     </g>
     <g id="text_1">
      <!-- Integrado -->
      <g transform="translate(75.976164 380.371987) rotate(-45) scale(0.1 -0.1)">
       <defs>
        <path id="DejaVuSans-49" d="M 628 4666 
L 1259 4666 
L 1259 0 
L 628 0 
L 628 4666 
z
" transform="scale(0.015625)"/>
        <path id="DejaVuSans-6e" d="M 3513 2113 
L 3513 0 
L 2938 0 
L 2938 2094 
Q 2938 2591 2744 2837 
Q 2550 3084 2163 3084 
Q 1697 3084 1428 2787 
Q 1159 2491 1159 1978 
L 1159 0 
L 581 0 
L 581 3500 
L 1159 3500 
L 1159 2956 
Q 1366 3272 1645 3428 
Q 1925 3584 2291 3584 
Q 2894 3584 3203 3211 
Q 3513 2838 3513 2113 
z
" transform="scale(0.015625)"/>
        <path id="DejaVuSans-74" d="M 1172 4494 
L 1172 3500 
L 2356 3500 
L 2356 3053 
L 1172 3053 
L 1172 1153 
Q 1172 725 1289 603 
Q 1406 481 1766 481 
L 2356 481 
L 2356 0 
L 1766 0 
Q 1100 0 847 248 
Q 594 497 594 1153 
L 594 3053 
L 172 3053 
L 172 3500 
L 594 3500 
L 594 4494 
L 1172 4494 
z
" transform="scale(0.015625)"/>
        <path id="DejaVuSans-65" d="M 3597 1894 
L 3597 1613 
L 953 1613 
Q 991 1019 1311 708 
Q 1631 397 2203 397 
Q 2534 397 2845 478 
Q 3156 559 3463 722 
L 3463 178 
Q 3153 47 2828 -22 
Q 2503 -91 2169 -91 
Q 1331 -91 842 396 
Q 353 884 353 1716 
Q 353 2575 817 3079 
Q 1281 3584 2069 3584 
Q 2775 3584 3186 3129 
Q 3597 2675 3597 1894 
z
M 3022 2063 
Q 3016 2534 2758 2815 
Q 2500 3097 2075 3097 
Q 1594 3097 1305 2825 
Q 1016 2553 972 2059 
L 3022 2063 
z
" transform="scale(0.015625)"/>
        <path id="DejaVuSans-67" d="M 2906 1791 
Q 2906 2416 2648 2759 
Q 2391 3103 1925 3103 
Q 1463 3103 1205 2759 
Q 947 2416 947 1791 
Q 947 1169 1205 825 
Q 1463 481 1925 481 
Q 2391 481 2648 825 
Q 2906 1169 2906 1791 
z
M 3481 434 
Q 3481 -459 3084 -895 
Q 2688 -1331 1869 -1331 
Q 1566 -1331 1297 -1286 
Q 1028 -1241 775 -1147 
L 775 -588 
Q 1028 -725 1275 -790 
Q 1522 -856 1778 -856 
Q 2344 -856 2625 -561 
Q 2906 -266 2906 331 
L 2906 616 
Q 2728 306 2450 153 
Q 2172 0 1784 0 
Q 1141 0 747 490 
Q 353 981 353 1791 
Q 353 2603 747 3093 
Q 1141 3584 1784 3584 
Q 2172 3584 2450 3431 
Q 2728 3278 2906 2969 
L 2906 3500 
L 3481 3500 
L 3481 434 
z
" transform="scale(0.015625)"/>
        <path id="DejaVuSans-72" d="M 2631 2963 
Q 2534 3019 2420 3045 
Q 2306 3072 2169 3072 
Q 1681 3072 1420 2755 
Q 1159 2438 1159 1844 
L 1159 0 
L 581 0 
L 581 3500 
L 1159 3500 
L 1159 2956 
Q 1341 3275 1631 3429 
Q 1922 3584 2338 3584 
Q 2397 3584 2469 3576 
Q 2541 3569 2628 3553 
L 2631 2963 
z
" transform="scale(0.015625)"/>
        <path id="DejaVuSans-61" d="M 2194 1759 
Q 1497 1759 1228 1600 
Q 959 1441 959 1056 
Q 959 750 1161 570 
Q 1363 391 1709 391 
Q 2188 391 2477 730 
Q 2766 1069 2766 1631 
L 2766 1759 
L 2194 1759 
z
M 3341 1997 
L 3341 0 
L 2766 0 
L 2766 531 
Q 2569 213 2275 61 
Q 1981 -91 1556 -91 
Q 1019 -91 701 211 
Q 384 513 384 1019 
Q 384 1609 779 1909 
Q 1175 2209 1959 2209 
L 2766 2209 
L 2766 2266 
Q 2766 2663 2505 2880 
Q 2244 3097 1772 3097 
Q 1472 3097 1187 3025 
Q 903 2953 641 2809 
L 641 3341 
Q 956 3463 1253 3523 
Q 1550 3584 1831 3584 
Q 2591 3584 2966 3190 
Q 3341 2797 3341 1997 
z
" transform="scale(0.015625)"/>
        <path id="DejaVuSans-64" d="M 2906 2969 
L 2906 4863 
L 3481 4863 
L 3481 0 
L 2906 0 
L 2906 525 
Q 2725 213 2448 61 
Q 2172 -91 1784 -91 
Q 1150 -91 751 415 
Q 353 922 353 1747 
Q 353 2572 751 3078 
Q 1150 3584 1784 3584 
Q 2172 3584 2448 3432 
Q 2725 3281 2906 2969 
z
M 947 1747 
Q 947 1113 1208 752 
Q 1469 391 1925 391 
Q 2381 391 2643 752 
Q 2906 1113 2906 1747 
Q 2906 2381 2643 2742 
Q 2381 3103 1925 3103 
Q 1469 3103 1208 2742 
Q 947 2381 947 1747 
z
" transform="scale(0.015625)"/>
        <path id="DejaVuSans-6f" d="M 1959 3097 
Q 1497 3097 1228 2736 
Q 959 2375 959 1747 
Q 959 1119 1226 758 
Q 1494 397 1959 397 
Q 2419 397 2687 759 
Q 2956 1122 2956 1747 
Q 2956 2369 2687 2733 
Q 2419 3097 1959 3097 
z
M 1959 3584 
Q 2709 3584 3137 3096 
Q 3566 2609 3566 1747 
Q 3566 888 3137 398 
Q 2709 -91 1959 -91 
Q 1206 -91 779 398 
Q 353 888 353 1747 
Q 353 2609 779 3096 
Q 1206 3584 1959 3584 
z
" transform="scale(0.015625)"/>
       </defs>
       <use xlink:href="#DejaVuSans-49"/>
       <use xlink:href="#DejaVuSans-6e" transform="translate(29.492188 0)"/>
       <use xlink:href="#DejaVuSans-74" transform="translate(92.871094 0)"/>
       <use xlink:href="#DejaVuSans-65" transform="translate(132.080078 0)"/>
       <use xlink:href="#DejaVuSans-67" transform="translate(193.603516 0)"/>
       <use xlink:href="#DejaVuSans-72" transform="translate(257.080078 0)"/>
       <use xlink:href="#DejaVuSans-61" transform="translate(298.193359 0)"/>
       <use xlink:href="#DejaVuSans-64" transform="translate(359.472656 0)"/>
       <use xlink:href="#DejaVuSans-6f" transform="translate(422.949219 0)"/>
      </g>
     </g>
    </g>
    <g id="xtick_2">
     <g id="line2d_2">
      <g>
       <use xlink:href="#mb3b7c84446" x="192.22125" y="333.764063" style="stroke: #000000; stroke-width: 0.8"/>
      </g>
     </g>
     <g id="text_2">
      <!-- Agroecológico -->
      <g transform="translate(169.351317 396.344866) rotate(-45) scale(0.1 -0.1)">
       <defs>
        <path id="DejaVuSans-41" d="M 2188 4044 
L 1331 1722 
L 3047 1722 
L 2188 4044 
z
M 1831 4666 
L 2547 4666 
L 4325 0 
L 3669 0 
L 3244 1197 
L 1141 1197 
L 716 0 
L 50 0 
L 1831 4666 
z
" transform="scale(0.015625)"/>
        <path id="DejaVuSans-63" d="M 3122 3366 
L 3122 2828 
Q 2878 2963 2633 3030 
Q 2388 3097 2138 3097 
Q 1578 3097 1268 2742 
Q 959 2388 959 1747 
Q 959 1106 1268 751 
Q 1578 397 2138 397 
Q 2388 397 2633 464 
Q 2878 531 3122 666 
L 3122 134 
Q 2881 22 2623 -34 
Q 2366 -91 2075 -91 
Q 1284 -91 818 406 
Q 353 903 353 1747 
Q 353 2603 823 3093 
Q 1294 3584 2113 3584 
Q 2378 3584 2631 3529 
Q 2884 3475 3122 3366 
z
" transform="scale(0.015625)"/>
        <path id="DejaVuSans-6c" d="M 603 4863 
L 1178 4863 
L 1178 0 
L 603 0 
L 603 4863 
z
" transform="scale(0.015625)"/>
        <path id="DejaVuSans-f3" d="M 1959 3097 
Q 1497 3097 1228 2736 
Q 959 2375 959 1747 
Q 959 1119 1226 758 
Q 1494 397 1959 397 
Q 2419 397 2687 759 
Q 2956 1122 2956 1747 
Q 2956 2369 2687 2733 
Q 2419 3097 1959 3097 
z
M 1959 3584 
Q 2709 3584 3137 3096 
Q 3566 2609 3566 1747 
Q 3566 888 3137 398 
Q 2709 -91 1959 -91 
Q 1206 -91 779 398 
Q 353 888 353 1747 
Q 353 2609 779 3096 
Q 1206 3584 1959 3584 
z
M 2394 5119 
L 3016 5119 
L 1998 3944 
L 1519 3944 
L 2394 5119 
z
" transform="scale(0.015625)"/>
        <path id="DejaVuSans-69" d="M 603 3500 
L 1178 3500 
L 1178 0 
L 603 0 
L 603 3500 
z
M 603 4863 
L 1178 4863 
L 1178 4134 
L 603 4134 
L 603 4863 
z
" transform="scale(0.015625)"/>
       </defs>
       <use xlink:href="#DejaVuSans-41"/>
       <use xlink:href="#DejaVuSans-67" transform="translate(68.408203 0)"/>
       <use xlink:href="#DejaVuSans-72" transform="translate(131.884766 0)"/>
       <use xlink:href="#DejaVuSans-6f" transform="translate(170.748047 0)"/>
       <use xlink:href="#DejaVuSans-65" transform="translate(231.929688 0)"/>
       <use xlink:href="#DejaVuSans-63" transform="translate(293.453125 0)"/>
       <use xlink:href="#DejaVuSans-6f" transform="translate(348.433594 0)"/>
       <use xlink:href="#DejaVuSans-6c" transform="translate(409.615234 0)"/>
       <use xlink:href="#DejaVuSans-f3" transform="translate(437.398438 0)"/>
       <use xlink:href="#DejaVuSans-67" transform="translate(498.580078 0)"/>
       <use xlink:href="#DejaVuSans-69" transform="translate(562.056641 0)"/>
       <use xlink:href="#DejaVuSans-63" transform="translate(589.839844 0)"/>
       <use xlink:href="#DejaVuSans-6f" transform="translate(644.820312 0)"/>
      </g>
     </g>
    </g>
    <g id="xtick_3">
     <g id="line2d_3">
      <g>
       <use xlink:href="#mb3b7c84446" x="293.3" y="333.764063" style="stroke: #000000; stroke-width: 0.8"/>
      </g>
     </g>
     <g id="text_3">
      <!-- Convencional  -->
      <g transform="translate(270.267101 396.105113) rotate(-45) scale(0.1 -0.1)">
       <defs>
        <path id="DejaVuSans-43" d="M 4122 4306 
L 4122 3641 
Q 3803 3938 3442 4084 
Q 3081 4231 2675 4231 
Q 1875 4231 1450 3742 
Q 1025 3253 1025 2328 
Q 1025 1406 1450 917 
Q 1875 428 2675 428 
Q 3081 428 3442 575 
Q 3803 722 4122 1019 
L 4122 359 
Q 3791 134 3420 21 
Q 3050 -91 2638 -91 
Q 1578 -91 968 557 
Q 359 1206 359 2328 
Q 359 3453 968 4101 
Q 1578 4750 2638 4750 
Q 3056 4750 3426 4639 
Q 3797 4528 4122 4306 
z
" transform="scale(0.015625)"/>
        <path id="DejaVuSans-76" d="M 191 3500 
L 800 3500 
L 1894 563 
L 2988 3500 
L 3597 3500 
L 2284 0 
L 1503 0 
L 191 3500 
z
" transform="scale(0.015625)"/>
        <path id="DejaVuSans-20" transform="scale(0.015625)"/>
       </defs>
       <use xlink:href="#DejaVuSans-43"/>
       <use xlink:href="#DejaVuSans-6f" transform="translate(69.824219 0)"/>
       <use xlink:href="#DejaVuSans-6e" transform="translate(131.005859 0)"/>
       <use xlink:href="#DejaVuSans-76" transform="translate(194.384766 0)"/>
       <use xlink:href="#DejaVuSans-65" transform="translate(253.564453 0)"/>
       <use xlink:href="#DejaVuSans-6e" transform="translate(315.087891 0)"/>
       <use xlink:href="#DejaVuSans-63" transform="translate(378.466797 0)"/>
       <use xlink:href="#DejaVuSans-69" transform="translate(433.447266 0)"/>
       <use xlink:href="#DejaVuSans-6f" transform="translate(461.230469 0)"/>
       <use xlink:href="#DejaVuSans-6e" transform="translate(522.412109 0)"/>
       <use xlink:href="#DejaVuSans-61" transform="translate(585.791016 0)"/>
       <use xlink:href="#DejaVuSans-6c" transform="translate(647.070312 0)"/>
       <use xlink:href="#DejaVuSans-20" transform="translate(674.853516 0)"/>
      </g>
     </g>
    </g>
    <g id="xtick_4">
     <g id="line2d_4">
      <g>
       <use xlink:href="#mb3b7c84446" x="394.37875" y="333.764063" style="stroke: #000000; stroke-width: 0.8"/>
      </g>
     </g>
     <g id="text_4">
      <!-- otherComposta -->
      <g transform="translate(369.032839 400.731138) rotate(-45) scale(0.1 -0.1)">
       <defs>
        <path id="DejaVuSans-68" d="M 3513 2113 
L 3513 0 
L 2938 0 
L 2938 2094 
Q 2938 2591 2744 2837 
Q 2550 3084 2163 3084 
Q 1697 3084 1428 2787 
Q 1159 2491 1159 1978 
L 1159 0 
L 581 0 
L 581 4863 
L 1159 4863 
L 1159 2956 
Q 1366 3272 1645 3428 
Q 1925 3584 2291 3584 
Q 2894 3584 3203 3211 
Q 3513 2838 3513 2113 
z
" transform="scale(0.015625)"/>
        <path id="DejaVuSans-6d" d="M 3328 2828 
Q 3544 3216 3844 3400 
Q 4144 3584 4550 3584 
Q 5097 3584 5394 3201 
Q 5691 2819 5691 2113 
L 5691 0 
L 5113 0 
L 5113 2094 
Q 5113 2597 4934 2840 
Q 4756 3084 4391 3084 
Q 3944 3084 3684 2787 
Q 3425 2491 3425 1978 
L 3425 0 
L 2847 0 
L 2847 2094 
Q 2847 2600 2669 2842 
Q 2491 3084 2119 3084 
Q 1678 3084 1418 2786 
Q 1159 2488 1159 1978 
L 1159 0 
L 581 0 
L 581 3500 
L 1159 3500 
L 1159 2956 
Q 1356 3278 1631 3431 
Q 1906 3584 2284 3584 
Q 2666 3584 2933 3390 
Q 3200 3197 3328 2828 
z
" transform="scale(0.015625)"/>
        <path id="DejaVuSans-70" d="M 1159 525 
L 1159 -1331 
L 581 -1331 
L 581 3500 
L 1159 3500 
L 1159 2969 
Q 1341 3281 1617 3432 
Q 1894 3584 2278 3584 
Q 2916 3584 3314 3078 
Q 3713 2572 3713 1747 
Q 3713 922 3314 415 
Q 2916 -91 2278 -91 
Q 1894 -91 1617 61 
Q 1341 213 1159 525 
z
M 3116 1747 
Q 3116 2381 2855 2742 
Q 2594 3103 2138 3103 
Q 1681 3103 1420 2742 
Q 1159 2381 1159 1747 
Q 1159 1113 1420 752 
Q 1681 391 2138 391 
Q 2594 391 2855 752 
Q 3116 1113 3116 1747 
z
" transform="scale(0.015625)"/>
        <path id="DejaVuSans-73" d="M 2834 3397 
L 2834 2853 
Q 2591 2978 2328 3040 
Q 2066 3103 1784 3103 
Q 1356 3103 1142 2972 
Q 928 2841 928 2578 
Q 928 2378 1081 2264 
Q 1234 2150 1697 2047 
L 1894 2003 
Q 2506 1872 2764 1633 
Q 3022 1394 3022 966 
Q 3022 478 2636 193 
Q 2250 -91 1575 -91 
Q 1294 -91 989 -36 
Q 684 19 347 128 
L 347 722 
Q 666 556 975 473 
Q 1284 391 1588 391 
Q 1994 391 2212 530 
Q 2431 669 2431 922 
Q 2431 1156 2273 1281 
Q 2116 1406 1581 1522 
L 1381 1569 
Q 847 1681 609 1914 
Q 372 2147 372 2553 
Q 372 3047 722 3315 
Q 1072 3584 1716 3584 
Q 2034 3584 2315 3537 
Q 2597 3491 2834 3397 
z
" transform="scale(0.015625)"/>
       </defs>
       <use xlink:href="#DejaVuSans-6f"/>
       <use xlink:href="#DejaVuSans-74" transform="translate(61.181641 0)"/>
       <use xlink:href="#DejaVuSans-68" transform="translate(100.390625 0)"/>
       <use xlink:href="#DejaVuSans-65" transform="translate(163.769531 0)"/>
       <use xlink:href="#DejaVuSans-72" transform="translate(225.292969 0)"/>
       <use xlink:href="#DejaVuSans-43" transform="translate(266.40625 0)"/>
       <use xlink:href="#DejaVuSans-6f" transform="translate(336.230469 0)"/>
       <use xlink:href="#DejaVuSans-6d" transform="translate(397.412109 0)"/>
       <use xlink:href="#DejaVuSans-70" transform="translate(494.824219 0)"/>
       <use xlink:href="#DejaVuSans-6f" transform="translate(558.300781 0)"/>
       <use xlink:href="#DejaVuSans-73" transform="translate(619.482422 0)"/>
       <use xlink:href="#DejaVuSans-74" transform="translate(671.582031 0)"/>
       <use xlink:href="#DejaVuSans-61" transform="translate(710.791016 0)"/>
      </g>
     </g>
    </g>
    <g id="xtick_5">
     <g id="line2d_5">
      <g>
       <use xlink:href="#mb3b7c84446" x="495.4575" y="333.764063" style="stroke: #000000; stroke-width: 0.8"/>
      </g>
     </g>
     <g id="text_5">
      <!-- otherQuimico -->
      <g transform="translate(473.450459 394.053398) rotate(-45) scale(0.1 -0.1)">
       <defs>
        <path id="DejaVuSans-51" d="M 2522 4238 
Q 1834 4238 1429 3725 
Q 1025 3213 1025 2328 
Q 1025 1447 1429 934 
Q 1834 422 2522 422 
Q 3209 422 3611 934 
Q 4013 1447 4013 2328 
Q 4013 3213 3611 3725 
Q 3209 4238 2522 4238 
z
M 3406 84 
L 4238 -825 
L 3475 -825 
L 2784 -78 
Q 2681 -84 2626 -87 
Q 2572 -91 2522 -91 
Q 1538 -91 948 567 
Q 359 1225 359 2328 
Q 359 3434 948 4092 
Q 1538 4750 2522 4750 
Q 3503 4750 4090 4092 
Q 4678 3434 4678 2328 
Q 4678 1516 4351 937 
Q 4025 359 3406 84 
z
" transform="scale(0.015625)"/>
        <path id="DejaVuSans-75" d="M 544 1381 
L 544 3500 
L 1119 3500 
L 1119 1403 
Q 1119 906 1312 657 
Q 1506 409 1894 409 
Q 2359 409 2629 706 
Q 2900 1003 2900 1516 
L 2900 3500 
L 3475 3500 
L 3475 0 
L 2900 0 
L 2900 538 
Q 2691 219 2414 64 
Q 2138 -91 1772 -91 
Q 1169 -91 856 284 
Q 544 659 544 1381 
z
M 1991 3584 
L 1991 3584 
z
" transform="scale(0.015625)"/>
       </defs>
       <use xlink:href="#DejaVuSans-6f"/>
       <use xlink:href="#DejaVuSans-74" transform="translate(61.181641 0)"/>
       <use xlink:href="#DejaVuSans-68" transform="translate(100.390625 0)"/>
       <use xlink:href="#DejaVuSans-65" transform="translate(163.769531 0)"/>
       <use xlink:href="#DejaVuSans-72" transform="translate(225.292969 0)"/>
       <use xlink:href="#DejaVuSans-51" transform="translate(266.40625 0)"/>
       <use xlink:href="#DejaVuSans-75" transform="translate(345.117188 0)"/>
       <use xlink:href="#DejaVuSans-69" transform="translate(408.496094 0)"/>
       <use xlink:href="#DejaVuSans-6d" transform="translate(436.279297 0)"/>
       <use xlink:href="#DejaVuSans-69" transform="translate(533.691406 0)"/>
       <use xlink:href="#DejaVuSans-63" transform="translate(561.474609 0)"/>
       <use xlink:href="#DejaVuSans-6f" transform="translate(616.455078 0)"/>
      </g>
     </g>
    </g>
    <g id="xtick_6">
     <g id="line2d_6">
      <g>
       <use xlink:href="#mb3b7c84446" x="596.53625" y="333.764063" style="stroke: #000000; stroke-width: 0.8"/>
      </g>
     </g>
     <g id="text_6">
      <!-- otherBokashi -->
      <g transform="translate(575.262832 392.586152) rotate(-45) scale(0.1 -0.1)">
       <defs>
        <path id="DejaVuSans-42" d="M 1259 2228 
L 1259 519 
L 2272 519 
Q 2781 519 3026 730 
Q 3272 941 3272 1375 
Q 3272 1813 3026 2020 
Q 2781 2228 2272 2228 
L 1259 2228 
z
M 1259 4147 
L 1259 2741 
L 2194 2741 
Q 2656 2741 2882 2914 
Q 3109 3088 3109 3444 
Q 3109 3797 2882 3972 
Q 2656 4147 2194 4147 
L 1259 4147 
z
M 628 4666 
L 2241 4666 
Q 2963 4666 3353 4366 
Q 3744 4066 3744 3513 
Q 3744 3084 3544 2831 
Q 3344 2578 2956 2516 
Q 3422 2416 3680 2098 
Q 3938 1781 3938 1306 
Q 3938 681 3513 340 
Q 3088 0 2303 0 
L 628 0 
L 628 4666 
z
" transform="scale(0.015625)"/>
        <path id="DejaVuSans-6b" d="M 581 4863 
L 1159 4863 
L 1159 1991 
L 2875 3500 
L 3609 3500 
L 1753 1863 
L 3688 0 
L 2938 0 
L 1159 1709 
L 1159 0 
L 581 0 
L 581 4863 
z
" transform="scale(0.015625)"/>
       </defs>
       <use xlink:href="#DejaVuSans-6f"/>
       <use xlink:href="#DejaVuSans-74" transform="translate(61.181641 0)"/>
       <use xlink:href="#DejaVuSans-68" transform="translate(100.390625 0)"/>
       <use xlink:href="#DejaVuSans-65" transform="translate(163.769531 0)"/>
       <use xlink:href="#DejaVuSans-72" transform="translate(225.292969 0)"/>
       <use xlink:href="#DejaVuSans-42" transform="translate(266.40625 0)"/>
       <use xlink:href="#DejaVuSans-6f" transform="translate(335.009766 0)"/>
       <use xlink:href="#DejaVuSans-6b" transform="translate(396.191406 0)"/>
       <use xlink:href="#DejaVuSans-61" transform="translate(452.351562 0)"/>
       <use xlink:href="#DejaVuSans-73" transform="translate(513.630859 0)"/>
       <use xlink:href="#DejaVuSans-68" transform="translate(565.730469 0)"/>
       <use xlink:href="#DejaVuSans-69" transform="translate(629.109375 0)"/>
      </g>
     </g>
    </g>
    <g id="xtick_7">
     <g id="line2d_7">
      <g>
       <use xlink:href="#mb3b7c84446" x="697.615" y="333.764063" style="stroke: #000000; stroke-width: 0.8"/>
      </g>
     </g>
     <g id="text_7">
      <!-- otherTestigo -->
      <g transform="translate(677.79557 389.678175) rotate(-45) scale(0.1 -0.1)">
       <defs>
        <path id="DejaVuSans-54" d="M -19 4666 
L 3928 4666 
L 3928 4134 
L 2272 4134 
L 2272 0 
L 1638 0 
L 1638 4134 
L -19 4134 
L -19 4666 
z
" transform="scale(0.015625)"/>
       </defs>
       <use xlink:href="#DejaVuSans-6f"/>
       <use xlink:href="#DejaVuSans-74" transform="translate(61.181641 0)"/>
       <use xlink:href="#DejaVuSans-68" transform="translate(100.390625 0)"/>
       <use xlink:href="#DejaVuSans-65" transform="translate(163.769531 0)"/>
       <use xlink:href="#DejaVuSans-72" transform="translate(225.292969 0)"/>
       <use xlink:href="#DejaVuSans-54" transform="translate(266.40625 0)"/>
       <use xlink:href="#DejaVuSans-65" transform="translate(310.490234 0)"/>
       <use xlink:href="#DejaVuSans-73" transform="translate(372.013672 0)"/>
       <use xlink:href="#DejaVuSans-74" transform="translate(424.113281 0)"/>
       <use xlink:href="#DejaVuSans-69" transform="translate(463.322266 0)"/>
       <use xlink:href="#DejaVuSans-67" transform="translate(491.105469 0)"/>
       <use xlink:href="#DejaVuSans-6f" transform="translate(554.582031 0)"/>
      </g>
     </g>
    </g>
    <g id="xtick_8">
     <g id="line2d_8">
      <g>
       <use xlink:href="#mb3b7c84446" x="798.69375" y="333.764063" style="stroke: #000000; stroke-width: 0.8"/>
      </g>
     </g>
     <g id="text_8">
      <!-- other -->
      <g transform="translate(791.226039 364.974737) rotate(-45) scale(0.1 -0.1)">
       <use xlink:href="#DejaVuSans-6f"/>
       <use xlink:href="#DejaVuSans-74" transform="translate(61.181641 0)"/>
       <use xlink:href="#DejaVuSans-68" transform="translate(100.390625 0)"/>
       <use xlink:href="#DejaVuSans-65" transform="translate(163.769531 0)"/>
       <use xlink:href="#DejaVuSans-72" transform="translate(225.292969 0)"/>
      </g>
     </g>
    </g>
    <g id="text_9">
     <!-- tratamiento -->
     <g transform="translate(415.29 413.800136) scale(0.1 -0.1)">
      <use xlink:href="#DejaVuSans-74"/>
      <use xlink:href="#DejaVuSans-72" transform="translate(39.208984 0)"/>
      <use xlink:href="#DejaVuSans-61" transform="translate(80.322266 0)"/>
      <use xlink:href="#DejaVuSans-74" transform="translate(141.601562 0)"/>
      <use xlink:href="#DejaVuSans-61" transform="translate(180.810547 0)"/>
      <use xlink:href="#DejaVuSans-6d" transform="translate(242.089844 0)"/>
      <use xlink:href="#DejaVuSans-69" transform="translate(339.501953 0)"/>
      <use xlink:href="#DejaVuSans-65" transform="translate(367.285156 0)"/>
      <use xlink:href="#DejaVuSans-6e" transform="translate(428.808594 0)"/>
      <use xlink:href="#DejaVuSans-74" transform="translate(492.1875 0)"/>
      <use xlink:href="#DejaVuSans-6f" transform="translate(531.396484 0)"/>
     </g>
    </g>
   </g>
   <g id="matplotlib.axis_2">
    <g id="ytick_1">
     <g id="line2d_9">
      <defs>
       <path id="m226739cfec" d="M 0 0 
L -3.5 0 
" style="stroke: #000000; stroke-width: 0.8"/>
      </defs>
      <g>
       <use xlink:href="#m226739cfec" x="40.603125" y="323.097298" style="stroke: #000000; stroke-width: 0.8"/>
      </g>
     </g>
     <g id="text_10">
      <!-- 5 -->
      <g transform="translate(27.240625 326.896517) scale(0.1 -0.1)">
       <defs>
        <path id="DejaVuSans-35" d="M 691 4666 
L 3169 4666 
L 3169 4134 
L 1269 4134 
L 1269 2991 
Q 1406 3038 1543 3061 
Q 1681 3084 1819 3084 
Q 2600 3084 3056 2656 
Q 3513 2228 3513 1497 
Q 3513 744 3044 326 
Q 2575 -91 1722 -91 
Q 1428 -91 1123 -41 
Q 819 9 494 109 
L 494 744 
Q 775 591 1075 516 
Q 1375 441 1709 441 
Q 2250 441 2565 725 
Q 2881 1009 2881 1497 
Q 2881 1984 2565 2268 
Q 2250 2553 1709 2553 
Q 1456 2553 1204 2497 
Q 953 2441 691 2322 
L 691 4666 
z
" transform="scale(0.015625)"/>
       </defs>
       <use xlink:href="#DejaVuSans-35"/>
      </g>
     </g>
    </g>
    <g id="ytick_2">
     <g id="line2d_10">
      <g>
       <use xlink:href="#m226739cfec" x="40.603125" y="263.31465" style="stroke: #000000; stroke-width: 0.8"/>
      </g>
     </g>
     <g id="text_11">
      <!-- 6 -->
      <g transform="translate(27.240625 267.113868) scale(0.1 -0.1)">
       <defs>
        <path id="DejaVuSans-36" d="M 2113 2584 
Q 1688 2584 1439 2293 
Q 1191 2003 1191 1497 
Q 1191 994 1439 701 
Q 1688 409 2113 409 
Q 2538 409 2786 701 
Q 3034 994 3034 1497 
Q 3034 2003 2786 2293 
Q 2538 2584 2113 2584 
z
M 3366 4563 
L 3366 3988 
Q 3128 4100 2886 4159 
Q 2644 4219 2406 4219 
Q 1781 4219 1451 3797 
Q 1122 3375 1075 2522 
Q 1259 2794 1537 2939 
Q 1816 3084 2150 3084 
Q 2853 3084 3261 2657 
Q 3669 2231 3669 1497 
Q 3669 778 3244 343 
Q 2819 -91 2113 -91 
Q 1303 -91 875 529 
Q 447 1150 447 2328 
Q 447 3434 972 4092 
Q 1497 4750 2381 4750 
Q 2619 4750 2861 4703 
Q 3103 4656 3366 4563 
z
" transform="scale(0.015625)"/>
       </defs>
       <use xlink:href="#DejaVuSans-36"/>
      </g>
     </g>
    </g>
    <g id="ytick_3">
     <g id="line2d_11">
      <g>
       <use xlink:href="#m226739cfec" x="40.603125" y="203.532001" style="stroke: #000000; stroke-width: 0.8"/>
      </g>
     </g>
     <g id="text_12">
      <!-- 7 -->
      <g transform="translate(27.240625 207.33122) scale(0.1 -0.1)">
       <defs>
        <path id="DejaVuSans-37" d="M 525 4666 
L 3525 4666 
L 3525 4397 
L 1831 0 
L 1172 0 
L 2766 4134 
L 525 4134 
L 525 4666 
z
" transform="scale(0.015625)"/>
       </defs>
       <use xlink:href="#DejaVuSans-37"/>
      </g>
     </g>
    </g>
    <g id="ytick_4">
     <g id="line2d_12">
      <g>
       <use xlink:href="#m226739cfec" x="40.603125" y="143.749352" style="stroke: #000000; stroke-width: 0.8"/>
      </g>
     </g>
     <g id="text_13">
      <!-- 8 -->
      <g transform="translate(27.240625 147.548571) scale(0.1 -0.1)">
       <defs>
        <path id="DejaVuSans-38" d="M 2034 2216 
Q 1584 2216 1326 1975 
Q 1069 1734 1069 1313 
Q 1069 891 1326 650 
Q 1584 409 2034 409 
Q 2484 409 2743 651 
Q 3003 894 3003 1313 
Q 3003 1734 2745 1975 
Q 2488 2216 2034 2216 
z
M 1403 2484 
Q 997 2584 770 2862 
Q 544 3141 544 3541 
Q 544 4100 942 4425 
Q 1341 4750 2034 4750 
Q 2731 4750 3128 4425 
Q 3525 4100 3525 3541 
Q 3525 3141 3298 2862 
Q 3072 2584 2669 2484 
Q 3125 2378 3379 2068 
Q 3634 1759 3634 1313 
Q 3634 634 3220 271 
Q 2806 -91 2034 -91 
Q 1263 -91 848 271 
Q 434 634 434 1313 
Q 434 1759 690 2068 
Q 947 2378 1403 2484 
z
M 1172 3481 
Q 1172 3119 1398 2916 
Q 1625 2713 2034 2713 
Q 2441 2713 2670 2916 
Q 2900 3119 2900 3481 
Q 2900 3844 2670 4047 
Q 2441 4250 2034 4250 
Q 1625 4250 1398 4047 
Q 1172 3844 1172 3481 
z
" transform="scale(0.015625)"/>
       </defs>
       <use xlink:href="#DejaVuSans-38"/>
      </g>
     </g>
    </g>
    <g id="ytick_5">
     <g id="line2d_13">
      <g>
       <use xlink:href="#m226739cfec" x="40.603125" y="83.966704" style="stroke: #000000; stroke-width: 0.8"/>
      </g>
     </g>
     <g id="text_14">
      <!-- 9 -->
      <g transform="translate(27.240625 87.765922) scale(0.1 -0.1)">
       <defs>
        <path id="DejaVuSans-39" d="M 703 97 
L 703 672 
Q 941 559 1184 500 
Q 1428 441 1663 441 
Q 2288 441 2617 861 
Q 2947 1281 2994 2138 
Q 2813 1869 2534 1725 
Q 2256 1581 1919 1581 
Q 1219 1581 811 2004 
Q 403 2428 403 3163 
Q 403 3881 828 4315 
Q 1253 4750 1959 4750 
Q 2769 4750 3195 4129 
Q 3622 3509 3622 2328 
Q 3622 1225 3098 567 
Q 2575 -91 1691 -91 
Q 1453 -91 1209 -44 
Q 966 3 703 97 
z
M 1959 2075 
Q 2384 2075 2632 2365 
Q 2881 2656 2881 3163 
Q 2881 3666 2632 3958 
Q 2384 4250 1959 4250 
Q 1534 4250 1286 3958 
Q 1038 3666 1038 3163 
Q 1038 2656 1286 2365 
Q 1534 2075 1959 2075 
z
" transform="scale(0.015625)"/>
       </defs>
       <use xlink:href="#DejaVuSans-39"/>
      </g>
     </g>
    </g>
    <g id="ytick_6">
     <g id="line2d_14">
      <g>
       <use xlink:href="#m226739cfec" x="40.603125" y="24.184055" style="stroke: #000000; stroke-width: 0.8"/>
      </g>
     </g>
     <g id="text_15">
      <!-- 10 -->
      <g transform="translate(20.878125 27.983274) scale(0.1 -0.1)">
       <defs>
        <path id="DejaVuSans-31" d="M 794 531 
L 1825 531 
L 1825 4091 
L 703 3866 
L 703 4441 
L 1819 4666 
L 2450 4666 
L 2450 531 
L 3481 531 
L 3481 0 
L 794 0 
L 794 531 
z
" transform="scale(0.015625)"/>
        <path id="DejaVuSans-30" d="M 2034 4250 
Q 1547 4250 1301 3770 
Q 1056 3291 1056 2328 
Q 1056 1369 1301 889 
Q 1547 409 2034 409 
Q 2525 409 2770 889 
Q 3016 1369 3016 2328 
Q 3016 3291 2770 3770 
Q 2525 4250 2034 4250 
z
M 2034 4750 
Q 2819 4750 3233 4129 
Q 3647 3509 3647 2328 
Q 3647 1150 3233 529 
Q 2819 -91 2034 -91 
Q 1250 -91 836 529 
Q 422 1150 422 2328 
Q 422 3509 836 4129 
Q 1250 4750 2034 4750 
z
" transform="scale(0.015625)"/>
       </defs>
       <use xlink:href="#DejaVuSans-31"/>
       <use xlink:href="#DejaVuSans-30" transform="translate(63.623047 0)"/>
      </g>
     </g>
    </g>
    <g id="text_16">
     <!-- shannon -->
     <g transform="translate(14.798438 199.444219) rotate(-90) scale(0.1 -0.1)">
      <use xlink:href="#DejaVuSans-73"/>
      <use xlink:href="#DejaVuSans-68" transform="translate(52.099609 0)"/>
      <use xlink:href="#DejaVuSans-61" transform="translate(115.478516 0)"/>
      <use xlink:href="#DejaVuSans-6e" transform="translate(176.757812 0)"/>
      <use xlink:href="#DejaVuSans-6e" transform="translate(240.136719 0)"/>
      <use xlink:href="#DejaVuSans-6f" transform="translate(303.515625 0)"/>
      <use xlink:href="#DejaVuSans-6e" transform="translate(364.697266 0)"/>
     </g>
    </g>
   </g>
   <g id="line2d_15">
    <path d="M 65.872813 116.792911 
L 116.412188 116.792911 
L 116.412188 70.099952 
L 65.872813 70.099952 
L 65.872813 116.792911 
" clip-path="url(#pd11795b459)" style="fill: none; stroke: #000000; stroke-linecap: square"/>
   </g>
   <g id="line2d_16">
    <path d="M 91.1425 116.792911 
L 91.1425 149.801787 
" clip-path="url(#pd11795b459)" style="fill: none; stroke: #000000; stroke-linecap: square"/>
   </g>
   <g id="line2d_17">
    <path d="M 91.1425 70.099952 
L 91.1425 36.474759 
" clip-path="url(#pd11795b459)" style="fill: none; stroke: #000000; stroke-linecap: square"/>
   </g>
   <g id="line2d_18">
    <path d="M 78.507656 149.801787 
L 103.777344 149.801787 
" clip-path="url(#pd11795b459)" style="fill: none; stroke: #000000; stroke-linecap: square"/>
   </g>
   <g id="line2d_19">
    <path d="M 78.507656 36.474759 
L 103.777344 36.474759 
" clip-path="url(#pd11795b459)" style="fill: none; stroke: #000000; stroke-linecap: square"/>
   </g>
   <g id="line2d_20"/>
   <g id="line2d_21">
    <path d="M 166.951563 183.111597 
L 217.490938 183.111597 
L 217.490938 45.213006 
L 166.951563 45.213006 
L 166.951563 183.111597 
" clip-path="url(#pd11795b459)" style="fill: none; stroke: #000000; stroke-linecap: square"/>
   </g>
   <g id="line2d_22">
    <path d="M 192.22125 183.111597 
L 192.22125 269.553134 
" clip-path="url(#pd11795b459)" style="fill: none; stroke: #000000; stroke-linecap: square"/>
   </g>
   <g id="line2d_23">
    <path d="M 192.22125 45.213006 
L 192.22125 39.803035 
" clip-path="url(#pd11795b459)" style="fill: none; stroke: #000000; stroke-linecap: square"/>
   </g>
   <g id="line2d_24">
    <path d="M 179.586406 269.553134 
L 204.856094 269.553134 
" clip-path="url(#pd11795b459)" style="fill: none; stroke: #000000; stroke-linecap: square"/>
   </g>
   <g id="line2d_25">
    <path d="M 179.586406 39.803035 
L 204.856094 39.803035 
" clip-path="url(#pd11795b459)" style="fill: none; stroke: #000000; stroke-linecap: square"/>
   </g>
   <g id="line2d_26"/>
   <g id="line2d_27">
    <path d="M 268.030313 241.322465 
L 318.569688 241.322465 
L 318.569688 201.406171 
L 268.030313 201.406171 
L 268.030313 241.322465 
" clip-path="url(#pd11795b459)" style="fill: none; stroke: #000000; stroke-linecap: square"/>
   </g>
   <g id="line2d_28">
    <path d="M 293.3 241.322465 
L 293.3 243.234006 
" clip-path="url(#pd11795b459)" style="fill: none; stroke: #000000; stroke-linecap: square"/>
   </g>
   <g id="line2d_29">
    <path d="M 293.3 201.406171 
L 293.3 166.325422 
" clip-path="url(#pd11795b459)" style="fill: none; stroke: #000000; stroke-linecap: square"/>
   </g>
   <g id="line2d_30">
    <path d="M 280.665156 243.234006 
L 305.934844 243.234006 
" clip-path="url(#pd11795b459)" style="fill: none; stroke: #000000; stroke-linecap: square"/>
   </g>
   <g id="line2d_31">
    <path d="M 280.665156 166.325422 
L 305.934844 166.325422 
" clip-path="url(#pd11795b459)" style="fill: none; stroke: #000000; stroke-linecap: square"/>
   </g>
   <g id="line2d_32"/>
   <g id="line2d_33">
    <path d="M 369.109063 76.381019 
L 419.648438 76.381019 
L 419.648438 69.181781 
L 369.109063 69.181781 
L 369.109063 76.381019 
" clip-path="url(#pd11795b459)" style="fill: none; stroke: #000000; stroke-linecap: square"/>
   </g>
   <g id="line2d_34">
    <path d="M 394.37875 76.381019 
L 394.37875 81.451333 
" clip-path="url(#pd11795b459)" style="fill: none; stroke: #000000; stroke-linecap: square"/>
   </g>
   <g id="line2d_35">
    <path d="M 394.37875 69.181781 
L 394.37875 67.052858 
" clip-path="url(#pd11795b459)" style="fill: none; stroke: #000000; stroke-linecap: square"/>
   </g>
   <g id="line2d_36">
    <path d="M 381.743906 81.451333 
L 407.013594 81.451333 
" clip-path="url(#pd11795b459)" style="fill: none; stroke: #000000; stroke-linecap: square"/>
   </g>
   <g id="line2d_37">
    <path d="M 381.743906 67.052858 
L 407.013594 67.052858 
" clip-path="url(#pd11795b459)" style="fill: none; stroke: #000000; stroke-linecap: square"/>
   </g>
   <g id="line2d_38"/>
   <g id="line2d_39">
    <path d="M 470.187813 129.100277 
L 520.727188 129.100277 
L 520.727188 109.004457 
L 470.187813 109.004457 
L 470.187813 129.100277 
" clip-path="url(#pd11795b459)" style="fill: none; stroke: #000000; stroke-linecap: square"/>
   </g>
   <g id="line2d_40">
    <path d="M 495.4575 129.100277 
L 495.4575 145.35485 
" clip-path="url(#pd11795b459)" style="fill: none; stroke: #000000; stroke-linecap: square"/>
   </g>
   <g id="line2d_41">
    <path d="M 495.4575 109.004457 
L 495.4575 105.163209 
" clip-path="url(#pd11795b459)" style="fill: none; stroke: #000000; stroke-linecap: square"/>
   </g>
   <g id="line2d_42">
    <path d="M 482.822656 145.35485 
L 508.092344 145.35485 
" clip-path="url(#pd11795b459)" style="fill: none; stroke: #000000; stroke-linecap: square"/>
   </g>
   <g id="line2d_43">
    <path d="M 482.822656 105.163209 
L 508.092344 105.163209 
" clip-path="url(#pd11795b459)" style="fill: none; stroke: #000000; stroke-linecap: square"/>
   </g>
   <g id="line2d_44"/>
   <g id="line2d_45">
    <path d="M 571.266563 76.082591 
L 621.805938 76.082591 
L 621.805938 67.385099 
L 571.266563 67.385099 
L 571.266563 76.082591 
" clip-path="url(#pd11795b459)" style="fill: none; stroke: #000000; stroke-linecap: square"/>
   </g>
   <g id="line2d_46">
    <path d="M 596.53625 76.082591 
L 596.53625 78.8529 
" clip-path="url(#pd11795b459)" style="fill: none; stroke: #000000; stroke-linecap: square"/>
   </g>
   <g id="line2d_47">
    <path d="M 596.53625 67.385099 
L 596.53625 61.457916 
" clip-path="url(#pd11795b459)" style="fill: none; stroke: #000000; stroke-linecap: square"/>
   </g>
   <g id="line2d_48">
    <path d="M 583.901406 78.8529 
L 609.171094 78.8529 
" clip-path="url(#pd11795b459)" style="fill: none; stroke: #000000; stroke-linecap: square"/>
   </g>
   <g id="line2d_49">
    <path d="M 583.901406 61.457916 
L 609.171094 61.457916 
" clip-path="url(#pd11795b459)" style="fill: none; stroke: #000000; stroke-linecap: square"/>
   </g>
   <g id="line2d_50"/>
   <g id="line2d_51">
    <path d="M 672.345313 228.730223 
L 722.884688 228.730223 
L 722.884688 228.730223 
L 672.345313 228.730223 
L 672.345313 228.730223 
" clip-path="url(#pd11795b459)" style="fill: none; stroke: #000000; stroke-linecap: square"/>
   </g>
   <g id="line2d_52">
    <path d="M 697.615 228.730223 
L 697.615 228.730223 
" clip-path="url(#pd11795b459)" style="fill: none; stroke: #000000; stroke-linecap: square"/>
   </g>
   <g id="line2d_53">
    <path d="M 697.615 228.730223 
L 697.615 228.730223 
" clip-path="url(#pd11795b459)" style="fill: none; stroke: #000000; stroke-linecap: square"/>
   </g>
   <g id="line2d_54">
    <path d="M 684.980156 228.730223 
L 710.249844 228.730223 
" clip-path="url(#pd11795b459)" style="fill: none; stroke: #000000; stroke-linecap: square"/>
   </g>
   <g id="line2d_55">
    <path d="M 684.980156 228.730223 
L 710.249844 228.730223 
" clip-path="url(#pd11795b459)" style="fill: none; stroke: #000000; stroke-linecap: square"/>
   </g>
   <g id="line2d_56"/>
   <g id="line2d_57">
    <path d="M 773.424063 317.543936 
L 823.963438 317.543936 
L 823.963438 313.41695 
L 773.424063 313.41695 
L 773.424063 317.543936 
" clip-path="url(#pd11795b459)" style="fill: none; stroke: #000000; stroke-linecap: square"/>
   </g>
   <g id="line2d_58">
    <path d="M 798.69375 317.543936 
L 798.69375 319.60743 
" clip-path="url(#pd11795b459)" style="fill: none; stroke: #000000; stroke-linecap: square"/>
   </g>
   <g id="line2d_59">
    <path d="M 798.69375 313.41695 
L 798.69375 311.353456 
" clip-path="url(#pd11795b459)" style="fill: none; stroke: #000000; stroke-linecap: square"/>
   </g>
   <g id="line2d_60">
    <path d="M 786.058906 319.60743 
L 811.328594 319.60743 
" clip-path="url(#pd11795b459)" style="fill: none; stroke: #000000; stroke-linecap: square"/>
   </g>
   <g id="line2d_61">
    <path d="M 786.058906 311.353456 
L 811.328594 311.353456 
" clip-path="url(#pd11795b459)" style="fill: none; stroke: #000000; stroke-linecap: square"/>
   </g>
   <g id="line2d_62"/>
   <g id="line2d_63">
    <path d="M 65.872813 92.662868 
L 116.412188 92.662868 
" clip-path="url(#pd11795b459)" style="fill: none; stroke: #ff7f0e"/>
   </g>
   <g id="line2d_64">
    <defs>
     <path id="m73fc714d24" d="M 0 -3 
L -3 3 
L 3 3 
z
" style="stroke: #2ca02c; stroke-linejoin: miter"/>
    </defs>
    <g clip-path="url(#pd11795b459)">
     <use xlink:href="#m73fc714d24" x="91.1425" y="93.748316" style="fill: #2ca02c; stroke: #2ca02c; stroke-linejoin: miter"/>
    </g>
   </g>
   <g id="line2d_65">
    <path d="M 166.951563 151.166991 
L 217.490938 151.166991 
" clip-path="url(#pd11795b459)" style="fill: none; stroke: #ff7f0e"/>
   </g>
   <g id="line2d_66">
    <g clip-path="url(#pd11795b459)">
     <use xlink:href="#m73fc714d24" x="192.22125" y="135.473662" style="fill: #2ca02c; stroke: #2ca02c; stroke-linejoin: miter"/>
    </g>
   </g>
   <g id="line2d_67">
    <path d="M 268.030313 226.89252 
L 318.569688 226.89252 
" clip-path="url(#pd11795b459)" style="fill: none; stroke: #ff7f0e"/>
   </g>
   <g id="line2d_68">
    <g clip-path="url(#pd11795b459)">
     <use xlink:href="#m73fc714d24" x="293.3" y="215.836117" style="fill: #2ca02c; stroke: #2ca02c; stroke-linejoin: miter"/>
    </g>
   </g>
   <g id="line2d_69">
    <path d="M 369.109063 71.310704 
L 419.648438 71.310704 
" clip-path="url(#pd11795b459)" style="fill: none; stroke: #ff7f0e"/>
   </g>
   <g id="line2d_70">
    <g clip-path="url(#pd11795b459)">
     <use xlink:href="#m73fc714d24" x="394.37875" y="73.271632" style="fill: #2ca02c; stroke: #2ca02c; stroke-linejoin: miter"/>
    </g>
   </g>
   <g id="line2d_71">
    <path d="M 470.187813 112.845705 
L 520.727188 112.845705 
" clip-path="url(#pd11795b459)" style="fill: none; stroke: #ff7f0e"/>
   </g>
   <g id="line2d_72">
    <g clip-path="url(#pd11795b459)">
     <use xlink:href="#m73fc714d24" x="495.4575" y="121.121255" style="fill: #2ca02c; stroke: #2ca02c; stroke-linejoin: miter"/>
    </g>
   </g>
   <g id="line2d_73">
    <path d="M 571.266563 73.312282 
L 621.805938 73.312282 
" clip-path="url(#pd11795b459)" style="fill: none; stroke: #ff7f0e"/>
   </g>
   <g id="line2d_74">
    <g clip-path="url(#pd11795b459)">
     <use xlink:href="#m73fc714d24" x="596.53625" y="71.207699" style="fill: #2ca02c; stroke: #2ca02c; stroke-linejoin: miter"/>
    </g>
   </g>
   <g id="line2d_75">
    <path d="M 672.345313 228.730223 
L 722.884688 228.730223 
" clip-path="url(#pd11795b459)" style="fill: none; stroke: #ff7f0e"/>
   </g>
   <g id="line2d_76">
    <g clip-path="url(#pd11795b459)">
     <use xlink:href="#m73fc714d24" x="697.615" y="228.730223" style="fill: #2ca02c; stroke: #2ca02c; stroke-linejoin: miter"/>
    </g>
   </g>
   <g id="line2d_77">
    <path d="M 773.424063 315.480443 
L 823.963438 315.480443 
" clip-path="url(#pd11795b459)" style="fill: none; stroke: #ff7f0e"/>
   </g>
   <g id="line2d_78">
    <g clip-path="url(#pd11795b459)">
     <use xlink:href="#m73fc714d24" x="798.69375" y="315.480443" style="fill: #2ca02c; stroke: #2ca02c; stroke-linejoin: miter"/>
    </g>
   </g>
   <g id="patch_3">
    <path d="M 40.603125 333.764063 
L 40.603125 22.318125 
" style="fill: none; stroke: #000000; stroke-width: 0.8; stroke-linejoin: miter; stroke-linecap: square"/>
   </g>
   <g id="patch_4">
    <path d="M 849.233125 333.764063 
L 849.233125 22.318125 
" style="fill: none; stroke: #000000; stroke-width: 0.8; stroke-linejoin: miter; stroke-linecap: square"/>
   </g>
   <g id="patch_5">
    <path d="M 40.603125 333.764063 
L 849.233125 333.764063 
" style="fill: none; stroke: #000000; stroke-width: 0.8; stroke-linejoin: miter; stroke-linecap: square"/>
   </g>
   <g id="patch_6">
    <path d="M 40.603125 22.318125 
L 849.233125 22.318125 
" style="fill: none; stroke: #000000; stroke-width: 0.8; stroke-linejoin: miter; stroke-linecap: square"/>
   </g>
   <g id="text_17">
    <!-- shannon por tratamiento -->
    <g transform="translate(369.92 16.318125) scale(0.12 -0.12)">
     <use xlink:href="#DejaVuSans-73"/>
     <use xlink:href="#DejaVuSans-68" transform="translate(52.099609 0)"/>
     <use xlink:href="#DejaVuSans-61" transform="translate(115.478516 0)"/>
     <use xlink:href="#DejaVuSans-6e" transform="translate(176.757812 0)"/>
     <use xlink:href="#DejaVuSans-6e" transform="translate(240.136719 0)"/>
     <use xlink:href="#DejaVuSans-6f" transform="translate(303.515625 0)"/>
     <use xlink:href="#DejaVuSans-6e" transform="translate(364.697266 0)"/>
     <use xlink:href="#DejaVuSans-20" transform="translate(428.076172 0)"/>
     <use xlink:href="#DejaVuSans-70" transform="translate(459.863281 0)"/>
     <use xlink:href="#DejaVuSans-6f" transform="translate(523.339844 0)"/>
     <use xlink:href="#DejaVuSans-72" transform="translate(584.521484 0)"/>
     <use xlink:href="#DejaVuSans-20" transform="translate(625.634766 0)"/>
     <use xlink:href="#DejaVuSans-74" transform="translate(657.421875 0)"/>
     <use xlink:href="#DejaVuSans-72" transform="translate(696.630859 0)"/>
     <use xlink:href="#DejaVuSans-61" transform="translate(737.744141 0)"/>
     <use xlink:href="#DejaVuSans-74" transform="translate(799.023438 0)"/>
     <use xlink:href="#DejaVuSans-61" transform="translate(838.232422 0)"/>
     <use xlink:href="#DejaVuSans-6d" transform="translate(899.511719 0)"/>
     <use xlink:href="#DejaVuSans-69" transform="translate(996.923828 0)"/>
     <use xlink:href="#DejaVuSans-65" transform="translate(1024.707031 0)"/>
     <use xlink:href="#DejaVuSans-6e" transform="translate(1086.230469 0)"/>
     <use xlink:href="#DejaVuSans-74" transform="translate(1149.609375 0)"/>
     <use xlink:href="#DejaVuSans-6f" transform="translate(1188.818359 0)"/>
    </g>
   </g>
  </g>
 </g>
 <defs>
  <clipPath id="pd11795b459">
   <rect x="40.603125" y="22.318125" width="808.63" height="311.445938"/>
  </clipPath>
 </defs>
</svg>
