<?xml version="1.0" encoding="utf-8" standalone="no"?>
<!DOCTYPE svg PUBLIC "-//W3C//DTD SVG 1.1//EN"
  "http://www.w3.org/Graphics/SVG/1.1/DTD/svg11.dtd">
<svg xmlns:xlink="http://www.w3.org/1999/xlink" width="856.620625pt" height="423.079824pt" viewBox="0 0 856.620625 423.079824" xmlns="http://www.w3.org/2000/svg" version="1.1">
 <metadata>
  <rdf:RDF xmlns:dc="http://purl.org/dc/elements/1.1/" xmlns:cc="http://creativecommons.org/ns#" xmlns:rdf="http://www.w3.org/1999/02/22-rdf-syntax-ns#">
   <cc:Work>
    <dc:type rdf:resource="http://purl.org/dc/dcmitype/StillImage"/>
    <dc:date>2026-05-04T17:07:27.633375</dc:date>
    <dc:format>image/svg+xml</dc:format>
    <dc:creator>
     <cc:Agent>
      <dc:title>Matplotlib v3.10.0, https://matplotlib.org/</dc:title>
     </cc:Agent>
    </dc:creator>
   </cc:Work>
  </rdf:RDF>
 </metadata>
 <defs>
  <style type="text/css">*{stroke-linejoin: round; stroke-linecap: butt}</style>
 </defs>
 <g id="figure_1">
  <g id="patch_1">
   <path d="M 0 423.079824 
L 856.620625 423.079824 
L 856.620625 -0 
L 0 -0 
z
" style="fill: #ffffff"/>
  </g>
  <g id="axes_1">
   <g id="patch_2">
    <path d="M 59.690625 333.764063 
L 849.420625 333.764063 
L 849.420625 22.318125 
L 59.690625 22.318125 
z
" style="fill: #ffffff"/>
   </g>
   <g id="matplotlib.axis_1">
    <g id="xtick_1">
     <g id="line2d_1">
      <defs>
       <path id="m6909db0f31" d="M 0 0 
L 0 3.5 
" style="stroke: #000000; stroke-width: 0.8"/>
      </defs>
      <g>
       <use xlink:href="#m6909db0f31" x="109.04875" y="333.764063" style="stroke: #000000; stroke-width: 0.8"/>
      </g>
     </g>
     <g id="text_1">
      <!-- Integrado -->
      <g transform="translate(93.882414 380.371987) rotate(-45) scale(0.1 -0.1)">
       <defs>
        <path id="DejaVuSans-49" d="M 628 4666 
L 1259 4666 
L 1259 0 
L 628 0 
L 628 4666 
z
" transform="scale(0.015625)"/>
        <path id="DejaVuSans-6e" d="M 3513 2113 
L 3513 0 
L 2938 0 
L 2938 2094 
Q 2938 2591 2744 2837 
Q 2550 3084 2163 3084 
Q 1697 3084 1428 2787 
Q 1159 2491 1159 1978 
L 1159 0 
L 581 0 
L 581 3500 
L 1159 3500 
L 1159 2956 
Q 1366 3272 1645 3428 
Q 1925 3584 2291 3584 
Q 2894 3584 3203 3211 
Q 3513 2838 3513 2113 
z
" transform="scale(0.015625)"/>
        <path id="DejaVuSans-74" d="M 1172 4494 
L 1172 3500 
L 2356 3500 
L 2356 3053 
L 1172 3053 
L 1172 1153 
Q 1172 725 1289 603 
Q 1406 481 1766 481 
L 2356 481 
L 2356 0 
L 1766 0 
Q 1100 0 847 248 
Q 594 497 594 1153 
L 594 3053 
L 172 3053 
L 172 3500 
L 594 3500 
L 594 4494 
L 1172 4494 
z
" transform="scale(0.015625)"/>
        <path id="DejaVuSans-65" d="M 3597 1894 
L 3597 1613 
L 953 1613 
Q 991 1019 1311 708 
Q 1631 397 2203 397 
Q 2534 397 2845 478 
Q 3156 559 3463 722 
L 3463 178 
Q 3153 47 2828 -22 
Q 2503 -91 2169 -91 
Q 1331 -91 842 396 
Q 353 884 353 1716 
Q 353 2575 817 3079 
Q 1281 3584 2069 3584 
Q 2775 3584 3186 3129 
Q 3597 2675 3597 1894 
z
M 3022 2063 
Q 3016 2534 2758 2815 
Q 2500 3097 2075 3097 
Q 1594 3097 1305 2825 
Q 1016 2553 972 2059 
L 3022 2063 
z
" transform="scale(0.015625)"/>
        <path id="DejaVuSans-67" d="M 2906 1791 
Q 2906 2416 2648 2759 
Q 2391 3103 1925 3103 
Q 1463 3103 1205 2759 
Q 947 2416 947 1791 
Q 947 1169 1205 825 
Q 1463 481 1925 481 
Q 2391 481 2648 825 
Q 2906 1169 2906 1791 
z
M 3481 434 
Q 3481 -459 3084 -895 
Q 2688 -1331 1869 -1331 
Q 1566 -1331 1297 -1286 
Q 1028 -1241 775 -1147 
L 775 -588 
Q 1028 -725 1275 -790 
Q 1522 -856 1778 -856 
Q 2344 -856 2625 -561 
Q 2906 -266 2906 331 
L 2906 616 
Q 2728 306 2450 153 
Q 2172 0 1784 0 
Q 1141 0 747 490 
Q 353 981 353 1791 
Q 353 2603 747 3093 
Q 1141 3584 1784 3584 
Q 2172 3584 2450 3431 
Q 2728 3278 2906 2969 
L 2906 3500 
L 3481 3500 
L 3481 434 
z
" transform="scale(0.015625)"/>
        <path id="DejaVuSans-72" d="M 2631 2963 
Q 2534 3019 2420 3045 
Q 2306 3072 2169 3072 
Q 1681 3072 1420 2755 
Q 1159 2438 1159 1844 
L 1159 0 
L 581 0 
L 581 3500 
L 1159 3500 
L 1159 2956 
Q 1341 3275 1631 3429 
Q 1922 3584 2338 3584 
Q 2397 3584 2469 3576 
Q 2541 3569 2628 3553 
L 2631 2963 
z
" transform="scale(0.015625)"/>
        <path id="DejaVuSans-61" d="M 2194 1759 
Q 1497 1759 1228 1600 
Q 959 1441 959 1056 
Q 959 750 1161 570 
Q 1363 391 1709 391 
Q 2188 391 2477 730 
Q 2766 1069 2766 1631 
L 2766 1759 
L 2194 1759 
z
M 3341 1997 
L 3341 0 
L 2766 0 
L 2766 531 
Q 2569 213 2275 61 
Q 1981 -91 1556 -91 
Q 1019 -91 701 211 
Q 384 513 384 1019 
Q 384 1609 779 1909 
Q 1175 2209 1959 2209 
L 2766 2209 
L 2766 2266 
Q 2766 2663 2505 2880 
Q 2244 3097 1772 3097 
Q 1472 3097 1187 3025 
Q 903 2953 641 2809 
L 641 3341 
Q 956 3463 1253 3523 
Q 1550 3584 1831 3584 
Q 2591 3584 2966 3190 
Q 3341 2797 3341 1997 
z
" transform="scale(0.015625)"/>
        <path id="DejaVuSans-64" d="M 2906 2969 
L 2906 4863 
L 3481 4863 
L 3481 0 
L 2906 0 
L 2906 525 
Q 2725 213 2448 61 
Q 2172 -91 1784 -91 
Q 1150 -91 751 415 
Q 353 922 353 1747 
Q 353 2572 751 3078 
Q 1150 3584 1784 3584 
Q 2172 3584 2448 3432 
Q 2725 3281 2906 2969 
z
M 947 1747 
Q 947 1113 1208 752 
Q 1469 391 1925 391 
Q 2381 391 2643 752 
Q 2906 1113 2906 1747 
Q 2906 2381 2643 2742 
Q 2381 3103 1925 3103 
Q 1469 3103 1208 2742 
Q 947 2381 947 1747 
z
" transform="scale(0.015625)"/>
        <path id="DejaVuSans-6f" d="M 1959 3097 
Q 1497 3097 1228 2736 
Q 959 2375 959 1747 
Q 959 1119 1226 758 
Q 1494 397 1959 397 
Q 2419 397 2687 759 
Q 2956 1122 2956 1747 
Q 2956 2369 2687 2733 
Q 2419 3097 1959 3097 
z
M 1959 3584 
Q 2709 3584 3137 3096 
Q 3566 2609 3566 1747 
Q 3566 888 3137 398 
Q 2709 -91 1959 -91 
Q 1206 -91 779 398 
Q 353 888 353 1747 
Q 353 2609 779 3096 
Q 1206 3584 1959 3584 
z
" transform="scale(0.015625)"/>
       </defs>
       <use xlink:href="#DejaVuSans-49"/>
       <use xlink:href="#DejaVuSans-6e" transform="translate(29.492188 0)"/>
       <use xlink:href="#DejaVuSans-74" transform="translate(92.871094 0)"/>
       <use xlink:href="#DejaVuSans-65" transform="translate(132.080078 0)"/>
       <use xlink:href="#DejaVuSans-67" transform="translate(193.603516 0)"/>
       <use xlink:href="#DejaVuSans-72" transform="translate(257.080078 0)"/>
       <use xlink:href="#DejaVuSans-61" transform="translate(298.193359 0)"/>
       <use xlink:href="#DejaVuSans-64" transform="translate(359.472656 0)"/>
       <use xlink:href="#DejaVuSans-6f" transform="translate(422.949219 0)"/>
      </g>
     </g>
    </g>
    <g id="xtick_2">
     <g id="line2d_2">
      <g>
       <use xlink:href="#m6909db0f31" x="207.765" y="333.764063" style="stroke: #000000; stroke-width: 0.8"/>
      </g>
     </g>
     <g id="text_2">
      <!-- Agroecológico -->
      <g transform="translate(184.895067 396.344866) rotate(-45) scale(0.1 -0.1)">
       <defs>
        <path id="DejaVuSans-41" d="M 2188 4044 
L 1331 1722 
L 3047 1722 
L 2188 4044 
z
M 1831 4666 
L 2547 4666 
L 4325 0 
L 3669 0 
L 3244 1197 
L 1141 1197 
L 716 0 
L 50 0 
L 1831 4666 
z
" transform="scale(0.015625)"/>
        <path id="DejaVuSans-63" d="M 3122 3366 
L 3122 2828 
Q 2878 2963 2633 3030 
Q 2388 3097 2138 3097 
Q 1578 3097 1268 2742 
Q 959 2388 959 1747 
Q 959 1106 1268 751 
Q 1578 397 2138 397 
Q 2388 397 2633 464 
Q 2878 531 3122 666 
L 3122 134 
Q 2881 22 2623 -34 
Q 2366 -91 2075 -91 
Q 1284 -91 818 406 
Q 353 903 353 1747 
Q 353 2603 823 3093 
Q 1294 3584 2113 3584 
Q 2378 3584 2631 3529 
Q 2884 3475 3122 3366 
z
" transform="scale(0.015625)"/>
        <path id="DejaVuSans-6c" d="M 603 4863 
L 1178 4863 
L 1178 0 
L 603 0 
L 603 4863 
z
" transform="scale(0.015625)"/>
        <path id="DejaVuSans-f3" d="M 1959 3097 
Q 1497 3097 1228 2736 
Q 959 2375 959 1747 
Q 959 1119 1226 758 
Q 1494 397 1959 397 
Q 2419 397 2687 759 
Q 2956 1122 2956 1747 
Q 2956 2369 2687 2733 
Q 2419 3097 1959 3097 
z
M 1959 3584 
Q 2709 3584 3137 3096 
Q 3566 2609 3566 1747 
Q 3566 888 3137 398 
Q 2709 -91 1959 -91 
Q 1206 -91 779 398 
Q 353 888 353 1747 
Q 353 2609 779 3096 
Q 1206 3584 1959 3584 
z
M 2394 5119 
L 3016 5119 
L 1998 3944 
L 1519 3944 
L 2394 5119 
z
" transform="scale(0.015625)"/>
        <path id="DejaVuSans-69" d="M 603 3500 
L 1178 3500 
L 1178 0 
L 603 0 
L 603 3500 
z
M 603 4863 
L 1178 4863 
L 1178 4134 
L 603 4134 
L 603 4863 
z
" transform="scale(0.015625)"/>
       </defs>
       <use xlink:href="#DejaVuSans-41"/>
       <use xlink:href="#DejaVuSans-67" transform="translate(68.408203 0)"/>
       <use xlink:href="#DejaVuSans-72" transform="translate(131.884766 0)"/>
       <use xlink:href="#DejaVuSans-6f" transform="translate(170.748047 0)"/>
       <use xlink:href="#DejaVuSans-65" transform="translate(231.929688 0)"/>
       <use xlink:href="#DejaVuSans-63" transform="translate(293.453125 0)"/>
       <use xlink:href="#DejaVuSans-6f" transform="translate(348.433594 0)"/>
       <use xlink:href="#DejaVuSans-6c" transform="translate(409.615234 0)"/>
       <use xlink:href="#DejaVuSans-f3" transform="translate(437.398438 0)"/>
       <use xlink:href="#DejaVuSans-67" transform="translate(498.580078 0)"/>
       <use xlink:href="#DejaVuSans-69" transform="translate(562.056641 0)"/>
       <use xlink:href="#DejaVuSans-63" transform="translate(589.839844 0)"/>
       <use xlink:href="#DejaVuSans-6f" transform="translate(644.820312 0)"/>
      </g>
     </g>
    </g>
    <g id="xtick_3">
     <g id="line2d_3">
      <g>
       <use xlink:href="#m6909db0f31" x="306.48125" y="333.764063" style="stroke: #000000; stroke-width: 0.8"/>
      </g>
     </g>
     <g id="text_3">
      <!-- Convencional  -->
      <g transform="translate(283.448351 396.105113) rotate(-45) scale(0.1 -0.1)">
       <defs>
        <path id="DejaVuSans-43" d="M 4122 4306 
L 4122 3641 
Q 3803 3938 3442 4084 
Q 3081 4231 2675 4231 
Q 1875 4231 1450 3742 
Q 1025 3253 1025 2328 
Q 1025 1406 1450 917 
Q 1875 428 2675 428 
Q 3081 428 3442 575 
Q 3803 722 4122 1019 
L 4122 359 
Q 3791 134 3420 21 
Q 3050 -91 2638 -91 
Q 1578 -91 968 557 
Q 359 1206 359 2328 
Q 359 3453 968 4101 
Q 1578 4750 2638 4750 
Q 3056 4750 3426 4639 
Q 3797 4528 4122 4306 
z
" transform="scale(0.015625)"/>
        <path id="DejaVuSans-76" d="M 191 3500 
L 800 3500 
L 1894 563 
L 2988 3500 
L 3597 3500 
L 2284 0 
L 1503 0 
L 191 3500 
z
" transform="scale(0.015625)"/>
        <path id="DejaVuSans-20" transform="scale(0.015625)"/>
       </defs>
       <use xlink:href="#DejaVuSans-43"/>
       <use xlink:href="#DejaVuSans-6f" transform="translate(69.824219 0)"/>
       <use xlink:href="#DejaVuSans-6e" transform="translate(131.005859 0)"/>
       <use xlink:href="#DejaVuSans-76" transform="translate(194.384766 0)"/>
       <use xlink:href="#DejaVuSans-65" transform="translate(253.564453 0)"/>
       <use xlink:href="#DejaVuSans-6e" transform="translate(315.087891 0)"/>
       <use xlink:href="#DejaVuSans-63" transform="translate(378.466797 0)"/>
       <use xlink:href="#DejaVuSans-69" transform="translate(433.447266 0)"/>
       <use xlink:href="#DejaVuSans-6f" transform="translate(461.230469 0)"/>
       <use xlink:href="#DejaVuSans-6e" transform="translate(522.412109 0)"/>
       <use xlink:href="#DejaVuSans-61" transform="translate(585.791016 0)"/>
       <use xlink:href="#DejaVuSans-6c" transform="translate(647.070312 0)"/>
       <use xlink:href="#DejaVuSans-20" transform="translate(674.853516 0)"/>
      </g>
     </g>
    </g>
    <g id="xtick_4">
     <g id="line2d_4">
      <g>
       <use xlink:href="#m6909db0f31" x="405.1975" y="333.764063" style="stroke: #000000; stroke-width: 0.8"/>
      </g>
     </g>
     <g id="text_4">
      <!-- otherComposta -->
      <g transform="translate(379.851589 400.731138) rotate(-45) scale(0.1 -0.1)">
       <defs>
        <path id="DejaVuSans-68" d="M 3513 2113 
L 3513 0 
L 2938 0 
L 2938 2094 
Q 2938 2591 2744 2837 
Q 2550 3084 2163 3084 
Q 1697 3084 1428 2787 
Q 1159 2491 1159 1978 
L 1159 0 
L 581 0 
L 581 4863 
L 1159 4863 
L 1159 2956 
Q 1366 3272 1645 3428 
Q 1925 3584 2291 3584 
Q 2894 3584 3203 3211 
Q 3513 2838 3513 2113 
z
" transform="scale(0.015625)"/>
        <path id="DejaVuSans-6d" d="M 3328 2828 
Q 3544 3216 3844 3400 
Q 4144 3584 4550 3584 
Q 5097 3584 5394 3201 
Q 5691 2819 5691 2113 
L 5691 0 
L 5113 0 
L 5113 2094 
Q 5113 2597 4934 2840 
Q 4756 3084 4391 3084 
Q 3944 3084 3684 2787 
Q 3425 2491 3425 1978 
L 3425 0 
L 2847 0 
L 2847 2094 
Q 2847 2600 2669 2842 
Q 2491 3084 2119 3084 
Q 1678 3084 1418 2786 
Q 1159 2488 1159 1978 
L 1159 0 
L 581 0 
L 581 3500 
L 1159 3500 
L 1159 2956 
Q 1356 3278 1631 3431 
Q 1906 3584 2284 3584 
Q 2666 3584 2933 3390 
Q 3200 3197 3328 2828 
z
" transform="scale(0.015625)"/>
        <path id="DejaVuSans-70" d="M 1159 525 
L 1159 -1331 
L 581 -1331 
L 581 3500 
L 1159 3500 
L 1159 2969 
Q 1341 3281 1617 3432 
Q 1894 3584 2278 3584 
Q 2916 3584 3314 3078 
Q 3713 2572 3713 1747 
Q 3713 922 3314 415 
Q 2916 -91 2278 -91 
Q 1894 -91 1617 61 
Q 1341 213 1159 525 
z
M 3116 1747 
Q 3116 2381 2855 2742 
Q 2594 3103 2138 3103 
Q 1681 3103 1420 2742 
Q 1159 2381 1159 1747 
Q 1159 1113 1420 752 
Q 1681 391 2138 391 
Q 2594 391 2855 752 
Q 3116 1113 3116 1747 
z
" transform="scale(0.015625)"/>
        <path id="DejaVuSans-73" d="M 2834 3397 
L 2834 2853 
Q 2591 2978 2328 3040 
Q 2066 3103 1784 3103 
Q 1356 3103 1142 2972 
Q 928 2841 928 2578 
Q 928 2378 1081 2264 
Q 1234 2150 1697 2047 
L 1894 2003 
Q 2506 1872 2764 1633 
Q 3022 1394 3022 966 
Q 3022 478 2636 193 
Q 2250 -91 1575 -91 
Q 1294 -91 989 -36 
Q 684 19 347 128 
L 347 722 
Q 666 556 975 473 
Q 1284 391 1588 391 
Q 1994 391 2212 530 
Q 2431 669 2431 922 
Q 2431 1156 2273 1281 
Q 2116 1406 1581 1522 
L 1381 1569 
Q 847 1681 609 1914 
Q 372 2147 372 2553 
Q 372 3047 722 3315 
Q 1072 3584 1716 3584 
Q 2034 3584 2315 3537 
Q 2597 3491 2834 3397 
z
" transform="scale(0.015625)"/>
       </defs>
       <use xlink:href="#DejaVuSans-6f"/>
       <use xlink:href="#DejaVuSans-74" transform="translate(61.181641 0)"/>
       <use xlink:href="#DejaVuSans-68" transform="translate(100.390625 0)"/>
       <use xlink:href="#DejaVuSans-65" transform="translate(163.769531 0)"/>
       <use xlink:href="#DejaVuSans-72" transform="translate(225.292969 0)"/>
       <use xlink:href="#DejaVuSans-43" transform="translate(266.40625 0)"/>
       <use xlink:href="#DejaVuSans-6f" transform="translate(336.230469 0)"/>
       <use xlink:href="#DejaVuSans-6d" transform="translate(397.412109 0)"/>
       <use xlink:href="#DejaVuSans-70" transform="translate(494.824219 0)"/>
       <use xlink:href="#DejaVuSans-6f" transform="translate(558.300781 0)"/>
       <use xlink:href="#DejaVuSans-73" transform="translate(619.482422 0)"/>
       <use xlink:href="#DejaVuSans-74" transform="translate(671.582031 0)"/>
       <use xlink:href="#DejaVuSans-61" transform="translate(710.791016 0)"/>
      </g>
     </g>
    </g>
    <g id="xtick_5">
     <g id="line2d_5">
      <g>
       <use xlink:href="#m6909db0f31" x="503.91375" y="333.764063" style="stroke: #000000; stroke-width: 0.8"/>
      </g>
     </g>
     <g id="text_5">
      <!-- otherQuimico -->
      <g transform="translate(481.906709 394.053398) rotate(-45) scale(0.1 -0.1)">
       <defs>
        <path id="DejaVuSans-51" d="M 2522 4238 
Q 1834 4238 1429 3725 
Q 1025 3213 1025 2328 
Q 1025 1447 1429 934 
Q 1834 422 2522 422 
Q 3209 422 3611 934 
Q 4013 1447 4013 2328 
Q 4013 3213 3611 3725 
Q 3209 4238 2522 4238 
z
M 3406 84 
L 4238 -825 
L 3475 -825 
L 2784 -78 
Q 2681 -84 2626 -87 
Q 2572 -91 2522 -91 
Q 1538 -91 948 567 
Q 359 1225 359 2328 
Q 359 3434 948 4092 
Q 1538 4750 2522 4750 
Q 3503 4750 4090 4092 
Q 4678 3434 4678 2328 
Q 4678 1516 4351 937 
Q 4025 359 3406 84 
z
" transform="scale(0.015625)"/>
        <path id="DejaVuSans-75" d="M 544 1381 
L 544 3500 
L 1119 3500 
L 1119 1403 
Q 1119 906 1312 657 
Q 1506 409 1894 409 
Q 2359 409 2629 706 
Q 2900 1003 2900 1516 
L 2900 3500 
L 3475 3500 
L 3475 0 
L 2900 0 
L 2900 538 
Q 2691 219 2414 64 
Q 2138 -91 1772 -91 
Q 1169 -91 856 284 
Q 544 659 544 1381 
z
M 1991 3584 
L 1991 3584 
z
" transform="scale(0.015625)"/>
       </defs>
       <use xlink:href="#DejaVuSans-6f"/>
       <use xlink:href="#DejaVuSans-74" transform="translate(61.181641 0)"/>
       <use xlink:href="#DejaVuSans-68" transform="translate(100.390625 0)"/>
       <use xlink:href="#DejaVuSans-65" transform="translate(163.769531 0)"/>
       <use xlink:href="#DejaVuSans-72" transform="translate(225.292969 0)"/>
       <use xlink:href="#DejaVuSans-51" transform="translate(266.40625 0)"/>
       <use xlink:href="#DejaVuSans-75" transform="translate(345.117188 0)"/>
       <use xlink:href="#DejaVuSans-69" transform="translate(408.496094 0)"/>
       <use xlink:href="#DejaVuSans-6d" transform="translate(436.279297 0)"/>
       <use xlink:href="#DejaVuSans-69" transform="translate(533.691406 0)"/>
       <use xlink:href="#DejaVuSans-63" transform="translate(561.474609 0)"/>
       <use xlink:href="#DejaVuSans-6f" transform="translate(616.455078 0)"/>
      </g>
     </g>
    </g>
    <g id="xtick_6">
     <g id="line2d_6">
      <g>
       <use xlink:href="#m6909db0f31" x="602.63" y="333.764063" style="stroke: #000000; stroke-width: 0.8"/>
      </g>
     </g>
     <g id="text_6">
      <!-- otherBokashi -->
      <g transform="translate(581.356582 392.586152) rotate(-45) scale(0.1 -0.1)">
       <defs>
        <path id="DejaVuSans-42" d="M 1259 2228 
L 1259 519 
L 2272 519 
Q 2781 519 3026 730 
Q 3272 941 3272 1375 
Q 3272 1813 3026 2020 
Q 2781 2228 2272 2228 
L 1259 2228 
z
M 1259 4147 
L 1259 2741 
L 2194 2741 
Q 2656 2741 2882 2914 
Q 3109 3088 3109 3444 
Q 3109 3797 2882 3972 
Q 2656 4147 2194 4147 
L 1259 4147 
z
M 628 4666 
L 2241 4666 
Q 2963 4666 3353 4366 
Q 3744 4066 3744 3513 
Q 3744 3084 3544 2831 
Q 3344 2578 2956 2516 
Q 3422 2416 3680 2098 
Q 3938 1781 3938 1306 
Q 3938 681 3513 340 
Q 3088 0 2303 0 
L 628 0 
L 628 4666 
z
" transform="scale(0.015625)"/>
        <path id="DejaVuSans-6b" d="M 581 4863 
L 1159 4863 
L 1159 1991 
L 2875 3500 
L 3609 3500 
L 1753 1863 
L 3688 0 
L 2938 0 
L 1159 1709 
L 1159 0 
L 581 0 
L 581 4863 
z
" transform="scale(0.015625)"/>
       </defs>
       <use xlink:href="#DejaVuSans-6f"/>
       <use xlink:href="#DejaVuSans-74" transform="translate(61.181641 0)"/>
       <use xlink:href="#DejaVuSans-68" transform="translate(100.390625 0)"/>
       <use xlink:href="#DejaVuSans-65" transform="translate(163.769531 0)"/>
       <use xlink:href="#DejaVuSans-72" transform="translate(225.292969 0)"/>
       <use xlink:href="#DejaVuSans-42" transform="translate(266.40625 0)"/>
       <use xlink:href="#DejaVuSans-6f" transform="translate(335.009766 0)"/>
       <use xlink:href="#DejaVuSans-6b" transform="translate(396.191406 0)"/>
       <use xlink:href="#DejaVuSans-61" transform="translate(452.351562 0)"/>
       <use xlink:href="#DejaVuSans-73" transform="translate(513.630859 0)"/>
       <use xlink:href="#DejaVuSans-68" transform="translate(565.730469 0)"/>
       <use xlink:href="#DejaVuSans-69" transform="translate(629.109375 0)"/>
      </g>
     </g>
    </g>
    <g id="xtick_7">
     <g id="line2d_7">
      <g>
       <use xlink:href="#m6909db0f31" x="701.34625" y="333.764063" style="stroke: #000000; stroke-width: 0.8"/>
      </g>
     </g>
     <g id="text_7">
      <!-- otherTestigo -->
      <g transform="translate(681.52682 389.678175) rotate(-45) scale(0.1 -0.1)">
       <defs>
        <path id="DejaVuSans-54" d="M -19 4666 
L 3928 4666 
L 3928 4134 
L 2272 4134 
L 2272 0 
L 1638 0 
L 1638 4134 
L -19 4134 
L -19 4666 
z
" transform="scale(0.015625)"/>
       </defs>
       <use xlink:href="#DejaVuSans-6f"/>
       <use xlink:href="#DejaVuSans-74" transform="translate(61.181641 0)"/>
       <use xlink:href="#DejaVuSans-68" transform="translate(100.390625 0)"/>
       <use xlink:href="#DejaVuSans-65" transform="translate(163.769531 0)"/>
       <use xlink:href="#DejaVuSans-72" transform="translate(225.292969 0)"/>
       <use xlink:href="#DejaVuSans-54" transform="translate(266.40625 0)"/>
       <use xlink:href="#DejaVuSans-65" transform="translate(310.490234 0)"/>
       <use xlink:href="#DejaVuSans-73" transform="translate(372.013672 0)"/>
       <use xlink:href="#DejaVuSans-74" transform="translate(424.113281 0)"/>
       <use xlink:href="#DejaVuSans-69" transform="translate(463.322266 0)"/>
       <use xlink:href="#DejaVuSans-67" transform="translate(491.105469 0)"/>
       <use xlink:href="#DejaVuSans-6f" transform="translate(554.582031 0)"/>
      </g>
     </g>
    </g>
    <g id="xtick_8">
     <g id="line2d_8">
      <g>
       <use xlink:href="#m6909db0f31" x="800.0625" y="333.764063" style="stroke: #000000; stroke-width: 0.8"/>
      </g>
     </g>
     <g id="text_8">
      <!-- other -->
      <g transform="translate(792.594789 364.974737) rotate(-45) scale(0.1 -0.1)">
       <use xlink:href="#DejaVuSans-6f"/>
       <use xlink:href="#DejaVuSans-74" transform="translate(61.181641 0)"/>
       <use xlink:href="#DejaVuSans-68" transform="translate(100.390625 0)"/>
       <use xlink:href="#DejaVuSans-65" transform="translate(163.769531 0)"/>
       <use xlink:href="#DejaVuSans-72" transform="translate(225.292969 0)"/>
      </g>
     </g>
    </g>
    <g id="text_9">
     <!-- tratamiento -->
     <g transform="translate(424.9275 413.800136) scale(0.1 -0.1)">
      <use xlink:href="#DejaVuSans-74"/>
      <use xlink:href="#DejaVuSans-72" transform="translate(39.208984 0)"/>
      <use xlink:href="#DejaVuSans-61" transform="translate(80.322266 0)"/>
      <use xlink:href="#DejaVuSans-74" transform="translate(141.601562 0)"/>
      <use xlink:href="#DejaVuSans-61" transform="translate(180.810547 0)"/>
      <use xlink:href="#DejaVuSans-6d" transform="translate(242.089844 0)"/>
      <use xlink:href="#DejaVuSans-69" transform="translate(339.501953 0)"/>
      <use xlink:href="#DejaVuSans-65" transform="translate(367.285156 0)"/>
      <use xlink:href="#DejaVuSans-6e" transform="translate(428.808594 0)"/>
      <use xlink:href="#DejaVuSans-74" transform="translate(492.1875 0)"/>
      <use xlink:href="#DejaVuSans-6f" transform="translate(531.396484 0)"/>
     </g>
    </g>
   </g>
   <g id="matplotlib.axis_2">
    <g id="ytick_1">
     <g id="line2d_9">
      <defs>
       <path id="md5074b6f84" d="M 0 0 
L -3.5 0 
" style="stroke: #000000; stroke-width: 0.8"/>
      </defs>
      <g>
       <use xlink:href="#md5074b6f84" x="59.690625" y="275.345344" style="stroke: #000000; stroke-width: 0.8"/>
      </g>
     </g>
     <g id="text_10">
      <!-- 20000 -->
      <g transform="translate(20.878125 279.144562) scale(0.1 -0.1)">
       <defs>
        <path id="DejaVuSans-32" d="M 1228 531 
L 3431 531 
L 3431 0 
L 469 0 
L 469 531 
Q 828 903 1448 1529 
Q 2069 2156 2228 2338 
Q 2531 2678 2651 2914 
Q 2772 3150 2772 3378 
Q 2772 3750 2511 3984 
Q 2250 4219 1831 4219 
Q 1534 4219 1204 4116 
Q 875 4013 500 3803 
L 500 4441 
Q 881 4594 1212 4672 
Q 1544 4750 1819 4750 
Q 2544 4750 2975 4387 
Q 3406 4025 3406 3419 
Q 3406 3131 3298 2873 
Q 3191 2616 2906 2266 
Q 2828 2175 2409 1742 
Q 1991 1309 1228 531 
z
" transform="scale(0.015625)"/>
        <path id="DejaVuSans-30" d="M 2034 4250 
Q 1547 4250 1301 3770 
Q 1056 3291 1056 2328 
Q 1056 1369 1301 889 
Q 1547 409 2034 409 
Q 2525 409 2770 889 
Q 3016 1369 3016 2328 
Q 3016 3291 2770 3770 
Q 2525 4250 2034 4250 
z
M 2034 4750 
Q 2819 4750 3233 4129 
Q 3647 3509 3647 2328 
Q 3647 1150 3233 529 
Q 2819 -91 2034 -91 
Q 1250 -91 836 529 
Q 422 1150 422 2328 
Q 422 3509 836 4129 
Q 1250 4750 2034 4750 
z
" transform="scale(0.015625)"/>
       </defs>
       <use xlink:href="#DejaVuSans-32"/>
       <use xlink:href="#DejaVuSans-30" transform="translate(63.623047 0)"/>
       <use xlink:href="#DejaVuSans-30" transform="translate(127.246094 0)"/>
       <use xlink:href="#DejaVuSans-30" transform="translate(190.869141 0)"/>
       <use xlink:href="#DejaVuSans-30" transform="translate(254.492188 0)"/>
      </g>
     </g>
    </g>
    <g id="ytick_2">
     <g id="line2d_10">
      <g>
       <use xlink:href="#md5074b6f84" x="59.690625" y="211.327284" style="stroke: #000000; stroke-width: 0.8"/>
      </g>
     </g>
     <g id="text_11">
      <!-- 40000 -->
      <g transform="translate(20.878125 215.126503) scale(0.1 -0.1)">
       <defs>
        <path id="DejaVuSans-34" d="M 2419 4116 
L 825 1625 
L 2419 1625 
L 2419 4116 
z
M 2253 4666 
L 3047 4666 
L 3047 1625 
L 3713 1625 
L 3713 1100 
L 3047 1100 
L 3047 0 
L 2419 0 
L 2419 1100 
L 313 1100 
L 313 1709 
L 2253 4666 
z
" transform="scale(0.015625)"/>
       </defs>
       <use xlink:href="#DejaVuSans-34"/>
       <use xlink:href="#DejaVuSans-30" transform="translate(63.623047 0)"/>
       <use xlink:href="#DejaVuSans-30" transform="translate(127.246094 0)"/>
       <use xlink:href="#DejaVuSans-30" transform="translate(190.869141 0)"/>
       <use xlink:href="#DejaVuSans-30" transform="translate(254.492188 0)"/>
      </g>
     </g>
    </g>
    <g id="ytick_3">
     <g id="line2d_11">
      <g>
       <use xlink:href="#md5074b6f84" x="59.690625" y="147.309225" style="stroke: #000000; stroke-width: 0.8"/>
      </g>
     </g>
     <g id="text_12">
      <!-- 60000 -->
      <g transform="translate(20.878125 151.108444) scale(0.1 -0.1)">
       <defs>
        <path id="DejaVuSans-36" d="M 2113 2584 
Q 1688 2584 1439 2293 
Q 1191 2003 1191 1497 
Q 1191 994 1439 701 
Q 1688 409 2113 409 
Q 2538 409 2786 701 
Q 3034 994 3034 1497 
Q 3034 2003 2786 2293 
Q 2538 2584 2113 2584 
z
M 3366 4563 
L 3366 3988 
Q 3128 4100 2886 4159 
Q 2644 4219 2406 4219 
Q 1781 4219 1451 3797 
Q 1122 3375 1075 2522 
Q 1259 2794 1537 2939 
Q 1816 3084 2150 3084 
Q 2853 3084 3261 2657 
Q 3669 2231 3669 1497 
Q 3669 778 3244 343 
Q 2819 -91 2113 -91 
Q 1303 -91 875 529 
Q 447 1150 447 2328 
Q 447 3434 972 4092 
Q 1497 4750 2381 4750 
Q 2619 4750 2861 4703 
Q 3103 4656 3366 4563 
z
" transform="scale(0.015625)"/>
       </defs>
       <use xlink:href="#DejaVuSans-36"/>
       <use xlink:href="#DejaVuSans-30" transform="translate(63.623047 0)"/>
       <use xlink:href="#DejaVuSans-30" transform="translate(127.246094 0)"/>
       <use xlink:href="#DejaVuSans-30" transform="translate(190.869141 0)"/>
       <use xlink:href="#DejaVuSans-30" transform="translate(254.492188 0)"/>
      </g>
     </g>
    </g>
    <g id="ytick_4">
     <g id="line2d_12">
      <g>
       <use xlink:href="#md5074b6f84" x="59.690625" y="83.291165" style="stroke: #000000; stroke-width: 0.8"/>
      </g>
     </g>
     <g id="text_13">
      <!-- 80000 -->
      <g transform="translate(20.878125 87.090384) scale(0.1 -0.1)">
       <defs>
        <path id="DejaVuSans-38" d="M 2034 2216 
Q 1584 2216 1326 1975 
Q 1069 1734 1069 1313 
Q 1069 891 1326 650 
Q 1584 409 2034 409 
Q 2484 409 2743 651 
Q 3003 894 3003 1313 
Q 3003 1734 2745 1975 
Q 2488 2216 2034 2216 
z
M 1403 2484 
Q 997 2584 770 2862 
Q 544 3141 544 3541 
Q 544 4100 942 4425 
Q 1341 4750 2034 4750 
Q 2731 4750 3128 4425 
Q 3525 4100 3525 3541 
Q 3525 3141 3298 2862 
Q 3072 2584 2669 2484 
Q 3125 2378 3379 2068 
Q 3634 1759 3634 1313 
Q 3634 634 3220 271 
Q 2806 -91 2034 -91 
Q 1263 -91 848 271 
Q 434 634 434 1313 
Q 434 1759 690 2068 
Q 947 2378 1403 2484 
z
M 1172 3481 
Q 1172 3119 1398 2916 
Q 1625 2713 2034 2713 
Q 2441 2713 2670 2916 
Q 2900 3119 2900 3481 
Q 2900 3844 2670 4047 
Q 2441 4250 2034 4250 
Q 1625 4250 1398 4047 
Q 1172 3844 1172 3481 
z
" transform="scale(0.015625)"/>
       </defs>
       <use xlink:href="#DejaVuSans-38"/>
       <use xlink:href="#DejaVuSans-30" transform="translate(63.623047 0)"/>
       <use xlink:href="#DejaVuSans-30" transform="translate(127.246094 0)"/>
       <use xlink:href="#DejaVuSans-30" transform="translate(190.869141 0)"/>
       <use xlink:href="#DejaVuSans-30" transform="translate(254.492188 0)"/>
      </g>
     </g>
    </g>
    <g id="text_14">
     <!-- observed -->
     <g transform="translate(14.798438 201.221563) rotate(-90) scale(0.1 -0.1)">
      <defs>
       <path id="DejaVuSans-62" d="M 3116 1747 
Q 3116 2381 2855 2742 
Q 2594 3103 2138 3103 
Q 1681 3103 1420 2742 
Q 1159 2381 1159 1747 
Q 1159 1113 1420 752 
Q 1681 391 2138 391 
Q 2594 391 2855 752 
Q 3116 1113 3116 1747 
z
M 1159 2969 
Q 1341 3281 1617 3432 
Q 1894 3584 2278 3584 
Q 2916 3584 3314 3078 
Q 3713 2572 3713 1747 
Q 3713 922 3314 415 
Q 2916 -91 2278 -91 
Q 1894 -91 1617 61 
Q 1341 213 1159 525 
L 1159 0 
L 581 0 
L 581 4863 
L 1159 4863 
L 1159 2969 
z
" transform="scale(0.015625)"/>
      </defs>
      <use xlink:href="#DejaVuSans-6f"/>
      <use xlink:href="#DejaVuSans-62" transform="translate(61.181641 0)"/>
      <use xlink:href="#DejaVuSans-73" transform="translate(124.658203 0)"/>
      <use xlink:href="#DejaVuSans-65" transform="translate(176.757812 0)"/>
      <use xlink:href="#DejaVuSans-72" transform="translate(238.28125 0)"/>
      <use xlink:href="#DejaVuSans-76" transform="translate(279.394531 0)"/>
      <use xlink:href="#DejaVuSans-65" transform="translate(338.574219 0)"/>
      <use xlink:href="#DejaVuSans-64" transform="translate(400.097656 0)"/>
     </g>
    </g>
   </g>
   <g id="line2d_13">
    <path d="M 84.369688 279.957045 
L 133.727813 279.957045 
L 133.727813 203.485072 
L 84.369688 203.485072 
L 84.369688 279.957045 
" clip-path="url(#p2d6b46d240)" style="fill: none; stroke: #000000; stroke-linecap: square"/>
   </g>
   <g id="line2d_14">
    <path d="M 109.04875 279.957045 
L 109.04875 319.60743 
" clip-path="url(#p2d6b46d240)" style="fill: none; stroke: #000000; stroke-linecap: square"/>
   </g>
   <g id="line2d_15">
    <path d="M 109.04875 203.485072 
L 109.04875 109.196073 
" clip-path="url(#p2d6b46d240)" style="fill: none; stroke: #000000; stroke-linecap: square"/>
   </g>
   <g id="line2d_16">
    <path d="M 96.709219 319.60743 
L 121.388281 319.60743 
" clip-path="url(#p2d6b46d240)" style="fill: none; stroke: #000000; stroke-linecap: square"/>
   </g>
   <g id="line2d_17">
    <path d="M 96.709219 109.196073 
L 121.388281 109.196073 
" clip-path="url(#p2d6b46d240)" style="fill: none; stroke: #000000; stroke-linecap: square"/>
   </g>
   <g id="line2d_18"/>
   <g id="line2d_19">
    <path d="M 183.085938 253.655225 
L 232.444063 253.655225 
L 232.444063 82.907857 
L 183.085938 82.907857 
L 183.085938 253.655225 
" clip-path="url(#p2d6b46d240)" style="fill: none; stroke: #000000; stroke-linecap: square"/>
   </g>
   <g id="line2d_20">
    <path d="M 207.765 253.655225 
L 207.765 308.074576 
" clip-path="url(#p2d6b46d240)" style="fill: none; stroke: #000000; stroke-linecap: square"/>
   </g>
   <g id="line2d_21">
    <path d="M 207.765 82.907857 
L 207.765 36.474759 
" clip-path="url(#p2d6b46d240)" style="fill: none; stroke: #000000; stroke-linecap: square"/>
   </g>
   <g id="line2d_22">
    <path d="M 195.425469 308.074576 
L 220.104531 308.074576 
" clip-path="url(#p2d6b46d240)" style="fill: none; stroke: #000000; stroke-linecap: square"/>
   </g>
   <g id="line2d_23">
    <path d="M 195.425469 36.474759 
L 220.104531 36.474759 
" clip-path="url(#p2d6b46d240)" style="fill: none; stroke: #000000; stroke-linecap: square"/>
   </g>
   <g id="line2d_24"/>
   <g id="line2d_25">
    <path d="M 281.802188 229.750881 
L 331.160313 229.750881 
L 331.160313 170.490964 
L 281.802188 170.490964 
L 281.802188 229.750881 
" clip-path="url(#p2d6b46d240)" style="fill: none; stroke: #000000; stroke-linecap: square"/>
   </g>
   <g id="line2d_26">
    <path d="M 306.48125 229.750881 
L 306.48125 267.832824 
" clip-path="url(#p2d6b46d240)" style="fill: none; stroke: #000000; stroke-linecap: square"/>
   </g>
   <g id="line2d_27">
    <path d="M 306.48125 170.490964 
L 306.48125 168.025469 
" clip-path="url(#p2d6b46d240)" style="fill: none; stroke: #000000; stroke-linecap: square"/>
   </g>
   <g id="line2d_28">
    <path d="M 294.141719 267.832824 
L 318.820781 267.832824 
" clip-path="url(#p2d6b46d240)" style="fill: none; stroke: #000000; stroke-linecap: square"/>
   </g>
   <g id="line2d_29">
    <path d="M 294.141719 168.025469 
L 318.820781 168.025469 
" clip-path="url(#p2d6b46d240)" style="fill: none; stroke: #000000; stroke-linecap: square"/>
   </g>
   <g id="line2d_30"/>
   <g id="line2d_31">
    <path d="M 380.518438 226.720427 
L 429.876563 226.720427 
L 429.876563 213.670345 
L 380.518438 213.670345 
L 380.518438 226.720427 
" clip-path="url(#p2d6b46d240)" style="fill: none; stroke: #000000; stroke-linecap: square"/>
   </g>
   <g id="line2d_32">
    <path d="M 405.1975 226.720427 
L 405.1975 237.196982 
" clip-path="url(#p2d6b46d240)" style="fill: none; stroke: #000000; stroke-linecap: square"/>
   </g>
   <g id="line2d_33">
    <path d="M 405.1975 213.670345 
L 405.1975 211.096819 
" clip-path="url(#p2d6b46d240)" style="fill: none; stroke: #000000; stroke-linecap: square"/>
   </g>
   <g id="line2d_34">
    <path d="M 392.857969 237.196982 
L 417.537031 237.196982 
" clip-path="url(#p2d6b46d240)" style="fill: none; stroke: #000000; stroke-linecap: square"/>
   </g>
   <g id="line2d_35">
    <path d="M 392.857969 211.096819 
L 417.537031 211.096819 
" clip-path="url(#p2d6b46d240)" style="fill: none; stroke: #000000; stroke-linecap: square"/>
   </g>
   <g id="line2d_36"/>
   <g id="line2d_37">
    <path d="M 479.234688 279.261648 
L 528.592813 279.261648 
L 528.592813 258.612623 
L 479.234688 258.612623 
L 479.234688 279.261648 
" clip-path="url(#p2d6b46d240)" style="fill: none; stroke: #000000; stroke-linecap: square"/>
   </g>
   <g id="line2d_38">
    <path d="M 503.91375 279.261648 
L 503.91375 284.720788 
" clip-path="url(#p2d6b46d240)" style="fill: none; stroke: #000000; stroke-linecap: square"/>
   </g>
   <g id="line2d_39">
    <path d="M 503.91375 258.612623 
L 503.91375 243.422738 
" clip-path="url(#p2d6b46d240)" style="fill: none; stroke: #000000; stroke-linecap: square"/>
   </g>
   <g id="line2d_40">
    <path d="M 491.574219 284.720788 
L 516.253281 284.720788 
" clip-path="url(#p2d6b46d240)" style="fill: none; stroke: #000000; stroke-linecap: square"/>
   </g>
   <g id="line2d_41">
    <path d="M 491.574219 243.422738 
L 516.253281 243.422738 
" clip-path="url(#p2d6b46d240)" style="fill: none; stroke: #000000; stroke-linecap: square"/>
   </g>
   <g id="line2d_42"/>
   <g id="line2d_43">
    <path d="M 577.950938 231.653018 
L 627.309063 231.653018 
L 627.309063 219.85609 
L 577.950938 219.85609 
L 577.950938 231.653018 
" clip-path="url(#p2d6b46d240)" style="fill: none; stroke: #000000; stroke-linecap: square"/>
   </g>
   <g id="line2d_44">
    <path d="M 602.63 231.653018 
L 602.63 243.201876 
" clip-path="url(#p2d6b46d240)" style="fill: none; stroke: #000000; stroke-linecap: square"/>
   </g>
   <g id="line2d_45">
    <path d="M 602.63 219.85609 
L 602.63 219.60802 
" clip-path="url(#p2d6b46d240)" style="fill: none; stroke: #000000; stroke-linecap: square"/>
   </g>
   <g id="line2d_46">
    <path d="M 590.290469 243.201876 
L 614.969531 243.201876 
" clip-path="url(#p2d6b46d240)" style="fill: none; stroke: #000000; stroke-linecap: square"/>
   </g>
   <g id="line2d_47">
    <path d="M 590.290469 219.60802 
L 614.969531 219.60802 
" clip-path="url(#p2d6b46d240)" style="fill: none; stroke: #000000; stroke-linecap: square"/>
   </g>
   <g id="line2d_48"/>
   <g id="line2d_49">
    <path d="M 676.667188 294.838843 
L 726.025313 294.838843 
L 726.025313 294.838843 
L 676.667188 294.838843 
L 676.667188 294.838843 
" clip-path="url(#p2d6b46d240)" style="fill: none; stroke: #000000; stroke-linecap: square"/>
   </g>
   <g id="line2d_50">
    <path d="M 701.34625 294.838843 
L 701.34625 294.838843 
" clip-path="url(#p2d6b46d240)" style="fill: none; stroke: #000000; stroke-linecap: square"/>
   </g>
   <g id="line2d_51">
    <path d="M 701.34625 294.838843 
L 701.34625 294.838843 
" clip-path="url(#p2d6b46d240)" style="fill: none; stroke: #000000; stroke-linecap: square"/>
   </g>
   <g id="line2d_52">
    <path d="M 689.006719 294.838843 
L 713.685781 294.838843 
" clip-path="url(#p2d6b46d240)" style="fill: none; stroke: #000000; stroke-linecap: square"/>
   </g>
   <g id="line2d_53">
    <path d="M 689.006719 294.838843 
L 713.685781 294.838843 
" clip-path="url(#p2d6b46d240)" style="fill: none; stroke: #000000; stroke-linecap: square"/>
   </g>
   <g id="line2d_54"/>
   <g id="line2d_55">
    <path d="M 775.383438 295.805515 
L 824.741563 295.805515 
L 824.741563 253.899294 
L 775.383438 253.899294 
L 775.383438 295.805515 
" clip-path="url(#p2d6b46d240)" style="fill: none; stroke: #000000; stroke-linecap: square"/>
   </g>
   <g id="line2d_56">
    <path d="M 800.0625 295.805515 
L 800.0625 316.758626 
" clip-path="url(#p2d6b46d240)" style="fill: none; stroke: #000000; stroke-linecap: square"/>
   </g>
   <g id="line2d_57">
    <path d="M 800.0625 253.899294 
L 800.0625 232.946183 
" clip-path="url(#p2d6b46d240)" style="fill: none; stroke: #000000; stroke-linecap: square"/>
   </g>
   <g id="line2d_58">
    <path d="M 787.722969 316.758626 
L 812.402031 316.758626 
" clip-path="url(#p2d6b46d240)" style="fill: none; stroke: #000000; stroke-linecap: square"/>
   </g>
   <g id="line2d_59">
    <path d="M 787.722969 232.946183 
L 812.402031 232.946183 
" clip-path="url(#p2d6b46d240)" style="fill: none; stroke: #000000; stroke-linecap: square"/>
   </g>
   <g id="line2d_60"/>
   <g id="line2d_61">
    <path d="M 84.369688 246.397978 
L 133.727813 246.397978 
" clip-path="url(#p2d6b46d240)" style="fill: none; stroke: #ff7f0e"/>
   </g>
   <g id="line2d_62">
    <defs>
     <path id="md6ce4465e0" d="M 0 -3 
L -3 3 
L 3 3 
z
" style="stroke: #2ca02c; stroke-linejoin: miter"/>
    </defs>
    <g clip-path="url(#p2d6b46d240)">
     <use xlink:href="#md6ce4465e0" x="109.04875" y="233.258671" style="fill: #2ca02c; stroke: #2ca02c; stroke-linejoin: miter"/>
    </g>
   </g>
   <g id="line2d_63">
    <path d="M 183.085938 140.798588 
L 232.444063 140.798588 
" clip-path="url(#p2d6b46d240)" style="fill: none; stroke: #ff7f0e"/>
   </g>
   <g id="line2d_64">
    <g clip-path="url(#p2d6b46d240)">
     <use xlink:href="#md6ce4465e0" x="207.765" y="162.5818" style="fill: #2ca02c; stroke: #2ca02c; stroke-linejoin: miter"/>
    </g>
   </g>
   <g id="line2d_65">
    <path d="M 281.802188 194.184848 
L 331.160313 194.184848 
" clip-path="url(#p2d6b46d240)" style="fill: none; stroke: #ff7f0e"/>
   </g>
   <g id="line2d_66">
    <g clip-path="url(#p2d6b46d240)">
     <use xlink:href="#md6ce4465e0" x="306.48125" y="206.056997" style="fill: #2ca02c; stroke: #2ca02c; stroke-linejoin: miter"/>
    </g>
   </g>
   <g id="line2d_67">
    <path d="M 380.518438 216.243871 
L 429.876563 216.243871 
" clip-path="url(#p2d6b46d240)" style="fill: none; stroke: #ff7f0e"/>
   </g>
   <g id="line2d_68">
    <g clip-path="url(#p2d6b46d240)">
     <use xlink:href="#md6ce4465e0" x="405.1975" y="221.512557" style="fill: #2ca02c; stroke: #2ca02c; stroke-linejoin: miter"/>
    </g>
   </g>
   <g id="line2d_69">
    <path d="M 479.234688 273.802508 
L 528.592813 273.802508 
" clip-path="url(#p2d6b46d240)" style="fill: none; stroke: #ff7f0e"/>
   </g>
   <g id="line2d_70">
    <g clip-path="url(#p2d6b46d240)">
     <use xlink:href="#md6ce4465e0" x="503.91375" y="267.315345" style="fill: #2ca02c; stroke: #2ca02c; stroke-linejoin: miter"/>
    </g>
   </g>
   <g id="line2d_71">
    <path d="M 577.950938 220.10416 
L 627.309063 220.10416 
" clip-path="url(#p2d6b46d240)" style="fill: none; stroke: #ff7f0e"/>
   </g>
   <g id="line2d_72">
    <g clip-path="url(#p2d6b46d240)">
     <use xlink:href="#md6ce4465e0" x="602.63" y="227.638019" style="fill: #2ca02c; stroke: #2ca02c; stroke-linejoin: miter"/>
    </g>
   </g>
   <g id="line2d_73">
    <path d="M 676.667188 294.838843 
L 726.025313 294.838843 
" clip-path="url(#p2d6b46d240)" style="fill: none; stroke: #ff7f0e"/>
   </g>
   <g id="line2d_74">
    <g clip-path="url(#p2d6b46d240)">
     <use xlink:href="#md6ce4465e0" x="701.34625" y="294.838843" style="fill: #2ca02c; stroke: #2ca02c; stroke-linejoin: miter"/>
    </g>
   </g>
   <g id="line2d_75">
    <path d="M 775.383438 274.852405 
L 824.741563 274.852405 
" clip-path="url(#p2d6b46d240)" style="fill: none; stroke: #ff7f0e"/>
   </g>
   <g id="line2d_76">
    <g clip-path="url(#p2d6b46d240)">
     <use xlink:href="#md6ce4465e0" x="800.0625" y="274.852405" style="fill: #2ca02c; stroke: #2ca02c; stroke-linejoin: miter"/>
    </g>
   </g>
   <g id="patch_3">
    <path d="M 59.690625 333.764063 
L 59.690625 22.318125 
" style="fill: none; stroke: #000000; stroke-width: 0.8; stroke-linejoin: miter; stroke-linecap: square"/>
   </g>
   <g id="patch_4">
    <path d="M 849.420625 333.764063 
L 849.420625 22.318125 
" style="fill: none; stroke: #000000; stroke-width: 0.8; stroke-linejoin: miter; stroke-linecap: square"/>
   </g>
   <g id="patch_5">
    <path d="M 59.690625 333.764063 
L 849.420625 333.764063 
" style="fill: none; stroke: #000000; stroke-width: 0.8; stroke-linejoin: miter; stroke-linecap: square"/>
   </g>
   <g id="patch_6">
    <path d="M 59.690625 22.318125 
L 849.420625 22.318125 
" style="fill: none; stroke: #000000; stroke-width: 0.8; stroke-linejoin: miter; stroke-linecap: square"/>
   </g>
   <g id="text_15">
    <!-- observed por tratamiento -->
    <g transform="translate(377.424688 16.318125) scale(0.12 -0.12)">
     <use xlink:href="#DejaVuSans-6f"/>
     <use xlink:href="#DejaVuSans-62" transform="translate(61.181641 0)"/>
     <use xlink:href="#DejaVuSans-73" transform="translate(124.658203 0)"/>
     <use xlink:href="#DejaVuSans-65" transform="translate(176.757812 0)"/>
     <use xlink:href="#DejaVuSans-72" transform="translate(238.28125 0)"/>
     <use xlink:href="#DejaVuSans-76" transform="translate(279.394531 0)"/>
     <use xlink:href="#DejaVuSans-65" transform="translate(338.574219 0)"/>
     <use xlink:href="#DejaVuSans-64" transform="translate(400.097656 0)"/>
     <use xlink:href="#DejaVuSans-20" transform="translate(463.574219 0)"/>
     <use xlink:href="#DejaVuSans-70" transform="translate(495.361328 0)"/>
     <use xlink:href="#DejaVuSans-6f" transform="translate(558.837891 0)"/>
     <use xlink:href="#DejaVuSans-72" transform="translate(620.019531 0)"/>
     <use xlink:href="#DejaVuSans-20" transform="translate(661.132812 0)"/>
     <use xlink:href="#DejaVuSans-74" transform="translate(692.919922 0)"/>
     <use xlink:href="#DejaVuSans-72" transform="translate(732.128906 0)"/>
     <use xlink:href="#DejaVuSans-61" transform="translate(773.242188 0)"/>
     <use xlink:href="#DejaVuSans-74" transform="translate(834.521484 0)"/>
     <use xlink:href="#DejaVuSans-61" transform="translate(873.730469 0)"/>
     <use xlink:href="#DejaVuSans-6d" transform="translate(935.009766 0)"/>
     <use xlink:href="#DejaVuSans-69" transform="translate(1032.421875 0)"/>
     <use xlink:href="#DejaVuSans-65" transform="translate(1060.205078 0)"/>
     <use xlink:href="#DejaVuSans-6e" transform="translate(1121.728516 0)"/>
     <use xlink:href="#DejaVuSans-74" transform="translate(1185.107422 0)"/>
     <use xlink:href="#DejaVuSans-6f" transform="translate(1224.316406 0)"/>
    </g>
   </g>
  </g>
 </g>
 <defs>
  <clipPath id="p2d6b46d240">
   <rect x="59.690625" y="22.318125" width="789.73" height="311.445938"/>
  </clipPath>
 </defs>
</svg>
