<?xml version="1.0" encoding="utf-8" standalone="no"?>
<!DOCTYPE svg PUBLIC "-//W3C//DTD SVG 1.1//EN"
  "http://www.w3.org/Graphics/SVG/1.1/DTD/svg11.dtd">
<svg xmlns:xlink="http://www.w3.org/1999/xlink" width="998.699563pt" height="423.225015pt" viewBox="0 0 998.699563 423.225015" xmlns="http://www.w3.org/2000/svg" version="1.1">
 <metadata>
  <rdf:RDF xmlns:dc="http://purl.org/dc/elements/1.1/" xmlns:cc="http://creativecommons.org/ns#" xmlns:rdf="http://www.w3.org/1999/02/22-rdf-syntax-ns#">
   <cc:Work>
    <dc:type rdf:resource="http://purl.org/dc/dcmitype/StillImage"/>
    <dc:date>2026-05-04T17:09:22.254059</dc:date>
    <dc:format>image/svg+xml</dc:format>
    <dc:creator>
     <cc:Agent>
      <dc:title>Matplotlib v3.10.0, https://matplotlib.org/</dc:title>
     </cc:Agent>
    </dc:creator>
   </cc:Work>
  </rdf:RDF>
 </metadata>
 <defs>
  <style type="text/css">*{stroke-linejoin: round; stroke-linecap: butt}</style>
 </defs>
 <g id="figure_1">
  <g id="patch_1">
   <path d="M 0 423.225015 
L 998.699563 423.225015 
L 998.699563 0 
L 0 0 
z
" style="fill: #ffffff"/>
  </g>
  <g id="axes_1">
   <g id="patch_2">
    <path d="M 46.965625 368.122174 
L 799.475625 368.122174 
L 799.475625 22.798125 
L 46.965625 22.798125 
z
" style="fill: #ffffff"/>
   </g>
   <g id="patch_3">
    <path d="M 65.778375 368.122174 
L 103.403875 368.122174 
L 103.403875 285.761743 
L 65.778375 285.761743 
z
" clip-path="url(#p8e54331067)" style="fill: #1f77b4"/>
   </g>
   <g id="patch_4">
    <path d="M 141.029375 368.122174 
L 178.654875 368.122174 
L 178.654875 290.74628 
L 141.029375 290.74628 
z
" clip-path="url(#p8e54331067)" style="fill: #1f77b4"/>
   </g>
   <g id="patch_5">
    <path d="M 216.280375 368.122174 
L 253.905875 368.122174 
L 253.905875 302.387965 
L 216.280375 302.387965 
z
" clip-path="url(#p8e54331067)" style="fill: #1f77b4"/>
   </g>
   <g id="patch_6">
    <path d="M 291.531375 368.122174 
L 329.156875 368.122174 
L 329.156875 299.606848 
L 291.531375 299.606848 
z
" clip-path="url(#p8e54331067)" style="fill: #1f77b4"/>
   </g>
   <g id="patch_7">
    <path d="M 366.782375 368.122174 
L 404.407875 368.122174 
L 404.407875 282.763697 
L 366.782375 282.763697 
z
" clip-path="url(#p8e54331067)" style="fill: #1f77b4"/>
   </g>
   <g id="patch_8">
    <path d="M 442.033375 368.122174 
L 479.658875 368.122174 
L 479.658875 272.476473 
L 442.033375 272.476473 
z
" clip-path="url(#p8e54331067)" style="fill: #1f77b4"/>
   </g>
   <g id="patch_9">
    <path d="M 517.284375 368.122174 
L 554.909875 368.122174 
L 554.909875 282.457963 
L 517.284375 282.457963 
z
" clip-path="url(#p8e54331067)" style="fill: #1f77b4"/>
   </g>
   <g id="patch_10">
    <path d="M 592.535375 368.122174 
L 630.160875 368.122174 
L 630.160875 283.352433 
L 592.535375 283.352433 
z
" clip-path="url(#p8e54331067)" style="fill: #1f77b4"/>
   </g>
   <g id="patch_11">
    <path d="M 667.786375 368.122174 
L 705.411875 368.122174 
L 705.411875 278.846127 
L 667.786375 278.846127 
z
" clip-path="url(#p8e54331067)" style="fill: #1f77b4"/>
   </g>
   <g id="patch_12">
    <path d="M 743.037375 368.122174 
L 780.662875 368.122174 
L 780.662875 247.294934 
L 743.037375 247.294934 
z
" clip-path="url(#p8e54331067)" style="fill: #1f77b4"/>
   </g>
   <g id="patch_13">
    <path d="M 65.778375 285.761743 
L 103.403875 285.761743 
L 103.403875 211.915622 
L 65.778375 211.915622 
z
" clip-path="url(#p8e54331067)" style="fill: #ff7f0e"/>
   </g>
   <g id="patch_14">
    <path d="M 141.029375 290.74628 
L 178.654875 290.74628 
L 178.654875 214.799646 
L 141.029375 214.799646 
z
" clip-path="url(#p8e54331067)" style="fill: #ff7f0e"/>
   </g>
   <g id="patch_15">
    <path d="M 216.280375 302.387965 
L 253.905875 302.387965 
L 253.905875 238.288264 
L 216.280375 238.288264 
z
" clip-path="url(#p8e54331067)" style="fill: #ff7f0e"/>
   </g>
   <g id="patch_16">
    <path d="M 291.531375 299.606848 
L 329.156875 299.606848 
L 329.156875 239.424773 
L 291.531375 239.424773 
z
" clip-path="url(#p8e54331067)" style="fill: #ff7f0e"/>
   </g>
   <g id="patch_17">
    <path d="M 366.782375 282.763697 
L 404.407875 282.763697 
L 404.407875 199.019523 
L 366.782375 199.019523 
z
" clip-path="url(#p8e54331067)" style="fill: #ff7f0e"/>
   </g>
   <g id="patch_18">
    <path d="M 442.033375 272.476473 
L 479.658875 272.476473 
L 479.658875 187.409372 
L 442.033375 187.409372 
z
" clip-path="url(#p8e54331067)" style="fill: #ff7f0e"/>
   </g>
   <g id="patch_19">
    <path d="M 517.284375 282.457963 
L 554.909875 282.457963 
L 554.909875 196.861003 
L 517.284375 196.861003 
z
" clip-path="url(#p8e54331067)" style="fill: #ff7f0e"/>
   </g>
   <g id="patch_20">
    <path d="M 592.535375 283.352433 
L 630.160875 283.352433 
L 630.160875 195.464727 
L 592.535375 195.464727 
z
" clip-path="url(#p8e54331067)" style="fill: #ff7f0e"/>
   </g>
   <g id="patch_21">
    <path d="M 667.786375 278.846127 
L 705.411875 278.846127 
L 705.411875 199.571318 
L 667.786375 199.571318 
z
" clip-path="url(#p8e54331067)" style="fill: #ff7f0e"/>
   </g>
   <g id="patch_22">
    <path d="M 743.037375 247.294934 
L 780.662875 247.294934 
L 780.662875 172.011394 
L 743.037375 172.011394 
z
" clip-path="url(#p8e54331067)" style="fill: #ff7f0e"/>
   </g>
   <g id="patch_23">
    <path d="M 65.778375 211.915622 
L 103.403875 211.915622 
L 103.403875 159.720042 
L 65.778375 159.720042 
z
" clip-path="url(#p8e54331067)" style="fill: #2ca02c"/>
   </g>
   <g id="patch_24">
    <path d="M 141.029375 214.799646 
L 178.654875 214.799646 
L 178.654875 159.408552 
L 141.029375 159.408552 
z
" clip-path="url(#p8e54331067)" style="fill: #2ca02c"/>
   </g>
   <g id="patch_25">
    <path d="M 216.280375 238.288264 
L 253.905875 238.288264 
L 253.905875 176.866716 
L 216.280375 176.866716 
z
" clip-path="url(#p8e54331067)" style="fill: #2ca02c"/>
   </g>
   <g id="patch_26">
    <path d="M 291.531375 239.424773 
L 329.156875 239.424773 
L 329.156875 174.398786 
L 291.531375 174.398786 
z
" clip-path="url(#p8e54331067)" style="fill: #2ca02c"/>
   </g>
   <g id="patch_27">
    <path d="M 366.782375 199.019523 
L 404.407875 199.019523 
L 404.407875 150.855412 
L 366.782375 150.855412 
z
" clip-path="url(#p8e54331067)" style="fill: #2ca02c"/>
   </g>
   <g id="patch_28">
    <path d="M 442.033375 187.409372 
L 479.658875 187.409372 
L 479.658875 147.209411 
L 442.033375 147.209411 
z
" clip-path="url(#p8e54331067)" style="fill: #2ca02c"/>
   </g>
   <g id="patch_29">
    <path d="M 517.284375 196.861003 
L 554.909875 196.861003 
L 554.909875 150.115029 
L 517.284375 150.115029 
z
" clip-path="url(#p8e54331067)" style="fill: #2ca02c"/>
   </g>
   <g id="patch_30">
    <path d="M 592.535375 195.464727 
L 630.160875 195.464727 
L 630.160875 149.906525 
L 592.535375 149.906525 
z
" clip-path="url(#p8e54331067)" style="fill: #2ca02c"/>
   </g>
   <g id="patch_31">
    <path d="M 667.786375 199.571318 
L 705.411875 199.571318 
L 705.411875 146.540743 
L 667.786375 146.540743 
z
" clip-path="url(#p8e54331067)" style="fill: #2ca02c"/>
   </g>
   <g id="patch_32">
    <path d="M 743.037375 172.011394 
L 780.662875 172.011394 
L 780.662875 147.065038 
L 743.037375 147.065038 
z
" clip-path="url(#p8e54331067)" style="fill: #2ca02c"/>
   </g>
   <g id="patch_33">
    <path d="M 65.778375 159.720042 
L 103.403875 159.720042 
L 103.403875 138.826339 
L 65.778375 138.826339 
z
" clip-path="url(#p8e54331067)" style="fill: #d62728"/>
   </g>
   <g id="patch_34">
    <path d="M 141.029375 159.408552 
L 178.654875 159.408552 
L 178.654875 136.293716 
L 141.029375 136.293716 
z
" clip-path="url(#p8e54331067)" style="fill: #d62728"/>
   </g>
   <g id="patch_35">
    <path d="M 216.280375 176.866716 
L 253.905875 176.866716 
L 253.905875 144.855494 
L 216.280375 144.855494 
z
" clip-path="url(#p8e54331067)" style="fill: #d62728"/>
   </g>
   <g id="patch_36">
    <path d="M 291.531375 174.398786 
L 329.156875 174.398786 
L 329.156875 144.488875 
L 291.531375 144.488875 
z
" clip-path="url(#p8e54331067)" style="fill: #d62728"/>
   </g>
   <g id="patch_37">
    <path d="M 366.782375 150.855412 
L 404.407875 150.855412 
L 404.407875 134.082959 
L 366.782375 134.082959 
z
" clip-path="url(#p8e54331067)" style="fill: #d62728"/>
   </g>
   <g id="patch_38">
    <path d="M 442.033375 147.209411 
L 479.658875 147.209411 
L 479.658875 131.889082 
L 442.033375 131.889082 
z
" clip-path="url(#p8e54331067)" style="fill: #d62728"/>
   </g>
   <g id="patch_39">
    <path d="M 517.284375 150.115029 
L 554.909875 150.115029 
L 554.909875 132.802093 
L 517.284375 132.802093 
z
" clip-path="url(#p8e54331067)" style="fill: #d62728"/>
   </g>
   <g id="patch_40">
    <path d="M 592.535375 149.906525 
L 630.160875 149.906525 
L 630.160875 133.834725 
L 592.535375 133.834725 
z
" clip-path="url(#p8e54331067)" style="fill: #d62728"/>
   </g>
   <g id="patch_41">
    <path d="M 667.786375 146.540743 
L 705.411875 146.540743 
L 705.411875 128.211769 
L 667.786375 128.211769 
z
" clip-path="url(#p8e54331067)" style="fill: #d62728"/>
   </g>
   <g id="patch_42">
    <path d="M 743.037375 147.065038 
L 780.662875 147.065038 
L 780.662875 126.328375 
L 743.037375 126.328375 
z
" clip-path="url(#p8e54331067)" style="fill: #d62728"/>
   </g>
   <g id="patch_43">
    <path d="M 65.778375 138.826339 
L 103.403875 138.826339 
L 103.403875 121.319451 
L 65.778375 121.319451 
z
" clip-path="url(#p8e54331067)" style="fill: #9467bd"/>
   </g>
   <g id="patch_44">
    <path d="M 141.029375 136.293716 
L 178.654875 136.293716 
L 178.654875 119.514788 
L 141.029375 119.514788 
z
" clip-path="url(#p8e54331067)" style="fill: #9467bd"/>
   </g>
   <g id="patch_45">
    <path d="M 216.280375 144.855494 
L 253.905875 144.855494 
L 253.905875 124.938089 
L 216.280375 124.938089 
z
" clip-path="url(#p8e54331067)" style="fill: #9467bd"/>
   </g>
   <g id="patch_46">
    <path d="M 291.531375 144.488875 
L 329.156875 144.488875 
L 329.156875 122.360379 
L 291.531375 122.360379 
z
" clip-path="url(#p8e54331067)" style="fill: #9467bd"/>
   </g>
   <g id="patch_47">
    <path d="M 366.782375 134.082959 
L 404.407875 134.082959 
L 404.407875 118.872049 
L 366.782375 118.872049 
z
" clip-path="url(#p8e54331067)" style="fill: #9467bd"/>
   </g>
   <g id="patch_48">
    <path d="M 442.033375 131.889082 
L 479.658875 131.889082 
L 479.658875 118.377267 
L 442.033375 118.377267 
z
" clip-path="url(#p8e54331067)" style="fill: #9467bd"/>
   </g>
   <g id="patch_49">
    <path d="M 517.284375 132.802093 
L 554.909875 132.802093 
L 554.909875 117.453004 
L 517.284375 117.453004 
z
" clip-path="url(#p8e54331067)" style="fill: #9467bd"/>
   </g>
   <g id="patch_50">
    <path d="M 592.535375 133.834725 
L 630.160875 133.834725 
L 630.160875 118.82776 
L 592.535375 118.82776 
z
" clip-path="url(#p8e54331067)" style="fill: #9467bd"/>
   </g>
   <g id="patch_51">
    <path d="M 667.786375 128.211769 
L 705.411875 128.211769 
L 705.411875 114.837009 
L 667.786375 114.837009 
z
" clip-path="url(#p8e54331067)" style="fill: #9467bd"/>
   </g>
   <g id="patch_52">
    <path d="M 743.037375 126.328375 
L 780.662875 126.328375 
L 780.662875 118.08716 
L 743.037375 118.08716 
z
" clip-path="url(#p8e54331067)" style="fill: #9467bd"/>
   </g>
   <g id="patch_53">
    <path d="M 65.778375 121.319451 
L 103.403875 121.319451 
L 103.403875 109.31519 
L 65.778375 109.31519 
z
" clip-path="url(#p8e54331067)" style="fill: #8c564b"/>
   </g>
   <g id="patch_54">
    <path d="M 141.029375 119.514788 
L 178.654875 119.514788 
L 178.654875 107.149151 
L 141.029375 107.149151 
z
" clip-path="url(#p8e54331067)" style="fill: #8c564b"/>
   </g>
   <g id="patch_55">
    <path d="M 216.280375 124.938089 
L 253.905875 124.938089 
L 253.905875 115.523062 
L 216.280375 115.523062 
z
" clip-path="url(#p8e54331067)" style="fill: #8c564b"/>
   </g>
   <g id="patch_56">
    <path d="M 291.531375 122.360379 
L 329.156875 122.360379 
L 329.156875 111.34194 
L 291.531375 111.34194 
z
" clip-path="url(#p8e54331067)" style="fill: #8c564b"/>
   </g>
   <g id="patch_57">
    <path d="M 366.782375 118.872049 
L 404.407875 118.872049 
L 404.407875 105.836998 
L 366.782375 105.836998 
z
" clip-path="url(#p8e54331067)" style="fill: #8c564b"/>
   </g>
   <g id="patch_58">
    <path d="M 442.033375 118.377267 
L 479.658875 118.377267 
L 479.658875 105.832051 
L 442.033375 105.832051 
z
" clip-path="url(#p8e54331067)" style="fill: #8c564b"/>
   </g>
   <g id="patch_59">
    <path d="M 517.284375 117.453004 
L 554.909875 117.453004 
L 554.909875 105.827601 
L 517.284375 105.827601 
z
" clip-path="url(#p8e54331067)" style="fill: #8c564b"/>
   </g>
   <g id="patch_60">
    <path d="M 592.535375 118.82776 
L 630.160875 118.82776 
L 630.160875 106.26144 
L 592.535375 106.26144 
z
" clip-path="url(#p8e54331067)" style="fill: #8c564b"/>
   </g>
   <g id="patch_61">
    <path d="M 667.786375 114.837009 
L 705.411875 114.837009 
L 705.411875 103.947459 
L 667.786375 103.947459 
z
" clip-path="url(#p8e54331067)" style="fill: #8c564b"/>
   </g>
   <g id="patch_62">
    <path d="M 743.037375 118.08716 
L 780.662875 118.08716 
L 780.662875 112.414216 
L 743.037375 112.414216 
z
" clip-path="url(#p8e54331067)" style="fill: #8c564b"/>
   </g>
   <g id="patch_63">
    <path d="M 65.778375 109.31519 
L 103.403875 109.31519 
L 103.403875 100.004608 
L 65.778375 100.004608 
z
" clip-path="url(#p8e54331067)" style="fill: #e377c2"/>
   </g>
   <g id="patch_64">
    <path d="M 141.029375 107.149151 
L 178.654875 107.149151 
L 178.654875 97.045313 
L 141.029375 97.045313 
z
" clip-path="url(#p8e54331067)" style="fill: #e377c2"/>
   </g>
   <g id="patch_65">
    <path d="M 216.280375 115.523062 
L 253.905875 115.523062 
L 253.905875 101.015168 
L 216.280375 101.015168 
z
" clip-path="url(#p8e54331067)" style="fill: #e377c2"/>
   </g>
   <g id="patch_66">
    <path d="M 291.531375 111.34194 
L 329.156875 111.34194 
L 329.156875 100.523657 
L 291.531375 100.523657 
z
" clip-path="url(#p8e54331067)" style="fill: #e377c2"/>
   </g>
   <g id="patch_67">
    <path d="M 366.782375 105.836998 
L 404.407875 105.836998 
L 404.407875 97.990338 
L 366.782375 97.990338 
z
" clip-path="url(#p8e54331067)" style="fill: #e377c2"/>
   </g>
   <g id="patch_68">
    <path d="M 442.033375 105.832051 
L 479.658875 105.832051 
L 479.658875 96.727773 
L 442.033375 96.727773 
z
" clip-path="url(#p8e54331067)" style="fill: #e377c2"/>
   </g>
   <g id="patch_69">
    <path d="M 517.284375 105.827601 
L 554.909875 105.827601 
L 554.909875 96.080107 
L 517.284375 96.080107 
z
" clip-path="url(#p8e54331067)" style="fill: #e377c2"/>
   </g>
   <g id="patch_70">
    <path d="M 592.535375 106.26144 
L 630.160875 106.26144 
L 630.160875 96.446751 
L 592.535375 96.446751 
z
" clip-path="url(#p8e54331067)" style="fill: #e377c2"/>
   </g>
   <g id="patch_71">
    <path d="M 667.786375 103.947459 
L 705.411875 103.947459 
L 705.411875 95.163046 
L 667.786375 95.163046 
z
" clip-path="url(#p8e54331067)" style="fill: #e377c2"/>
   </g>
   <g id="patch_72">
    <path d="M 743.037375 112.414216 
L 780.662875 112.414216 
L 780.662875 94.78412 
L 743.037375 94.78412 
z
" clip-path="url(#p8e54331067)" style="fill: #e377c2"/>
   </g>
   <g id="patch_73">
    <path d="M 65.778375 100.004608 
L 103.403875 100.004608 
L 103.403875 89.493297 
L 65.778375 89.493297 
z
" clip-path="url(#p8e54331067)" style="fill: #7f7f7f"/>
   </g>
   <g id="patch_74">
    <path d="M 141.029375 97.045313 
L 178.654875 97.045313 
L 178.654875 86.199702 
L 141.029375 86.199702 
z
" clip-path="url(#p8e54331067)" style="fill: #7f7f7f"/>
   </g>
   <g id="patch_75">
    <path d="M 216.280375 101.015168 
L 253.905875 101.015168 
L 253.905875 92.246089 
L 216.280375 92.246089 
z
" clip-path="url(#p8e54331067)" style="fill: #7f7f7f"/>
   </g>
   <g id="patch_76">
    <path d="M 291.531375 100.523657 
L 329.156875 100.523657 
L 329.156875 91.029645 
L 291.531375 91.029645 
z
" clip-path="url(#p8e54331067)" style="fill: #7f7f7f"/>
   </g>
   <g id="patch_77">
    <path d="M 366.782375 97.990338 
L 404.407875 97.990338 
L 404.407875 84.519362 
L 366.782375 84.519362 
z
" clip-path="url(#p8e54331067)" style="fill: #7f7f7f"/>
   </g>
   <g id="patch_78">
    <path d="M 442.033375 96.727773 
L 479.658875 96.727773 
L 479.658875 85.345817 
L 442.033375 85.345817 
z
" clip-path="url(#p8e54331067)" style="fill: #7f7f7f"/>
   </g>
   <g id="patch_79">
    <path d="M 517.284375 96.080107 
L 554.909875 96.080107 
L 554.909875 84.489826 
L 517.284375 84.489826 
z
" clip-path="url(#p8e54331067)" style="fill: #7f7f7f"/>
   </g>
   <g id="patch_80">
    <path d="M 592.535375 96.446751 
L 630.160875 96.446751 
L 630.160875 83.68342 
L 592.535375 83.68342 
z
" clip-path="url(#p8e54331067)" style="fill: #7f7f7f"/>
   </g>
   <g id="patch_81">
    <path d="M 667.786375 95.163046 
L 705.411875 95.163046 
L 705.411875 85.077838 
L 667.786375 85.077838 
z
" clip-path="url(#p8e54331067)" style="fill: #7f7f7f"/>
   </g>
   <g id="patch_82">
    <path d="M 743.037375 94.78412 
L 780.662875 94.78412 
L 780.662875 90.845471 
L 743.037375 90.845471 
z
" clip-path="url(#p8e54331067)" style="fill: #7f7f7f"/>
   </g>
   <g id="patch_83">
    <path d="M 65.778375 89.493297 
L 103.403875 89.493297 
L 103.403875 78.937495 
L 65.778375 78.937495 
z
" clip-path="url(#p8e54331067)" style="fill: #bcbd22"/>
   </g>
   <g id="patch_84">
    <path d="M 141.029375 86.199702 
L 178.654875 86.199702 
L 178.654875 76.607028 
L 141.029375 76.607028 
z
" clip-path="url(#p8e54331067)" style="fill: #bcbd22"/>
   </g>
   <g id="patch_85">
    <path d="M 216.280375 92.246089 
L 253.905875 92.246089 
L 253.905875 86.122869 
L 216.280375 86.122869 
z
" clip-path="url(#p8e54331067)" style="fill: #bcbd22"/>
   </g>
   <g id="patch_86">
    <path d="M 291.531375 91.029645 
L 329.156875 91.029645 
L 329.156875 84.49216 
L 291.531375 84.49216 
z
" clip-path="url(#p8e54331067)" style="fill: #bcbd22"/>
   </g>
   <g id="patch_87">
    <path d="M 366.782375 84.519362 
L 404.407875 84.519362 
L 404.407875 72.501889 
L 366.782375 72.501889 
z
" clip-path="url(#p8e54331067)" style="fill: #bcbd22"/>
   </g>
   <g id="patch_88">
    <path d="M 442.033375 85.345817 
L 479.658875 85.345817 
L 479.658875 71.947115 
L 442.033375 71.947115 
z
" clip-path="url(#p8e54331067)" style="fill: #bcbd22"/>
   </g>
   <g id="patch_89">
    <path d="M 517.284375 84.489826 
L 554.909875 84.489826 
L 554.909875 73.785069 
L 517.284375 73.785069 
z
" clip-path="url(#p8e54331067)" style="fill: #bcbd22"/>
   </g>
   <g id="patch_90">
    <path d="M 592.535375 83.68342 
L 630.160875 83.68342 
L 630.160875 72.463608 
L 592.535375 72.463608 
z
" clip-path="url(#p8e54331067)" style="fill: #bcbd22"/>
   </g>
   <g id="patch_91">
    <path d="M 667.786375 85.077838 
L 705.411875 85.077838 
L 705.411875 75.365338 
L 667.786375 75.365338 
z
" clip-path="url(#p8e54331067)" style="fill: #bcbd22"/>
   </g>
   <g id="patch_92">
    <path d="M 743.037375 90.845471 
L 780.662875 90.845471 
L 780.662875 82.250763 
L 743.037375 82.250763 
z
" clip-path="url(#p8e54331067)" style="fill: #bcbd22"/>
   </g>
   <g id="patch_93">
    <path d="M 65.778375 78.937495 
L 103.403875 78.937495 
L 103.403875 66.209763 
L 65.778375 66.209763 
z
" clip-path="url(#p8e54331067)" style="fill: #17becf"/>
   </g>
   <g id="patch_94">
    <path d="M 141.029375 76.607028 
L 178.654875 76.607028 
L 178.654875 67.827351 
L 141.029375 67.827351 
z
" clip-path="url(#p8e54331067)" style="fill: #17becf"/>
   </g>
   <g id="patch_95">
    <path d="M 216.280375 86.122869 
L 253.905875 86.122869 
L 253.905875 77.310094 
L 216.280375 77.310094 
z
" clip-path="url(#p8e54331067)" style="fill: #17becf"/>
   </g>
   <g id="patch_96">
    <path d="M 291.531375 84.49216 
L 329.156875 84.49216 
L 329.156875 74.160171 
L 291.531375 74.160171 
z
" clip-path="url(#p8e54331067)" style="fill: #17becf"/>
   </g>
   <g id="patch_97">
    <path d="M 366.782375 72.501889 
L 404.407875 72.501889 
L 404.407875 63.637652 
L 366.782375 63.637652 
z
" clip-path="url(#p8e54331067)" style="fill: #17becf"/>
   </g>
   <g id="patch_98">
    <path d="M 442.033375 71.947115 
L 479.658875 71.947115 
L 479.658875 61.248976 
L 442.033375 61.248976 
z
" clip-path="url(#p8e54331067)" style="fill: #17becf"/>
   </g>
   <g id="patch_99">
    <path d="M 517.284375 73.785069 
L 554.909875 73.785069 
L 554.909875 65.424523 
L 517.284375 65.424523 
z
" clip-path="url(#p8e54331067)" style="fill: #17becf"/>
   </g>
   <g id="patch_100">
    <path d="M 592.535375 72.463608 
L 630.160875 72.463608 
L 630.160875 63.143886 
L 592.535375 63.143886 
z
" clip-path="url(#p8e54331067)" style="fill: #17becf"/>
   </g>
   <g id="patch_101">
    <path d="M 667.786375 75.365338 
L 705.411875 75.365338 
L 705.411875 67.404416 
L 667.786375 67.404416 
z
" clip-path="url(#p8e54331067)" style="fill: #17becf"/>
   </g>
   <g id="patch_102">
    <path d="M 743.037375 82.250763 
L 780.662875 82.250763 
L 780.662875 75.900213 
L 743.037375 75.900213 
z
" clip-path="url(#p8e54331067)" style="fill: #17becf"/>
   </g>
   <g id="patch_103">
    <path d="M 65.778375 66.209763 
L 103.403875 66.209763 
L 103.403875 39.242138 
L 65.778375 39.242138 
z
" clip-path="url(#p8e54331067)" style="fill: #1f77b4"/>
   </g>
   <g id="patch_104">
    <path d="M 141.029375 67.827351 
L 178.654875 67.827351 
L 178.654875 39.242155 
L 141.029375 39.242155 
z
" clip-path="url(#p8e54331067)" style="fill: #1f77b4"/>
   </g>
   <g id="patch_105">
    <path d="M 216.280375 77.310094 
L 253.905875 77.310094 
L 253.905875 39.242138 
L 216.280375 39.242138 
z
" clip-path="url(#p8e54331067)" style="fill: #1f77b4"/>
   </g>
   <g id="patch_106">
    <path d="M 291.531375 74.160171 
L 329.156875 74.160171 
L 329.156875 39.242136 
L 291.531375 39.242136 
z
" clip-path="url(#p8e54331067)" style="fill: #1f77b4"/>
   </g>
   <g id="patch_107">
    <path d="M 366.782375 63.637652 
L 404.407875 63.637652 
L 404.407875 39.242159 
L 366.782375 39.242159 
z
" clip-path="url(#p8e54331067)" style="fill: #1f77b4"/>
   </g>
   <g id="patch_108">
    <path d="M 442.033375 61.248976 
L 479.658875 61.248976 
L 479.658875 39.242148 
L 442.033375 39.242148 
z
" clip-path="url(#p8e54331067)" style="fill: #1f77b4"/>
   </g>
   <g id="patch_109">
    <path d="M 517.284375 65.424523 
L 554.909875 65.424523 
L 554.909875 39.242127 
L 517.284375 39.242127 
z
" clip-path="url(#p8e54331067)" style="fill: #1f77b4"/>
   </g>
   <g id="patch_110">
    <path d="M 592.535375 63.143886 
L 630.160875 63.143886 
L 630.160875 39.242159 
L 592.535375 39.242159 
z
" clip-path="url(#p8e54331067)" style="fill: #1f77b4"/>
   </g>
   <g id="patch_111">
    <path d="M 667.786375 67.404416 
L 705.411875 67.404416 
L 705.411875 39.242148 
L 667.786375 39.242148 
z
" clip-path="url(#p8e54331067)" style="fill: #1f77b4"/>
   </g>
   <g id="patch_112">
    <path d="M 743.037375 75.900213 
L 780.662875 75.900213 
L 780.662875 39.242173 
L 743.037375 39.242173 
z
" clip-path="url(#p8e54331067)" style="fill: #1f77b4"/>
   </g>
   <g id="matplotlib.axis_1">
    <g id="xtick_1">
     <g id="line2d_1">
      <defs>
       <path id="mc3c71053ae" d="M 0 0 
L 0 3.5 
" style="stroke: #000000; stroke-width: 0.8"/>
      </defs>
      <g>
       <use xlink:href="#mc3c71053ae" x="84.591125" y="368.122174" style="stroke: #000000; stroke-width: 0.8"/>
      </g>
     </g>
     <g id="text_1">
      <!-- Cpst1 -->
      <g transform="translate(62.739316 400.876329) rotate(-45) scale(0.1 -0.1)">
       <defs>
        <path id="DejaVuSans-43" d="M 4122 4306 
L 4122 3641 
Q 3803 3938 3442 4084 
Q 3081 4231 2675 4231 
Q 1875 4231 1450 3742 
Q 1025 3253 1025 2328 
Q 1025 1406 1450 917 
Q 1875 428 2675 428 
Q 3081 428 3442 575 
Q 3803 722 4122 1019 
L 4122 359 
Q 3791 134 3420 21 
Q 3050 -91 2638 -91 
Q 1578 -91 968 557 
Q 359 1206 359 2328 
Q 359 3453 968 4101 
Q 1578 4750 2638 4750 
Q 3056 4750 3426 4639 
Q 3797 4528 4122 4306 
z
" transform="scale(0.015625)"/>
        <path id="DejaVuSans-70" d="M 1159 525 
L 1159 -1331 
L 581 -1331 
L 581 3500 
L 1159 3500 
L 1159 2969 
Q 1341 3281 1617 3432 
Q 1894 3584 2278 3584 
Q 2916 3584 3314 3078 
Q 3713 2572 3713 1747 
Q 3713 922 3314 415 
Q 2916 -91 2278 -91 
Q 1894 -91 1617 61 
Q 1341 213 1159 525 
z
M 3116 1747 
Q 3116 2381 2855 2742 
Q 2594 3103 2138 3103 
Q 1681 3103 1420 2742 
Q 1159 2381 1159 1747 
Q 1159 1113 1420 752 
Q 1681 391 2138 391 
Q 2594 391 2855 752 
Q 3116 1113 3116 1747 
z
" transform="scale(0.015625)"/>
        <path id="DejaVuSans-73" d="M 2834 3397 
L 2834 2853 
Q 2591 2978 2328 3040 
Q 2066 3103 1784 3103 
Q 1356 3103 1142 2972 
Q 928 2841 928 2578 
Q 928 2378 1081 2264 
Q 1234 2150 1697 2047 
L 1894 2003 
Q 2506 1872 2764 1633 
Q 3022 1394 3022 966 
Q 3022 478 2636 193 
Q 2250 -91 1575 -91 
Q 1294 -91 989 -36 
Q 684 19 347 128 
L 347 722 
Q 666 556 975 473 
Q 1284 391 1588 391 
Q 1994 391 2212 530 
Q 2431 669 2431 922 
Q 2431 1156 2273 1281 
Q 2116 1406 1581 1522 
L 1381 1569 
Q 847 1681 609 1914 
Q 372 2147 372 2553 
Q 372 3047 722 3315 
Q 1072 3584 1716 3584 
Q 2034 3584 2315 3537 
Q 2597 3491 2834 3397 
z
" transform="scale(0.015625)"/>
        <path id="DejaVuSans-74" d="M 1172 4494 
L 1172 3500 
L 2356 3500 
L 2356 3053 
L 1172 3053 
L 1172 1153 
Q 1172 725 1289 603 
Q 1406 481 1766 481 
L 2356 481 
L 2356 0 
L 1766 0 
Q 1100 0 847 248 
Q 594 497 594 1153 
L 594 3053 
L 172 3053 
L 172 3500 
L 594 3500 
L 594 4494 
L 1172 4494 
z
" transform="scale(0.015625)"/>
        <path id="DejaVuSans-31" d="M 794 531 
L 1825 531 
L 1825 4091 
L 703 3866 
L 703 4441 
L 1819 4666 
L 2450 4666 
L 2450 531 
L 3481 531 
L 3481 0 
L 794 0 
L 794 531 
z
" transform="scale(0.015625)"/>
       </defs>
       <use xlink:href="#DejaVuSans-43"/>
       <use xlink:href="#DejaVuSans-70" transform="translate(69.824219 0)"/>
       <use xlink:href="#DejaVuSans-73" transform="translate(133.300781 0)"/>
       <use xlink:href="#DejaVuSans-74" transform="translate(185.400391 0)"/>
       <use xlink:href="#DejaVuSans-31" transform="translate(224.609375 0)"/>
      </g>
     </g>
    </g>
    <g id="xtick_2">
     <g id="line2d_2">
      <g>
       <use xlink:href="#mc3c71053ae" x="159.842125" y="368.122174" style="stroke: #000000; stroke-width: 0.8"/>
      </g>
     </g>
     <g id="text_2">
      <!-- Cpst2 -->
      <g transform="translate(137.990316 400.876329) rotate(-45) scale(0.1 -0.1)">
       <defs>
        <path id="DejaVuSans-32" d="M 1228 531 
L 3431 531 
L 3431 0 
L 469 0 
L 469 531 
Q 828 903 1448 1529 
Q 2069 2156 2228 2338 
Q 2531 2678 2651 2914 
Q 2772 3150 2772 3378 
Q 2772 3750 2511 3984 
Q 2250 4219 1831 4219 
Q 1534 4219 1204 4116 
Q 875 4013 500 3803 
L 500 4441 
Q 881 4594 1212 4672 
Q 1544 4750 1819 4750 
Q 2544 4750 2975 4387 
Q 3406 4025 3406 3419 
Q 3406 3131 3298 2873 
Q 3191 2616 2906 2266 
Q 2828 2175 2409 1742 
Q 1991 1309 1228 531 
z
" transform="scale(0.015625)"/>
       </defs>
       <use xlink:href="#DejaVuSans-43"/>
       <use xlink:href="#DejaVuSans-70" transform="translate(69.824219 0)"/>
       <use xlink:href="#DejaVuSans-73" transform="translate(133.300781 0)"/>
       <use xlink:href="#DejaVuSans-74" transform="translate(185.400391 0)"/>
       <use xlink:href="#DejaVuSans-32" transform="translate(224.609375 0)"/>
      </g>
     </g>
    </g>
    <g id="xtick_3">
     <g id="line2d_3">
      <g>
       <use xlink:href="#mc3c71053ae" x="235.093125" y="368.122174" style="stroke: #000000; stroke-width: 0.8"/>
      </g>
     </g>
     <g id="text_3">
      <!-- Quí2 -->
      <g transform="translate(217.111621 397.006024) rotate(-45) scale(0.1 -0.1)">
       <defs>
        <path id="DejaVuSans-51" d="M 2522 4238 
Q 1834 4238 1429 3725 
Q 1025 3213 1025 2328 
Q 1025 1447 1429 934 
Q 1834 422 2522 422 
Q 3209 422 3611 934 
Q 4013 1447 4013 2328 
Q 4013 3213 3611 3725 
Q 3209 4238 2522 4238 
z
M 3406 84 
L 4238 -825 
L 3475 -825 
L 2784 -78 
Q 2681 -84 2626 -87 
Q 2572 -91 2522 -91 
Q 1538 -91 948 567 
Q 359 1225 359 2328 
Q 359 3434 948 4092 
Q 1538 4750 2522 4750 
Q 3503 4750 4090 4092 
Q 4678 3434 4678 2328 
Q 4678 1516 4351 937 
Q 4025 359 3406 84 
z
" transform="scale(0.015625)"/>
        <path id="DejaVuSans-75" d="M 544 1381 
L 544 3500 
L 1119 3500 
L 1119 1403 
Q 1119 906 1312 657 
Q 1506 409 1894 409 
Q 2359 409 2629 706 
Q 2900 1003 2900 1516 
L 2900 3500 
L 3475 3500 
L 3475 0 
L 2900 0 
L 2900 538 
Q 2691 219 2414 64 
Q 2138 -91 1772 -91 
Q 1169 -91 856 284 
Q 544 659 544 1381 
z
M 1991 3584 
L 1991 3584 
z
" transform="scale(0.015625)"/>
        <path id="DejaVuSans-ed" d="M 1322 5119 
L 1944 5119 
L 926 3944 
L 447 3944 
L 1322 5119 
z
M 603 3500 
L 1178 3500 
L 1178 0 
L 603 0 
L 603 3500 
z
M 891 3584 
L 891 3584 
z
" transform="scale(0.015625)"/>
       </defs>
       <use xlink:href="#DejaVuSans-51"/>
       <use xlink:href="#DejaVuSans-75" transform="translate(78.710938 0)"/>
       <use xlink:href="#DejaVuSans-ed" transform="translate(142.089844 0)"/>
       <use xlink:href="#DejaVuSans-32" transform="translate(169.873047 0)"/>
      </g>
     </g>
    </g>
    <g id="xtick_4">
     <g id="line2d_4">
      <g>
       <use xlink:href="#mc3c71053ae" x="310.344125" y="368.122174" style="stroke: #000000; stroke-width: 0.8"/>
      </g>
     </g>
     <g id="text_4">
      <!-- Quí3 -->
      <g transform="translate(292.362621 397.006024) rotate(-45) scale(0.1 -0.1)">
       <defs>
        <path id="DejaVuSans-33" d="M 2597 2516 
Q 3050 2419 3304 2112 
Q 3559 1806 3559 1356 
Q 3559 666 3084 287 
Q 2609 -91 1734 -91 
Q 1441 -91 1130 -33 
Q 819 25 488 141 
L 488 750 
Q 750 597 1062 519 
Q 1375 441 1716 441 
Q 2309 441 2620 675 
Q 2931 909 2931 1356 
Q 2931 1769 2642 2001 
Q 2353 2234 1838 2234 
L 1294 2234 
L 1294 2753 
L 1863 2753 
Q 2328 2753 2575 2939 
Q 2822 3125 2822 3475 
Q 2822 3834 2567 4026 
Q 2313 4219 1838 4219 
Q 1578 4219 1281 4162 
Q 984 4106 628 3988 
L 628 4550 
Q 988 4650 1302 4700 
Q 1616 4750 1894 4750 
Q 2613 4750 3031 4423 
Q 3450 4097 3450 3541 
Q 3450 3153 3228 2886 
Q 3006 2619 2597 2516 
z
" transform="scale(0.015625)"/>
       </defs>
       <use xlink:href="#DejaVuSans-51"/>
       <use xlink:href="#DejaVuSans-75" transform="translate(78.710938 0)"/>
       <use xlink:href="#DejaVuSans-ed" transform="translate(142.089844 0)"/>
       <use xlink:href="#DejaVuSans-33" transform="translate(169.873047 0)"/>
      </g>
     </g>
    </g>
    <g id="xtick_5">
     <g id="line2d_5">
      <g>
       <use xlink:href="#mc3c71053ae" x="385.595125" y="368.122174" style="stroke: #000000; stroke-width: 0.8"/>
      </g>
     </g>
     <g id="text_5">
      <!-- Bk1 -->
      <g transform="translate(370.679591 393.940053) rotate(-45) scale(0.1 -0.1)">
       <defs>
        <path id="DejaVuSans-42" d="M 1259 2228 
L 1259 519 
L 2272 519 
Q 2781 519 3026 730 
Q 3272 941 3272 1375 
Q 3272 1813 3026 2020 
Q 2781 2228 2272 2228 
L 1259 2228 
z
M 1259 4147 
L 1259 2741 
L 2194 2741 
Q 2656 2741 2882 2914 
Q 3109 3088 3109 3444 
Q 3109 3797 2882 3972 
Q 2656 4147 2194 4147 
L 1259 4147 
z
M 628 4666 
L 2241 4666 
Q 2963 4666 3353 4366 
Q 3744 4066 3744 3513 
Q 3744 3084 3544 2831 
Q 3344 2578 2956 2516 
Q 3422 2416 3680 2098 
Q 3938 1781 3938 1306 
Q 3938 681 3513 340 
Q 3088 0 2303 0 
L 628 0 
L 628 4666 
z
" transform="scale(0.015625)"/>
        <path id="DejaVuSans-6b" d="M 581 4863 
L 1159 4863 
L 1159 1991 
L 2875 3500 
L 3609 3500 
L 1753 1863 
L 3688 0 
L 2938 0 
L 1159 1709 
L 1159 0 
L 581 0 
L 581 4863 
z
" transform="scale(0.015625)"/>
       </defs>
       <use xlink:href="#DejaVuSans-42"/>
       <use xlink:href="#DejaVuSans-6b" transform="translate(68.603516 0)"/>
       <use xlink:href="#DejaVuSans-31" transform="translate(126.513672 0)"/>
      </g>
     </g>
    </g>
    <g id="xtick_6">
     <g id="line2d_6">
      <g>
       <use xlink:href="#mc3c71053ae" x="460.846125" y="368.122174" style="stroke: #000000; stroke-width: 0.8"/>
      </g>
     </g>
     <g id="text_6">
      <!-- Bk2 -->
      <g transform="translate(445.930591 393.940053) rotate(-45) scale(0.1 -0.1)">
       <use xlink:href="#DejaVuSans-42"/>
       <use xlink:href="#DejaVuSans-6b" transform="translate(68.603516 0)"/>
       <use xlink:href="#DejaVuSans-32" transform="translate(126.513672 0)"/>
      </g>
     </g>
    </g>
    <g id="xtick_7">
     <g id="line2d_7">
      <g>
       <use xlink:href="#mc3c71053ae" x="536.097125" y="368.122174" style="stroke: #000000; stroke-width: 0.8"/>
      </g>
     </g>
     <g id="text_7">
      <!-- Bk3 -->
      <g transform="translate(521.181591 393.940053) rotate(-45) scale(0.1 -0.1)">
       <use xlink:href="#DejaVuSans-42"/>
       <use xlink:href="#DejaVuSans-6b" transform="translate(68.603516 0)"/>
       <use xlink:href="#DejaVuSans-33" transform="translate(126.513672 0)"/>
      </g>
     </g>
    </g>
    <g id="xtick_8">
     <g id="line2d_8">
      <g>
       <use xlink:href="#mc3c71053ae" x="611.348125" y="368.122174" style="stroke: #000000; stroke-width: 0.8"/>
      </g>
     </g>
     <g id="text_8">
      <!-- Cpst3 -->
      <g transform="translate(589.496316 400.876329) rotate(-45) scale(0.1 -0.1)">
       <use xlink:href="#DejaVuSans-43"/>
       <use xlink:href="#DejaVuSans-70" transform="translate(69.824219 0)"/>
       <use xlink:href="#DejaVuSans-73" transform="translate(133.300781 0)"/>
       <use xlink:href="#DejaVuSans-74" transform="translate(185.400391 0)"/>
       <use xlink:href="#DejaVuSans-33" transform="translate(224.609375 0)"/>
      </g>
     </g>
    </g>
    <g id="xtick_9">
     <g id="line2d_9">
      <g>
       <use xlink:href="#mc3c71053ae" x="686.599125" y="368.122174" style="stroke: #000000; stroke-width: 0.8"/>
      </g>
     </g>
     <g id="text_9">
      <!-- Quí1 -->
      <g transform="translate(668.617621 397.006024) rotate(-45) scale(0.1 -0.1)">
       <use xlink:href="#DejaVuSans-51"/>
       <use xlink:href="#DejaVuSans-75" transform="translate(78.710938 0)"/>
       <use xlink:href="#DejaVuSans-ed" transform="translate(142.089844 0)"/>
       <use xlink:href="#DejaVuSans-31" transform="translate(169.873047 0)"/>
      </g>
     </g>
    </g>
    <g id="xtick_10">
     <g id="line2d_10">
      <g>
       <use xlink:href="#mc3c71053ae" x="761.850125" y="368.122174" style="stroke: #000000; stroke-width: 0.8"/>
      </g>
     </g>
     <g id="text_10">
      <!-- Te2 -->
      <g transform="translate(748.412886 392.461758) rotate(-45) scale(0.1 -0.1)">
       <defs>
        <path id="DejaVuSans-54" d="M -19 4666 
L 3928 4666 
L 3928 4134 
L 2272 4134 
L 2272 0 
L 1638 0 
L 1638 4134 
L -19 4134 
L -19 4666 
z
" transform="scale(0.015625)"/>
        <path id="DejaVuSans-65" d="M 3597 1894 
L 3597 1613 
L 953 1613 
Q 991 1019 1311 708 
Q 1631 397 2203 397 
Q 2534 397 2845 478 
Q 3156 559 3463 722 
L 3463 178 
Q 3153 47 2828 -22 
Q 2503 -91 2169 -91 
Q 1331 -91 842 396 
Q 353 884 353 1716 
Q 353 2575 817 3079 
Q 1281 3584 2069 3584 
Q 2775 3584 3186 3129 
Q 3597 2675 3597 1894 
z
M 3022 2063 
Q 3016 2534 2758 2815 
Q 2500 3097 2075 3097 
Q 1594 3097 1305 2825 
Q 1016 2553 972 2059 
L 3022 2063 
z
" transform="scale(0.015625)"/>
       </defs>
       <use xlink:href="#DejaVuSans-54"/>
       <use xlink:href="#DejaVuSans-65" transform="translate(44.083984 0)"/>
       <use xlink:href="#DejaVuSans-32" transform="translate(105.607422 0)"/>
      </g>
     </g>
    </g>
    <g id="text_11">
     <!-- Muestra -->
     <g transform="translate(402.976875 413.945327) scale(0.1 -0.1)">
      <defs>
       <path id="DejaVuSans-4d" d="M 628 4666 
L 1569 4666 
L 2759 1491 
L 3956 4666 
L 4897 4666 
L 4897 0 
L 4281 0 
L 4281 4097 
L 3078 897 
L 2444 897 
L 1241 4097 
L 1241 0 
L 628 0 
L 628 4666 
z
" transform="scale(0.015625)"/>
       <path id="DejaVuSans-72" d="M 2631 2963 
Q 2534 3019 2420 3045 
Q 2306 3072 2169 3072 
Q 1681 3072 1420 2755 
Q 1159 2438 1159 1844 
L 1159 0 
L 581 0 
L 581 3500 
L 1159 3500 
L 1159 2956 
Q 1341 3275 1631 3429 
Q 1922 3584 2338 3584 
Q 2397 3584 2469 3576 
Q 2541 3569 2628 3553 
L 2631 2963 
z
" transform="scale(0.015625)"/>
       <path id="DejaVuSans-61" d="M 2194 1759 
Q 1497 1759 1228 1600 
Q 959 1441 959 1056 
Q 959 750 1161 570 
Q 1363 391 1709 391 
Q 2188 391 2477 730 
Q 2766 1069 2766 1631 
L 2766 1759 
L 2194 1759 
z
M 3341 1997 
L 3341 0 
L 2766 0 
L 2766 531 
Q 2569 213 2275 61 
Q 1981 -91 1556 -91 
Q 1019 -91 701 211 
Q 384 513 384 1019 
Q 384 1609 779 1909 
Q 1175 2209 1959 2209 
L 2766 2209 
L 2766 2266 
Q 2766 2663 2505 2880 
Q 2244 3097 1772 3097 
Q 1472 3097 1187 3025 
Q 903 2953 641 2809 
L 641 3341 
Q 956 3463 1253 3523 
Q 1550 3584 1831 3584 
Q 2591 3584 2966 3190 
Q 3341 2797 3341 1997 
z
" transform="scale(0.015625)"/>
      </defs>
      <use xlink:href="#DejaVuSans-4d"/>
      <use xlink:href="#DejaVuSans-75" transform="translate(86.279297 0)"/>
      <use xlink:href="#DejaVuSans-65" transform="translate(149.658203 0)"/>
      <use xlink:href="#DejaVuSans-73" transform="translate(211.181641 0)"/>
      <use xlink:href="#DejaVuSans-74" transform="translate(263.28125 0)"/>
      <use xlink:href="#DejaVuSans-72" transform="translate(302.490234 0)"/>
      <use xlink:href="#DejaVuSans-61" transform="translate(343.603516 0)"/>
     </g>
    </g>
   </g>
   <g id="matplotlib.axis_2">
    <g id="ytick_1">
     <g id="line2d_11">
      <defs>
       <path id="m8bf12f3e3a" d="M 0 0 
L -3.5 0 
" style="stroke: #000000; stroke-width: 0.8"/>
      </defs>
      <g>
       <use xlink:href="#m8bf12f3e3a" x="46.965625" y="368.122174" style="stroke: #000000; stroke-width: 0.8"/>
      </g>
     </g>
     <g id="text_12">
      <!-- 0 -->
      <g transform="translate(33.603125 371.921392) scale(0.1 -0.1)">
       <defs>
        <path id="DejaVuSans-30" d="M 2034 4250 
Q 1547 4250 1301 3770 
Q 1056 3291 1056 2328 
Q 1056 1369 1301 889 
Q 1547 409 2034 409 
Q 2525 409 2770 889 
Q 3016 1369 3016 2328 
Q 3016 3291 2770 3770 
Q 2525 4250 2034 4250 
z
M 2034 4750 
Q 2819 4750 3233 4129 
Q 3647 3509 3647 2328 
Q 3647 1150 3233 529 
Q 2819 -91 2034 -91 
Q 1250 -91 836 529 
Q 422 1150 422 2328 
Q 422 3509 836 4129 
Q 1250 4750 2034 4750 
z
" transform="scale(0.015625)"/>
       </defs>
       <use xlink:href="#DejaVuSans-30"/>
      </g>
     </g>
    </g>
    <g id="ytick_2">
     <g id="line2d_12">
      <g>
       <use xlink:href="#m8bf12f3e3a" x="46.965625" y="302.346169" style="stroke: #000000; stroke-width: 0.8"/>
      </g>
     </g>
     <g id="text_13">
      <!-- 20 -->
      <g transform="translate(27.240625 306.145387) scale(0.1 -0.1)">
       <use xlink:href="#DejaVuSans-32"/>
       <use xlink:href="#DejaVuSans-30" transform="translate(63.623047 0)"/>
      </g>
     </g>
    </g>
    <g id="ytick_3">
     <g id="line2d_13">
      <g>
       <use xlink:href="#m8bf12f3e3a" x="46.965625" y="236.570164" style="stroke: #000000; stroke-width: 0.8"/>
      </g>
     </g>
     <g id="text_14">
      <!-- 40 -->
      <g transform="translate(27.240625 240.369382) scale(0.1 -0.1)">
       <defs>
        <path id="DejaVuSans-34" d="M 2419 4116 
L 825 1625 
L 2419 1625 
L 2419 4116 
z
M 2253 4666 
L 3047 4666 
L 3047 1625 
L 3713 1625 
L 3713 1100 
L 3047 1100 
L 3047 0 
L 2419 0 
L 2419 1100 
L 313 1100 
L 313 1709 
L 2253 4666 
z
" transform="scale(0.015625)"/>
       </defs>
       <use xlink:href="#DejaVuSans-34"/>
       <use xlink:href="#DejaVuSans-30" transform="translate(63.623047 0)"/>
      </g>
     </g>
    </g>
    <g id="ytick_4">
     <g id="line2d_14">
      <g>
       <use xlink:href="#m8bf12f3e3a" x="46.965625" y="170.794159" style="stroke: #000000; stroke-width: 0.8"/>
      </g>
     </g>
     <g id="text_15">
      <!-- 60 -->
      <g transform="translate(27.240625 174.593377) scale(0.1 -0.1)">
       <defs>
        <path id="DejaVuSans-36" d="M 2113 2584 
Q 1688 2584 1439 2293 
Q 1191 2003 1191 1497 
Q 1191 994 1439 701 
Q 1688 409 2113 409 
Q 2538 409 2786 701 
Q 3034 994 3034 1497 
Q 3034 2003 2786 2293 
Q 2538 2584 2113 2584 
z
M 3366 4563 
L 3366 3988 
Q 3128 4100 2886 4159 
Q 2644 4219 2406 4219 
Q 1781 4219 1451 3797 
Q 1122 3375 1075 2522 
Q 1259 2794 1537 2939 
Q 1816 3084 2150 3084 
Q 2853 3084 3261 2657 
Q 3669 2231 3669 1497 
Q 3669 778 3244 343 
Q 2819 -91 2113 -91 
Q 1303 -91 875 529 
Q 447 1150 447 2328 
Q 447 3434 972 4092 
Q 1497 4750 2381 4750 
Q 2619 4750 2861 4703 
Q 3103 4656 3366 4563 
z
" transform="scale(0.015625)"/>
       </defs>
       <use xlink:href="#DejaVuSans-36"/>
       <use xlink:href="#DejaVuSans-30" transform="translate(63.623047 0)"/>
      </g>
     </g>
    </g>
    <g id="ytick_5">
     <g id="line2d_15">
      <g>
       <use xlink:href="#m8bf12f3e3a" x="46.965625" y="105.018154" style="stroke: #000000; stroke-width: 0.8"/>
      </g>
     </g>
     <g id="text_16">
      <!-- 80 -->
      <g transform="translate(27.240625 108.817372) scale(0.1 -0.1)">
       <defs>
        <path id="DejaVuSans-38" d="M 2034 2216 
Q 1584 2216 1326 1975 
Q 1069 1734 1069 1313 
Q 1069 891 1326 650 
Q 1584 409 2034 409 
Q 2484 409 2743 651 
Q 3003 894 3003 1313 
Q 3003 1734 2745 1975 
Q 2488 2216 2034 2216 
z
M 1403 2484 
Q 997 2584 770 2862 
Q 544 3141 544 3541 
Q 544 4100 942 4425 
Q 1341 4750 2034 4750 
Q 2731 4750 3128 4425 
Q 3525 4100 3525 3541 
Q 3525 3141 3298 2862 
Q 3072 2584 2669 2484 
Q 3125 2378 3379 2068 
Q 3634 1759 3634 1313 
Q 3634 634 3220 271 
Q 2806 -91 2034 -91 
Q 1263 -91 848 271 
Q 434 634 434 1313 
Q 434 1759 690 2068 
Q 947 2378 1403 2484 
z
M 1172 3481 
Q 1172 3119 1398 2916 
Q 1625 2713 2034 2713 
Q 2441 2713 2670 2916 
Q 2900 3119 2900 3481 
Q 2900 3844 2670 4047 
Q 2441 4250 2034 4250 
Q 1625 4250 1398 4047 
Q 1172 3844 1172 3481 
z
" transform="scale(0.015625)"/>
       </defs>
       <use xlink:href="#DejaVuSans-38"/>
       <use xlink:href="#DejaVuSans-30" transform="translate(63.623047 0)"/>
      </g>
     </g>
    </g>
    <g id="ytick_6">
     <g id="line2d_16">
      <g>
       <use xlink:href="#m8bf12f3e3a" x="46.965625" y="39.242148" style="stroke: #000000; stroke-width: 0.8"/>
      </g>
     </g>
     <g id="text_17">
      <!-- 100 -->
      <g transform="translate(20.878125 43.041367) scale(0.1 -0.1)">
       <use xlink:href="#DejaVuSans-31"/>
       <use xlink:href="#DejaVuSans-30" transform="translate(63.623047 0)"/>
       <use xlink:href="#DejaVuSans-30" transform="translate(127.246094 0)"/>
      </g>
     </g>
    </g>
    <g id="text_18">
     <!-- Abundancia relativa (%) -->
     <g transform="translate(14.798438 255.677337) rotate(-90) scale(0.1 -0.1)">
      <defs>
       <path id="DejaVuSans-41" d="M 2188 4044 
L 1331 1722 
L 3047 1722 
L 2188 4044 
z
M 1831 4666 
L 2547 4666 
L 4325 0 
L 3669 0 
L 3244 1197 
L 1141 1197 
L 716 0 
L 50 0 
L 1831 4666 
z
" transform="scale(0.015625)"/>
       <path id="DejaVuSans-62" d="M 3116 1747 
Q 3116 2381 2855 2742 
Q 2594 3103 2138 3103 
Q 1681 3103 1420 2742 
Q 1159 2381 1159 1747 
Q 1159 1113 1420 752 
Q 1681 391 2138 391 
Q 2594 391 2855 752 
Q 3116 1113 3116 1747 
z
M 1159 2969 
Q 1341 3281 1617 3432 
Q 1894 3584 2278 3584 
Q 2916 3584 3314 3078 
Q 3713 2572 3713 1747 
Q 3713 922 3314 415 
Q 2916 -91 2278 -91 
Q 1894 -91 1617 61 
Q 1341 213 1159 525 
L 1159 0 
L 581 0 
L 581 4863 
L 1159 4863 
L 1159 2969 
z
" transform="scale(0.015625)"/>
       <path id="DejaVuSans-6e" d="M 3513 2113 
L 3513 0 
L 2938 0 
L 2938 2094 
Q 2938 2591 2744 2837 
Q 2550 3084 2163 3084 
Q 1697 3084 1428 2787 
Q 1159 2491 1159 1978 
L 1159 0 
L 581 0 
L 581 3500 
L 1159 3500 
L 1159 2956 
Q 1366 3272 1645 3428 
Q 1925 3584 2291 3584 
Q 2894 3584 3203 3211 
Q 3513 2838 3513 2113 
z
" transform="scale(0.015625)"/>
       <path id="DejaVuSans-64" d="M 2906 2969 
L 2906 4863 
L 3481 4863 
L 3481 0 
L 2906 0 
L 2906 525 
Q 2725 213 2448 61 
Q 2172 -91 1784 -91 
Q 1150 -91 751 415 
Q 353 922 353 1747 
Q 353 2572 751 3078 
Q 1150 3584 1784 3584 
Q 2172 3584 2448 3432 
Q 2725 3281 2906 2969 
z
M 947 1747 
Q 947 1113 1208 752 
Q 1469 391 1925 391 
Q 2381 391 2643 752 
Q 2906 1113 2906 1747 
Q 2906 2381 2643 2742 
Q 2381 3103 1925 3103 
Q 1469 3103 1208 2742 
Q 947 2381 947 1747 
z
" transform="scale(0.015625)"/>
       <path id="DejaVuSans-63" d="M 3122 3366 
L 3122 2828 
Q 2878 2963 2633 3030 
Q 2388 3097 2138 3097 
Q 1578 3097 1268 2742 
Q 959 2388 959 1747 
Q 959 1106 1268 751 
Q 1578 397 2138 397 
Q 2388 397 2633 464 
Q 2878 531 3122 666 
L 3122 134 
Q 2881 22 2623 -34 
Q 2366 -91 2075 -91 
Q 1284 -91 818 406 
Q 353 903 353 1747 
Q 353 2603 823 3093 
Q 1294 3584 2113 3584 
Q 2378 3584 2631 3529 
Q 2884 3475 3122 3366 
z
" transform="scale(0.015625)"/>
       <path id="DejaVuSans-69" d="M 603 3500 
L 1178 3500 
L 1178 0 
L 603 0 
L 603 3500 
z
M 603 4863 
L 1178 4863 
L 1178 4134 
L 603 4134 
L 603 4863 
z
" transform="scale(0.015625)"/>
       <path id="DejaVuSans-20" transform="scale(0.015625)"/>
       <path id="DejaVuSans-6c" d="M 603 4863 
L 1178 4863 
L 1178 0 
L 603 0 
L 603 4863 
z
" transform="scale(0.015625)"/>
       <path id="DejaVuSans-76" d="M 191 3500 
L 800 3500 
L 1894 563 
L 2988 3500 
L 3597 3500 
L 2284 0 
L 1503 0 
L 191 3500 
z
" transform="scale(0.015625)"/>
       <path id="DejaVuSans-28" d="M 1984 4856 
Q 1566 4138 1362 3434 
Q 1159 2731 1159 2009 
Q 1159 1288 1364 580 
Q 1569 -128 1984 -844 
L 1484 -844 
Q 1016 -109 783 600 
Q 550 1309 550 2009 
Q 550 2706 781 3412 
Q 1013 4119 1484 4856 
L 1984 4856 
z
" transform="scale(0.015625)"/>
       <path id="DejaVuSans-25" d="M 4653 2053 
Q 4381 2053 4226 1822 
Q 4072 1591 4072 1178 
Q 4072 772 4226 539 
Q 4381 306 4653 306 
Q 4919 306 5073 539 
Q 5228 772 5228 1178 
Q 5228 1588 5073 1820 
Q 4919 2053 4653 2053 
z
M 4653 2450 
Q 5147 2450 5437 2106 
Q 5728 1763 5728 1178 
Q 5728 594 5436 251 
Q 5144 -91 4653 -91 
Q 4153 -91 3862 251 
Q 3572 594 3572 1178 
Q 3572 1766 3864 2108 
Q 4156 2450 4653 2450 
z
M 1428 4353 
Q 1159 4353 1004 4120 
Q 850 3888 850 3481 
Q 850 3069 1003 2837 
Q 1156 2606 1428 2606 
Q 1700 2606 1854 2837 
Q 2009 3069 2009 3481 
Q 2009 3884 1853 4118 
Q 1697 4353 1428 4353 
z
M 4250 4750 
L 4750 4750 
L 1831 -91 
L 1331 -91 
L 4250 4750 
z
M 1428 4750 
Q 1922 4750 2215 4408 
Q 2509 4066 2509 3481 
Q 2509 2891 2217 2550 
Q 1925 2209 1428 2209 
Q 931 2209 642 2551 
Q 353 2894 353 3481 
Q 353 4063 643 4406 
Q 934 4750 1428 4750 
z
" transform="scale(0.015625)"/>
       <path id="DejaVuSans-29" d="M 513 4856 
L 1013 4856 
Q 1481 4119 1714 3412 
Q 1947 2706 1947 2009 
Q 1947 1309 1714 600 
Q 1481 -109 1013 -844 
L 513 -844 
Q 928 -128 1133 580 
Q 1338 1288 1338 2009 
Q 1338 2731 1133 3434 
Q 928 4138 513 4856 
z
" transform="scale(0.015625)"/>
      </defs>
      <use xlink:href="#DejaVuSans-41"/>
      <use xlink:href="#DejaVuSans-62" transform="translate(68.408203 0)"/>
      <use xlink:href="#DejaVuSans-75" transform="translate(131.884766 0)"/>
      <use xlink:href="#DejaVuSans-6e" transform="translate(195.263672 0)"/>
      <use xlink:href="#DejaVuSans-64" transform="translate(258.642578 0)"/>
      <use xlink:href="#DejaVuSans-61" transform="translate(322.119141 0)"/>
      <use xlink:href="#DejaVuSans-6e" transform="translate(383.398438 0)"/>
      <use xlink:href="#DejaVuSans-63" transform="translate(446.777344 0)"/>
      <use xlink:href="#DejaVuSans-69" transform="translate(501.757812 0)"/>
      <use xlink:href="#DejaVuSans-61" transform="translate(529.541016 0)"/>
      <use xlink:href="#DejaVuSans-20" transform="translate(590.820312 0)"/>
      <use xlink:href="#DejaVuSans-72" transform="translate(622.607422 0)"/>
      <use xlink:href="#DejaVuSans-65" transform="translate(661.470703 0)"/>
      <use xlink:href="#DejaVuSans-6c" transform="translate(722.994141 0)"/>
      <use xlink:href="#DejaVuSans-61" transform="translate(750.777344 0)"/>
      <use xlink:href="#DejaVuSans-74" transform="translate(812.056641 0)"/>
      <use xlink:href="#DejaVuSans-69" transform="translate(851.265625 0)"/>
      <use xlink:href="#DejaVuSans-76" transform="translate(879.048828 0)"/>
      <use xlink:href="#DejaVuSans-61" transform="translate(938.228516 0)"/>
      <use xlink:href="#DejaVuSans-20" transform="translate(999.507812 0)"/>
      <use xlink:href="#DejaVuSans-28" transform="translate(1031.294922 0)"/>
      <use xlink:href="#DejaVuSans-25" transform="translate(1070.308594 0)"/>
      <use xlink:href="#DejaVuSans-29" transform="translate(1165.328125 0)"/>
     </g>
    </g>
   </g>
   <g id="patch_113">
    <path d="M 46.965625 368.122174 
L 46.965625 22.798125 
" style="fill: none; stroke: #000000; stroke-width: 0.8; stroke-linejoin: miter; stroke-linecap: square"/>
   </g>
   <g id="patch_114">
    <path d="M 799.475625 368.122174 
L 799.475625 22.798125 
" style="fill: none; stroke: #000000; stroke-width: 0.8; stroke-linejoin: miter; stroke-linecap: square"/>
   </g>
   <g id="patch_115">
    <path d="M 46.965625 368.122174 
L 799.475625 368.122174 
" style="fill: none; stroke: #000000; stroke-width: 0.8; stroke-linejoin: miter; stroke-linecap: square"/>
   </g>
   <g id="patch_116">
    <path d="M 46.965625 22.798125 
L 799.475625 22.798125 
" style="fill: none; stroke: #000000; stroke-width: 0.8; stroke-linejoin: miter; stroke-linecap: square"/>
   </g>
   <g id="text_19">
    <!-- Composición taxonómica - suelos2 - phylum -->
    <g transform="translate(290.53625 16.798125) scale(0.12 -0.12)">
     <defs>
      <path id="DejaVuSans-6f" d="M 1959 3097 
Q 1497 3097 1228 2736 
Q 959 2375 959 1747 
Q 959 1119 1226 758 
Q 1494 397 1959 397 
Q 2419 397 2687 759 
Q 2956 1122 2956 1747 
Q 2956 2369 2687 2733 
Q 2419 3097 1959 3097 
z
M 1959 3584 
Q 2709 3584 3137 3096 
Q 3566 2609 3566 1747 
Q 3566 888 3137 398 
Q 2709 -91 1959 -91 
Q 1206 -91 779 398 
Q 353 888 353 1747 
Q 353 2609 779 3096 
Q 1206 3584 1959 3584 
z
" transform="scale(0.015625)"/>
      <path id="DejaVuSans-6d" d="M 3328 2828 
Q 3544 3216 3844 3400 
Q 4144 3584 4550 3584 
Q 5097 3584 5394 3201 
Q 5691 2819 5691 2113 
L 5691 0 
L 5113 0 
L 5113 2094 
Q 5113 2597 4934 2840 
Q 4756 3084 4391 3084 
Q 3944 3084 3684 2787 
Q 3425 2491 3425 1978 
L 3425 0 
L 2847 0 
L 2847 2094 
Q 2847 2600 2669 2842 
Q 2491 3084 2119 3084 
Q 1678 3084 1418 2786 
Q 1159 2488 1159 1978 
L 1159 0 
L 581 0 
L 581 3500 
L 1159 3500 
L 1159 2956 
Q 1356 3278 1631 3431 
Q 1906 3584 2284 3584 
Q 2666 3584 2933 3390 
Q 3200 3197 3328 2828 
z
" transform="scale(0.015625)"/>
      <path id="DejaVuSans-f3" d="M 1959 3097 
Q 1497 3097 1228 2736 
Q 959 2375 959 1747 
Q 959 1119 1226 758 
Q 1494 397 1959 397 
Q 2419 397 2687 759 
Q 2956 1122 2956 1747 
Q 2956 2369 2687 2733 
Q 2419 3097 1959 3097 
z
M 1959 3584 
Q 2709 3584 3137 3096 
Q 3566 2609 3566 1747 
Q 3566 888 3137 398 
Q 2709 -91 1959 -91 
Q 1206 -91 779 398 
Q 353 888 353 1747 
Q 353 2609 779 3096 
Q 1206 3584 1959 3584 
z
M 2394 5119 
L 3016 5119 
L 1998 3944 
L 1519 3944 
L 2394 5119 
z
" transform="scale(0.015625)"/>
      <path id="DejaVuSans-78" d="M 3513 3500 
L 2247 1797 
L 3578 0 
L 2900 0 
L 1881 1375 
L 863 0 
L 184 0 
L 1544 1831 
L 300 3500 
L 978 3500 
L 1906 2253 
L 2834 3500 
L 3513 3500 
z
" transform="scale(0.015625)"/>
      <path id="DejaVuSans-2d" d="M 313 2009 
L 1997 2009 
L 1997 1497 
L 313 1497 
L 313 2009 
z
" transform="scale(0.015625)"/>
      <path id="DejaVuSans-68" d="M 3513 2113 
L 3513 0 
L 2938 0 
L 2938 2094 
Q 2938 2591 2744 2837 
Q 2550 3084 2163 3084 
Q 1697 3084 1428 2787 
Q 1159 2491 1159 1978 
L 1159 0 
L 581 0 
L 581 4863 
L 1159 4863 
L 1159 2956 
Q 1366 3272 1645 3428 
Q 1925 3584 2291 3584 
Q 2894 3584 3203 3211 
Q 3513 2838 3513 2113 
z
" transform="scale(0.015625)"/>
      <path id="DejaVuSans-79" d="M 2059 -325 
Q 1816 -950 1584 -1140 
Q 1353 -1331 966 -1331 
L 506 -1331 
L 506 -850 
L 844 -850 
Q 1081 -850 1212 -737 
Q 1344 -625 1503 -206 
L 1606 56 
L 191 3500 
L 800 3500 
L 1894 763 
L 2988 3500 
L 3597 3500 
L 2059 -325 
z
" transform="scale(0.015625)"/>
     </defs>
     <use xlink:href="#DejaVuSans-43"/>
     <use xlink:href="#DejaVuSans-6f" transform="translate(69.824219 0)"/>
     <use xlink:href="#DejaVuSans-6d" transform="translate(131.005859 0)"/>
     <use xlink:href="#DejaVuSans-70" transform="translate(228.417969 0)"/>
     <use xlink:href="#DejaVuSans-6f" transform="translate(291.894531 0)"/>
     <use xlink:href="#DejaVuSans-73" transform="translate(353.076172 0)"/>
     <use xlink:href="#DejaVuSans-69" transform="translate(405.175781 0)"/>
     <use xlink:href="#DejaVuSans-63" transform="translate(432.958984 0)"/>
     <use xlink:href="#DejaVuSans-69" transform="translate(487.939453 0)"/>
     <use xlink:href="#DejaVuSans-f3" transform="translate(515.722656 0)"/>
     <use xlink:href="#DejaVuSans-6e" transform="translate(576.904297 0)"/>
     <use xlink:href="#DejaVuSans-20" transform="translate(640.283203 0)"/>
     <use xlink:href="#DejaVuSans-74" transform="translate(672.070312 0)"/>
     <use xlink:href="#DejaVuSans-61" transform="translate(711.279297 0)"/>
     <use xlink:href="#DejaVuSans-78" transform="translate(772.558594 0)"/>
     <use xlink:href="#DejaVuSans-6f" transform="translate(828.613281 0)"/>
     <use xlink:href="#DejaVuSans-6e" transform="translate(889.794922 0)"/>
     <use xlink:href="#DejaVuSans-f3" transform="translate(953.173828 0)"/>
     <use xlink:href="#DejaVuSans-6d" transform="translate(1014.355469 0)"/>
     <use xlink:href="#DejaVuSans-69" transform="translate(1111.767578 0)"/>
     <use xlink:href="#DejaVuSans-63" transform="translate(1139.550781 0)"/>
     <use xlink:href="#DejaVuSans-61" transform="translate(1194.53125 0)"/>
     <use xlink:href="#DejaVuSans-20" transform="translate(1255.810547 0)"/>
     <use xlink:href="#DejaVuSans-2d" transform="translate(1287.597656 0)"/>
     <use xlink:href="#DejaVuSans-20" transform="translate(1323.681641 0)"/>
     <use xlink:href="#DejaVuSans-73" transform="translate(1355.46875 0)"/>
     <use xlink:href="#DejaVuSans-75" transform="translate(1407.568359 0)"/>
     <use xlink:href="#DejaVuSans-65" transform="translate(1470.947266 0)"/>
     <use xlink:href="#DejaVuSans-6c" transform="translate(1532.470703 0)"/>
     <use xlink:href="#DejaVuSans-6f" transform="translate(1560.253906 0)"/>
     <use xlink:href="#DejaVuSans-73" transform="translate(1621.435547 0)"/>
     <use xlink:href="#DejaVuSans-32" transform="translate(1673.535156 0)"/>
     <use xlink:href="#DejaVuSans-20" transform="translate(1737.158203 0)"/>
     <use xlink:href="#DejaVuSans-2d" transform="translate(1768.945312 0)"/>
     <use xlink:href="#DejaVuSans-20" transform="translate(1805.029297 0)"/>
     <use xlink:href="#DejaVuSans-70" transform="translate(1836.816406 0)"/>
     <use xlink:href="#DejaVuSans-68" transform="translate(1900.292969 0)"/>
     <use xlink:href="#DejaVuSans-79" transform="translate(1963.671875 0)"/>
     <use xlink:href="#DejaVuSans-6c" transform="translate(2022.851562 0)"/>
     <use xlink:href="#DejaVuSans-75" transform="translate(2050.634766 0)"/>
     <use xlink:href="#DejaVuSans-6d" transform="translate(2114.013672 0)"/>
    </g>
   </g>
   <g id="legend_1">
    <g id="patch_117">
     <path d="M 844.101125 195.03875 
L 989.499563 195.03875 
Q 991.499563 195.03875 991.499563 193.03875 
L 991.499563 29.798125 
Q 991.499563 27.798125 989.499563 27.798125 
L 844.101125 27.798125 
Q 842.101125 27.798125 842.101125 29.798125 
L 842.101125 193.03875 
Q 842.101125 195.03875 844.101125 195.03875 
z
" style="fill: #ffffff; opacity: 0.8; stroke: #cccccc; stroke-linejoin: miter"/>
    </g>
    <g id="patch_118">
     <path d="M 846.101125 39.396562 
L 866.101125 39.396562 
L 866.101125 32.396562 
L 846.101125 32.396562 
z
" style="fill: #1f77b4"/>
    </g>
    <g id="text_20">
     <!-- p__Pseudomonadota -->
     <g transform="translate(874.101125 39.396562) scale(0.1 -0.1)">
      <defs>
       <path id="DejaVuSans-5f" d="M 3263 -1063 
L 3263 -1509 
L -63 -1509 
L -63 -1063 
L 3263 -1063 
z
" transform="scale(0.015625)"/>
       <path id="DejaVuSans-50" d="M 1259 4147 
L 1259 2394 
L 2053 2394 
Q 2494 2394 2734 2622 
Q 2975 2850 2975 3272 
Q 2975 3691 2734 3919 
Q 2494 4147 2053 4147 
L 1259 4147 
z
M 628 4666 
L 2053 4666 
Q 2838 4666 3239 4311 
Q 3641 3956 3641 3272 
Q 3641 2581 3239 2228 
Q 2838 1875 2053 1875 
L 1259 1875 
L 1259 0 
L 628 0 
L 628 4666 
z
" transform="scale(0.015625)"/>
      </defs>
      <use xlink:href="#DejaVuSans-70"/>
      <use xlink:href="#DejaVuSans-5f" transform="translate(63.476562 0)"/>
      <use xlink:href="#DejaVuSans-5f" transform="translate(113.476562 0)"/>
      <use xlink:href="#DejaVuSans-50" transform="translate(163.476562 0)"/>
      <use xlink:href="#DejaVuSans-73" transform="translate(222.029297 0)"/>
      <use xlink:href="#DejaVuSans-65" transform="translate(274.128906 0)"/>
      <use xlink:href="#DejaVuSans-75" transform="translate(335.652344 0)"/>
      <use xlink:href="#DejaVuSans-64" transform="translate(399.03125 0)"/>
      <use xlink:href="#DejaVuSans-6f" transform="translate(462.507812 0)"/>
      <use xlink:href="#DejaVuSans-6d" transform="translate(523.689453 0)"/>
      <use xlink:href="#DejaVuSans-6f" transform="translate(621.101562 0)"/>
      <use xlink:href="#DejaVuSans-6e" transform="translate(682.283203 0)"/>
      <use xlink:href="#DejaVuSans-61" transform="translate(745.662109 0)"/>
      <use xlink:href="#DejaVuSans-64" transform="translate(806.941406 0)"/>
      <use xlink:href="#DejaVuSans-6f" transform="translate(870.417969 0)"/>
      <use xlink:href="#DejaVuSans-74" transform="translate(931.599609 0)"/>
      <use xlink:href="#DejaVuSans-61" transform="translate(970.808594 0)"/>
     </g>
    </g>
    <g id="patch_119">
     <path d="M 846.101125 54.352812 
L 866.101125 54.352812 
L 866.101125 47.352812 
L 846.101125 47.352812 
z
" style="fill: #ff7f0e"/>
    </g>
    <g id="text_21">
     <!-- p__Actinomycetota -->
     <g transform="translate(874.101125 54.352812) scale(0.1 -0.1)">
      <use xlink:href="#DejaVuSans-70"/>
      <use xlink:href="#DejaVuSans-5f" transform="translate(63.476562 0)"/>
      <use xlink:href="#DejaVuSans-5f" transform="translate(113.476562 0)"/>
      <use xlink:href="#DejaVuSans-41" transform="translate(163.476562 0)"/>
      <use xlink:href="#DejaVuSans-63" transform="translate(230.134766 0)"/>
      <use xlink:href="#DejaVuSans-74" transform="translate(285.115234 0)"/>
      <use xlink:href="#DejaVuSans-69" transform="translate(324.324219 0)"/>
      <use xlink:href="#DejaVuSans-6e" transform="translate(352.107422 0)"/>
      <use xlink:href="#DejaVuSans-6f" transform="translate(415.486328 0)"/>
      <use xlink:href="#DejaVuSans-6d" transform="translate(476.667969 0)"/>
      <use xlink:href="#DejaVuSans-79" transform="translate(574.080078 0)"/>
      <use xlink:href="#DejaVuSans-63" transform="translate(633.259766 0)"/>
      <use xlink:href="#DejaVuSans-65" transform="translate(688.240234 0)"/>
      <use xlink:href="#DejaVuSans-74" transform="translate(749.763672 0)"/>
      <use xlink:href="#DejaVuSans-6f" transform="translate(788.972656 0)"/>
      <use xlink:href="#DejaVuSans-74" transform="translate(850.154297 0)"/>
      <use xlink:href="#DejaVuSans-61" transform="translate(889.363281 0)"/>
     </g>
    </g>
    <g id="patch_120">
     <path d="M 846.101125 69.309062 
L 866.101125 69.309062 
L 866.101125 62.309062 
L 846.101125 62.309062 
z
" style="fill: #2ca02c"/>
    </g>
    <g id="text_22">
     <!-- p__Acidobacteriota -->
     <g transform="translate(874.101125 69.309062) scale(0.1 -0.1)">
      <use xlink:href="#DejaVuSans-70"/>
      <use xlink:href="#DejaVuSans-5f" transform="translate(63.476562 0)"/>
      <use xlink:href="#DejaVuSans-5f" transform="translate(113.476562 0)"/>
      <use xlink:href="#DejaVuSans-41" transform="translate(163.476562 0)"/>
      <use xlink:href="#DejaVuSans-63" transform="translate(230.134766 0)"/>
      <use xlink:href="#DejaVuSans-69" transform="translate(285.115234 0)"/>
      <use xlink:href="#DejaVuSans-64" transform="translate(312.898438 0)"/>
      <use xlink:href="#DejaVuSans-6f" transform="translate(376.375 0)"/>
      <use xlink:href="#DejaVuSans-62" transform="translate(437.556641 0)"/>
      <use xlink:href="#DejaVuSans-61" transform="translate(501.033203 0)"/>
      <use xlink:href="#DejaVuSans-63" transform="translate(562.3125 0)"/>
      <use xlink:href="#DejaVuSans-74" transform="translate(617.292969 0)"/>
      <use xlink:href="#DejaVuSans-65" transform="translate(656.501953 0)"/>
      <use xlink:href="#DejaVuSans-72" transform="translate(718.025391 0)"/>
      <use xlink:href="#DejaVuSans-69" transform="translate(759.138672 0)"/>
      <use xlink:href="#DejaVuSans-6f" transform="translate(786.921875 0)"/>
      <use xlink:href="#DejaVuSans-74" transform="translate(848.103516 0)"/>
      <use xlink:href="#DejaVuSans-61" transform="translate(887.3125 0)"/>
     </g>
    </g>
    <g id="patch_121">
     <path d="M 846.101125 84.265312 
L 866.101125 84.265312 
L 866.101125 77.265312 
L 846.101125 77.265312 
z
" style="fill: #d62728"/>
    </g>
    <g id="text_23">
     <!-- p__Bacteroidota -->
     <g transform="translate(874.101125 84.265312) scale(0.1 -0.1)">
      <use xlink:href="#DejaVuSans-70"/>
      <use xlink:href="#DejaVuSans-5f" transform="translate(63.476562 0)"/>
      <use xlink:href="#DejaVuSans-5f" transform="translate(113.476562 0)"/>
      <use xlink:href="#DejaVuSans-42" transform="translate(163.476562 0)"/>
      <use xlink:href="#DejaVuSans-61" transform="translate(232.080078 0)"/>
      <use xlink:href="#DejaVuSans-63" transform="translate(293.359375 0)"/>
      <use xlink:href="#DejaVuSans-74" transform="translate(348.339844 0)"/>
      <use xlink:href="#DejaVuSans-65" transform="translate(387.548828 0)"/>
      <use xlink:href="#DejaVuSans-72" transform="translate(449.072266 0)"/>
      <use xlink:href="#DejaVuSans-6f" transform="translate(487.935547 0)"/>
      <use xlink:href="#DejaVuSans-69" transform="translate(549.117188 0)"/>
      <use xlink:href="#DejaVuSans-64" transform="translate(576.900391 0)"/>
      <use xlink:href="#DejaVuSans-6f" transform="translate(640.376953 0)"/>
      <use xlink:href="#DejaVuSans-74" transform="translate(701.558594 0)"/>
      <use xlink:href="#DejaVuSans-61" transform="translate(740.767578 0)"/>
     </g>
    </g>
    <g id="patch_122">
     <path d="M 846.101125 99.221562 
L 866.101125 99.221562 
L 866.101125 92.221562 
L 846.101125 92.221562 
z
" style="fill: #9467bd"/>
    </g>
    <g id="text_24">
     <!-- p__Chloroflexota -->
     <g transform="translate(874.101125 99.221562) scale(0.1 -0.1)">
      <defs>
       <path id="DejaVuSans-66" d="M 2375 4863 
L 2375 4384 
L 1825 4384 
Q 1516 4384 1395 4259 
Q 1275 4134 1275 3809 
L 1275 3500 
L 2222 3500 
L 2222 3053 
L 1275 3053 
L 1275 0 
L 697 0 
L 697 3053 
L 147 3053 
L 147 3500 
L 697 3500 
L 697 3744 
Q 697 4328 969 4595 
Q 1241 4863 1831 4863 
L 2375 4863 
z
" transform="scale(0.015625)"/>
      </defs>
      <use xlink:href="#DejaVuSans-70"/>
      <use xlink:href="#DejaVuSans-5f" transform="translate(63.476562 0)"/>
      <use xlink:href="#DejaVuSans-5f" transform="translate(113.476562 0)"/>
      <use xlink:href="#DejaVuSans-43" transform="translate(163.476562 0)"/>
      <use xlink:href="#DejaVuSans-68" transform="translate(233.300781 0)"/>
      <use xlink:href="#DejaVuSans-6c" transform="translate(296.679688 0)"/>
      <use xlink:href="#DejaVuSans-6f" transform="translate(324.462891 0)"/>
      <use xlink:href="#DejaVuSans-72" transform="translate(385.644531 0)"/>
      <use xlink:href="#DejaVuSans-6f" transform="translate(424.507812 0)"/>
      <use xlink:href="#DejaVuSans-66" transform="translate(485.689453 0)"/>
      <use xlink:href="#DejaVuSans-6c" transform="translate(520.894531 0)"/>
      <use xlink:href="#DejaVuSans-65" transform="translate(548.677734 0)"/>
      <use xlink:href="#DejaVuSans-78" transform="translate(608.451172 0)"/>
      <use xlink:href="#DejaVuSans-6f" transform="translate(664.505859 0)"/>
      <use xlink:href="#DejaVuSans-74" transform="translate(725.6875 0)"/>
      <use xlink:href="#DejaVuSans-61" transform="translate(764.896484 0)"/>
     </g>
    </g>
    <g id="patch_123">
     <path d="M 846.101125 114.177812 
L 866.101125 114.177812 
L 866.101125 107.177812 
L 846.101125 107.177812 
z
" style="fill: #8c564b"/>
    </g>
    <g id="text_25">
     <!-- p__Planctomycetota -->
     <g transform="translate(874.101125 114.177812) scale(0.1 -0.1)">
      <use xlink:href="#DejaVuSans-70"/>
      <use xlink:href="#DejaVuSans-5f" transform="translate(63.476562 0)"/>
      <use xlink:href="#DejaVuSans-5f" transform="translate(113.476562 0)"/>
      <use xlink:href="#DejaVuSans-50" transform="translate(163.476562 0)"/>
      <use xlink:href="#DejaVuSans-6c" transform="translate(223.779297 0)"/>
      <use xlink:href="#DejaVuSans-61" transform="translate(251.5625 0)"/>
      <use xlink:href="#DejaVuSans-6e" transform="translate(312.841797 0)"/>
      <use xlink:href="#DejaVuSans-63" transform="translate(376.220703 0)"/>
      <use xlink:href="#DejaVuSans-74" transform="translate(431.201172 0)"/>
      <use xlink:href="#DejaVuSans-6f" transform="translate(470.410156 0)"/>
      <use xlink:href="#DejaVuSans-6d" transform="translate(531.591797 0)"/>
      <use xlink:href="#DejaVuSans-79" transform="translate(629.003906 0)"/>
      <use xlink:href="#DejaVuSans-63" transform="translate(688.183594 0)"/>
      <use xlink:href="#DejaVuSans-65" transform="translate(743.164062 0)"/>
      <use xlink:href="#DejaVuSans-74" transform="translate(804.6875 0)"/>
      <use xlink:href="#DejaVuSans-6f" transform="translate(843.896484 0)"/>
      <use xlink:href="#DejaVuSans-74" transform="translate(905.078125 0)"/>
      <use xlink:href="#DejaVuSans-61" transform="translate(944.287109 0)"/>
     </g>
    </g>
    <g id="patch_124">
     <path d="M 846.101125 129.134062 
L 866.101125 129.134062 
L 866.101125 122.134062 
L 846.101125 122.134062 
z
" style="fill: #e377c2"/>
    </g>
    <g id="text_26">
     <!-- p__Bacillota -->
     <g transform="translate(874.101125 129.134062) scale(0.1 -0.1)">
      <use xlink:href="#DejaVuSans-70"/>
      <use xlink:href="#DejaVuSans-5f" transform="translate(63.476562 0)"/>
      <use xlink:href="#DejaVuSans-5f" transform="translate(113.476562 0)"/>
      <use xlink:href="#DejaVuSans-42" transform="translate(163.476562 0)"/>
      <use xlink:href="#DejaVuSans-61" transform="translate(232.080078 0)"/>
      <use xlink:href="#DejaVuSans-63" transform="translate(293.359375 0)"/>
      <use xlink:href="#DejaVuSans-69" transform="translate(348.339844 0)"/>
      <use xlink:href="#DejaVuSans-6c" transform="translate(376.123047 0)"/>
      <use xlink:href="#DejaVuSans-6c" transform="translate(403.90625 0)"/>
      <use xlink:href="#DejaVuSans-6f" transform="translate(431.689453 0)"/>
      <use xlink:href="#DejaVuSans-74" transform="translate(492.871094 0)"/>
      <use xlink:href="#DejaVuSans-61" transform="translate(532.080078 0)"/>
     </g>
    </g>
    <g id="patch_125">
     <path d="M 846.101125 144.090312 
L 866.101125 144.090312 
L 866.101125 137.090312 
L 846.101125 137.090312 
z
" style="fill: #7f7f7f"/>
    </g>
    <g id="text_27">
     <!-- p__Gemmatimonadota -->
     <g transform="translate(874.101125 144.090312) scale(0.1 -0.1)">
      <defs>
       <path id="DejaVuSans-47" d="M 3809 666 
L 3809 1919 
L 2778 1919 
L 2778 2438 
L 4434 2438 
L 4434 434 
Q 4069 175 3628 42 
Q 3188 -91 2688 -91 
Q 1594 -91 976 548 
Q 359 1188 359 2328 
Q 359 3472 976 4111 
Q 1594 4750 2688 4750 
Q 3144 4750 3555 4637 
Q 3966 4525 4313 4306 
L 4313 3634 
Q 3963 3931 3569 4081 
Q 3175 4231 2741 4231 
Q 1884 4231 1454 3753 
Q 1025 3275 1025 2328 
Q 1025 1384 1454 906 
Q 1884 428 2741 428 
Q 3075 428 3337 486 
Q 3600 544 3809 666 
z
" transform="scale(0.015625)"/>
      </defs>
      <use xlink:href="#DejaVuSans-70"/>
      <use xlink:href="#DejaVuSans-5f" transform="translate(63.476562 0)"/>
      <use xlink:href="#DejaVuSans-5f" transform="translate(113.476562 0)"/>
      <use xlink:href="#DejaVuSans-47" transform="translate(163.476562 0)"/>
      <use xlink:href="#DejaVuSans-65" transform="translate(240.966797 0)"/>
      <use xlink:href="#DejaVuSans-6d" transform="translate(302.490234 0)"/>
      <use xlink:href="#DejaVuSans-6d" transform="translate(399.902344 0)"/>
      <use xlink:href="#DejaVuSans-61" transform="translate(497.314453 0)"/>
      <use xlink:href="#DejaVuSans-74" transform="translate(558.59375 0)"/>
      <use xlink:href="#DejaVuSans-69" transform="translate(597.802734 0)"/>
      <use xlink:href="#DejaVuSans-6d" transform="translate(625.585938 0)"/>
      <use xlink:href="#DejaVuSans-6f" transform="translate(722.998047 0)"/>
      <use xlink:href="#DejaVuSans-6e" transform="translate(784.179688 0)"/>
      <use xlink:href="#DejaVuSans-61" transform="translate(847.558594 0)"/>
      <use xlink:href="#DejaVuSans-64" transform="translate(908.837891 0)"/>
      <use xlink:href="#DejaVuSans-6f" transform="translate(972.314453 0)"/>
      <use xlink:href="#DejaVuSans-74" transform="translate(1033.496094 0)"/>
      <use xlink:href="#DejaVuSans-61" transform="translate(1072.705078 0)"/>
     </g>
    </g>
    <g id="patch_126">
     <path d="M 846.101125 159.046562 
L 866.101125 159.046562 
L 866.101125 152.046562 
L 846.101125 152.046562 
z
" style="fill: #bcbd22"/>
    </g>
    <g id="text_28">
     <!-- p__Myxococcota -->
     <g transform="translate(874.101125 159.046562) scale(0.1 -0.1)">
      <use xlink:href="#DejaVuSans-70"/>
      <use xlink:href="#DejaVuSans-5f" transform="translate(63.476562 0)"/>
      <use xlink:href="#DejaVuSans-5f" transform="translate(113.476562 0)"/>
      <use xlink:href="#DejaVuSans-4d" transform="translate(163.476562 0)"/>
      <use xlink:href="#DejaVuSans-79" transform="translate(249.755859 0)"/>
      <use xlink:href="#DejaVuSans-78" transform="translate(308.935547 0)"/>
      <use xlink:href="#DejaVuSans-6f" transform="translate(364.990234 0)"/>
      <use xlink:href="#DejaVuSans-63" transform="translate(426.171875 0)"/>
      <use xlink:href="#DejaVuSans-6f" transform="translate(481.152344 0)"/>
      <use xlink:href="#DejaVuSans-63" transform="translate(542.333984 0)"/>
      <use xlink:href="#DejaVuSans-63" transform="translate(597.314453 0)"/>
      <use xlink:href="#DejaVuSans-6f" transform="translate(652.294922 0)"/>
      <use xlink:href="#DejaVuSans-74" transform="translate(713.476562 0)"/>
      <use xlink:href="#DejaVuSans-61" transform="translate(752.685547 0)"/>
     </g>
    </g>
    <g id="patch_127">
     <path d="M 846.101125 174.002812 
L 866.101125 174.002812 
L 866.101125 167.002812 
L 846.101125 167.002812 
z
" style="fill: #17becf"/>
    </g>
    <g id="text_29">
     <!-- p__Verrucomicrobiota -->
     <g transform="translate(874.101125 174.002812) scale(0.1 -0.1)">
      <defs>
       <path id="DejaVuSans-56" d="M 1831 0 
L 50 4666 
L 709 4666 
L 2188 738 
L 3669 4666 
L 4325 4666 
L 2547 0 
L 1831 0 
z
" transform="scale(0.015625)"/>
      </defs>
      <use xlink:href="#DejaVuSans-70"/>
      <use xlink:href="#DejaVuSans-5f" transform="translate(63.476562 0)"/>
      <use xlink:href="#DejaVuSans-5f" transform="translate(113.476562 0)"/>
      <use xlink:href="#DejaVuSans-56" transform="translate(163.476562 0)"/>
      <use xlink:href="#DejaVuSans-65" transform="translate(224.134766 0)"/>
      <use xlink:href="#DejaVuSans-72" transform="translate(285.658203 0)"/>
      <use xlink:href="#DejaVuSans-72" transform="translate(325.021484 0)"/>
      <use xlink:href="#DejaVuSans-75" transform="translate(366.134766 0)"/>
      <use xlink:href="#DejaVuSans-63" transform="translate(429.513672 0)"/>
      <use xlink:href="#DejaVuSans-6f" transform="translate(484.494141 0)"/>
      <use xlink:href="#DejaVuSans-6d" transform="translate(545.675781 0)"/>
      <use xlink:href="#DejaVuSans-69" transform="translate(643.087891 0)"/>
      <use xlink:href="#DejaVuSans-63" transform="translate(670.871094 0)"/>
      <use xlink:href="#DejaVuSans-72" transform="translate(725.851562 0)"/>
      <use xlink:href="#DejaVuSans-6f" transform="translate(764.714844 0)"/>
      <use xlink:href="#DejaVuSans-62" transform="translate(825.896484 0)"/>
      <use xlink:href="#DejaVuSans-69" transform="translate(889.373047 0)"/>
      <use xlink:href="#DejaVuSans-6f" transform="translate(917.15625 0)"/>
      <use xlink:href="#DejaVuSans-74" transform="translate(978.337891 0)"/>
      <use xlink:href="#DejaVuSans-61" transform="translate(1017.546875 0)"/>
     </g>
    </g>
    <g id="patch_128">
     <path d="M 846.101125 188.959062 
L 866.101125 188.959062 
L 866.101125 181.959062 
L 846.101125 181.959062 
z
" style="fill: #1f77b4"/>
    </g>
    <g id="text_30">
     <!-- Others -->
     <g transform="translate(874.101125 188.959062) scale(0.1 -0.1)">
      <defs>
       <path id="DejaVuSans-4f" d="M 2522 4238 
Q 1834 4238 1429 3725 
Q 1025 3213 1025 2328 
Q 1025 1447 1429 934 
Q 1834 422 2522 422 
Q 3209 422 3611 934 
Q 4013 1447 4013 2328 
Q 4013 3213 3611 3725 
Q 3209 4238 2522 4238 
z
M 2522 4750 
Q 3503 4750 4090 4092 
Q 4678 3434 4678 2328 
Q 4678 1225 4090 567 
Q 3503 -91 2522 -91 
Q 1538 -91 948 565 
Q 359 1222 359 2328 
Q 359 3434 948 4092 
Q 1538 4750 2522 4750 
z
" transform="scale(0.015625)"/>
      </defs>
      <use xlink:href="#DejaVuSans-4f"/>
      <use xlink:href="#DejaVuSans-74" transform="translate(78.710938 0)"/>
      <use xlink:href="#DejaVuSans-68" transform="translate(117.919922 0)"/>
      <use xlink:href="#DejaVuSans-65" transform="translate(181.298828 0)"/>
      <use xlink:href="#DejaVuSans-72" transform="translate(242.822266 0)"/>
      <use xlink:href="#DejaVuSans-73" transform="translate(283.935547 0)"/>
     </g>
    </g>
   </g>
  </g>
 </g>
 <defs>
  <clipPath id="p8e54331067">
   <rect x="46.965625" y="22.798125" width="752.51" height="345.324049"/>
  </clipPath>
 </defs>
</svg>
