<?xml version="1.0" encoding="utf-8" standalone="no"?>
<!DOCTYPE svg PUBLIC "-//W3C//DTD SVG 1.1//EN"
  "http://www.w3.org/Graphics/SVG/1.1/DTD/svg11.dtd">
<svg xmlns:xlink="http://www.w3.org/1999/xlink" width="999.83825pt" height="423.225015pt" viewBox="0 0 999.83825 423.225015" xmlns="http://www.w3.org/2000/svg" version="1.1">
 <metadata>
  <rdf:RDF xmlns:dc="http://purl.org/dc/elements/1.1/" xmlns:cc="http://creativecommons.org/ns#" xmlns:rdf="http://www.w3.org/1999/02/22-rdf-syntax-ns#">
   <cc:Work>
    <dc:type rdf:resource="http://purl.org/dc/dcmitype/StillImage"/>
    <dc:date>2026-05-04T17:17:12.004147</dc:date>
    <dc:format>image/svg+xml</dc:format>
    <dc:creator>
     <cc:Agent>
      <dc:title>Matplotlib v3.10.0, https://matplotlib.org/</dc:title>
     </cc:Agent>
    </dc:creator>
   </cc:Work>
  </rdf:RDF>
 </metadata>
 <defs>
  <style type="text/css">*{stroke-linejoin: round; stroke-linecap: butt}</style>
 </defs>
 <g id="figure_1">
  <g id="patch_1">
   <path d="M 0 423.225015 
L 999.83825 423.225015 
L 999.83825 0 
L 0 0 
z
" style="fill: #ffffff"/>
  </g>
  <g id="axes_1">
   <g id="patch_2">
    <path d="M 46.965625 368.122174 
L 818.555625 368.122174 
L 818.555625 22.798125 
L 46.965625 22.798125 
z
" style="fill: #ffffff"/>
   </g>
   <g id="patch_3">
    <path d="M 66.255375 368.122174 
L 104.834875 368.122174 
L 104.834875 349.81552 
L 66.255375 349.81552 
z
" clip-path="url(#p2d49d42701)" style="fill: #1f77b4"/>
   </g>
   <g id="patch_4">
    <path d="M 143.414375 368.122174 
L 181.993875 368.122174 
L 181.993875 350.061321 
L 143.414375 350.061321 
z
" clip-path="url(#p2d49d42701)" style="fill: #1f77b4"/>
   </g>
   <g id="patch_5">
    <path d="M 220.573375 368.122174 
L 259.152875 368.122174 
L 259.152875 350.796688 
L 220.573375 350.796688 
z
" clip-path="url(#p2d49d42701)" style="fill: #1f77b4"/>
   </g>
   <g id="patch_6">
    <path d="M 297.732375 368.122174 
L 336.311875 368.122174 
L 336.311875 352.453402 
L 297.732375 352.453402 
z
" clip-path="url(#p2d49d42701)" style="fill: #1f77b4"/>
   </g>
   <g id="patch_7">
    <path d="M 374.891375 368.122174 
L 413.470875 368.122174 
L 413.470875 349.588989 
L 374.891375 349.588989 
z
" clip-path="url(#p2d49d42701)" style="fill: #1f77b4"/>
   </g>
   <g id="patch_8">
    <path d="M 452.050375 368.122174 
L 490.629875 368.122174 
L 490.629875 348.411612 
L 452.050375 348.411612 
z
" clip-path="url(#p2d49d42701)" style="fill: #1f77b4"/>
   </g>
   <g id="patch_9">
    <path d="M 529.209375 368.122174 
L 567.788875 368.122174 
L 567.788875 349.118719 
L 529.209375 349.118719 
z
" clip-path="url(#p2d49d42701)" style="fill: #1f77b4"/>
   </g>
   <g id="patch_10">
    <path d="M 606.368375 368.122174 
L 644.947875 368.122174 
L 644.947875 349.506085 
L 606.368375 349.506085 
z
" clip-path="url(#p2d49d42701)" style="fill: #1f77b4"/>
   </g>
   <g id="patch_11">
    <path d="M 683.527375 368.122174 
L 722.106875 368.122174 
L 722.106875 351.225612 
L 683.527375 351.225612 
z
" clip-path="url(#p2d49d42701)" style="fill: #1f77b4"/>
   </g>
   <g id="patch_12">
    <path d="M 760.686375 368.122174 
L 799.265875 368.122174 
L 799.265875 350.254741 
L 760.686375 350.254741 
z
" clip-path="url(#p2d49d42701)" style="fill: #1f77b4"/>
   </g>
   <g id="patch_13">
    <path d="M 66.255375 349.81552 
L 104.834875 349.81552 
L 104.834875 332.217653 
L 66.255375 332.217653 
z
" clip-path="url(#p2d49d42701)" style="fill: #ff7f0e"/>
   </g>
   <g id="patch_14">
    <path d="M 143.414375 350.061321 
L 181.993875 350.061321 
L 181.993875 329.866848 
L 143.414375 329.866848 
z
" clip-path="url(#p2d49d42701)" style="fill: #ff7f0e"/>
   </g>
   <g id="patch_15">
    <path d="M 220.573375 350.796688 
L 259.152875 350.796688 
L 259.152875 321.762775 
L 220.573375 321.762775 
z
" clip-path="url(#p2d49d42701)" style="fill: #ff7f0e"/>
   </g>
   <g id="patch_16">
    <path d="M 297.732375 352.453402 
L 336.311875 352.453402 
L 336.311875 323.796033 
L 297.732375 323.796033 
z
" clip-path="url(#p2d49d42701)" style="fill: #ff7f0e"/>
   </g>
   <g id="patch_17">
    <path d="M 374.891375 349.588989 
L 413.470875 349.588989 
L 413.470875 335.318199 
L 374.891375 335.318199 
z
" clip-path="url(#p2d49d42701)" style="fill: #ff7f0e"/>
   </g>
   <g id="patch_18">
    <path d="M 452.050375 348.411612 
L 490.629875 348.411612 
L 490.629875 337.916877 
L 452.050375 337.916877 
z
" clip-path="url(#p2d49d42701)" style="fill: #ff7f0e"/>
   </g>
   <g id="patch_19">
    <path d="M 529.209375 349.118719 
L 567.788875 349.118719 
L 567.788875 334.074972 
L 529.209375 334.074972 
z
" clip-path="url(#p2d49d42701)" style="fill: #ff7f0e"/>
   </g>
   <g id="patch_20">
    <path d="M 606.368375 349.506085 
L 644.947875 349.506085 
L 644.947875 335.733696 
L 606.368375 335.733696 
z
" clip-path="url(#p2d49d42701)" style="fill: #ff7f0e"/>
   </g>
   <g id="patch_21">
    <path d="M 683.527375 351.225612 
L 722.106875 351.225612 
L 722.106875 330.354602 
L 683.527375 330.354602 
z
" clip-path="url(#p2d49d42701)" style="fill: #ff7f0e"/>
   </g>
   <g id="patch_22">
    <path d="M 760.686375 350.254741 
L 799.265875 350.254741 
L 799.265875 341.629018 
L 760.686375 341.629018 
z
" clip-path="url(#p2d49d42701)" style="fill: #ff7f0e"/>
   </g>
   <g id="patch_23">
    <path d="M 66.255375 332.217653 
L 104.834875 332.217653 
L 104.834875 321.769853 
L 66.255375 321.769853 
z
" clip-path="url(#p2d49d42701)" style="fill: #2ca02c"/>
   </g>
   <g id="patch_24">
    <path d="M 143.414375 329.866848 
L 181.993875 329.866848 
L 181.993875 315.144741 
L 143.414375 315.144741 
z
" clip-path="url(#p2d49d42701)" style="fill: #2ca02c"/>
   </g>
   <g id="patch_25">
    <path d="M 220.573375 321.762775 
L 259.152875 321.762775 
L 259.152875 304.075697 
L 220.573375 304.075697 
z
" clip-path="url(#p2d49d42701)" style="fill: #2ca02c"/>
   </g>
   <g id="patch_26">
    <path d="M 297.732375 323.796033 
L 336.311875 323.796033 
L 336.311875 306.071497 
L 297.732375 306.071497 
z
" clip-path="url(#p2d49d42701)" style="fill: #2ca02c"/>
   </g>
   <g id="patch_27">
    <path d="M 374.891375 335.318199 
L 413.470875 335.318199 
L 413.470875 323.544796 
L 374.891375 323.544796 
z
" clip-path="url(#p2d49d42701)" style="fill: #2ca02c"/>
   </g>
   <g id="patch_28">
    <path d="M 452.050375 337.916877 
L 490.629875 337.916877 
L 490.629875 328.135502 
L 452.050375 328.135502 
z
" clip-path="url(#p2d49d42701)" style="fill: #2ca02c"/>
   </g>
   <g id="patch_29">
    <path d="M 529.209375 334.074972 
L 567.788875 334.074972 
L 567.788875 322.170444 
L 529.209375 322.170444 
z
" clip-path="url(#p2d49d42701)" style="fill: #2ca02c"/>
   </g>
   <g id="patch_30">
    <path d="M 606.368375 335.733696 
L 644.947875 335.733696 
L 644.947875 323.358246 
L 606.368375 323.358246 
z
" clip-path="url(#p2d49d42701)" style="fill: #2ca02c"/>
   </g>
   <g id="patch_31">
    <path d="M 683.527375 330.354602 
L 722.106875 330.354602 
L 722.106875 319.874904 
L 683.527375 319.874904 
z
" clip-path="url(#p2d49d42701)" style="fill: #2ca02c"/>
   </g>
   <g id="patch_32">
    <path d="M 760.686375 341.629018 
L 799.265875 341.629018 
L 799.265875 340.169601 
L 760.686375 340.169601 
z
" clip-path="url(#p2d49d42701)" style="fill: #2ca02c"/>
   </g>
   <g id="patch_33">
    <path d="M 66.255375 321.769853 
L 104.834875 321.769853 
L 104.834875 314.141028 
L 66.255375 314.141028 
z
" clip-path="url(#p2d49d42701)" style="fill: #d62728"/>
   </g>
   <g id="patch_34">
    <path d="M 143.414375 315.144741 
L 181.993875 315.144741 
L 181.993875 308.156735 
L 143.414375 308.156735 
z
" clip-path="url(#p2d49d42701)" style="fill: #d62728"/>
   </g>
   <g id="patch_35">
    <path d="M 220.573375 304.075697 
L 259.152875 304.075697 
L 259.152875 298.871528 
L 220.573375 298.871528 
z
" clip-path="url(#p2d49d42701)" style="fill: #d62728"/>
   </g>
   <g id="patch_36">
    <path d="M 297.732375 306.071497 
L 336.311875 306.071497 
L 336.311875 301.518793 
L 297.732375 301.518793 
z
" clip-path="url(#p2d49d42701)" style="fill: #d62728"/>
   </g>
   <g id="patch_37">
    <path d="M 374.891375 323.544796 
L 413.470875 323.544796 
L 413.470875 315.003677 
L 374.891375 315.003677 
z
" clip-path="url(#p2d49d42701)" style="fill: #d62728"/>
   </g>
   <g id="patch_38">
    <path d="M 452.050375 328.135502 
L 490.629875 328.135502 
L 490.629875 318.215312 
L 452.050375 318.215312 
z
" clip-path="url(#p2d49d42701)" style="fill: #d62728"/>
   </g>
   <g id="patch_39">
    <path d="M 529.209375 322.170444 
L 567.788875 322.170444 
L 567.788875 312.489749 
L 529.209375 312.489749 
z
" clip-path="url(#p2d49d42701)" style="fill: #d62728"/>
   </g>
   <g id="patch_40">
    <path d="M 606.368375 323.358246 
L 644.947875 323.358246 
L 644.947875 314.675405 
L 606.368375 314.675405 
z
" clip-path="url(#p2d49d42701)" style="fill: #d62728"/>
   </g>
   <g id="patch_41">
    <path d="M 683.527375 319.874904 
L 722.106875 319.874904 
L 722.106875 311.395688 
L 683.527375 311.395688 
z
" clip-path="url(#p2d49d42701)" style="fill: #d62728"/>
   </g>
   <g id="patch_42">
    <path d="M 760.686375 340.169601 
L 799.265875 340.169601 
L 799.265875 332.65929 
L 760.686375 332.65929 
z
" clip-path="url(#p2d49d42701)" style="fill: #d62728"/>
   </g>
   <g id="patch_43">
    <path d="M 66.255375 314.141028 
L 104.834875 314.141028 
L 104.834875 309.79376 
L 66.255375 309.79376 
z
" clip-path="url(#p2d49d42701)" style="fill: #9467bd"/>
   </g>
   <g id="patch_44">
    <path d="M 143.414375 308.156735 
L 181.993875 308.156735 
L 181.993875 301.81103 
L 143.414375 301.81103 
z
" clip-path="url(#p2d49d42701)" style="fill: #9467bd"/>
   </g>
   <g id="patch_45">
    <path d="M 220.573375 298.871528 
L 259.152875 298.871528 
L 259.152875 293.961828 
L 220.573375 293.961828 
z
" clip-path="url(#p2d49d42701)" style="fill: #9467bd"/>
   </g>
   <g id="patch_46">
    <path d="M 297.732375 301.518793 
L 336.311875 301.518793 
L 336.311875 296.02172 
L 297.732375 296.02172 
z
" clip-path="url(#p2d49d42701)" style="fill: #9467bd"/>
   </g>
   <g id="patch_47">
    <path d="M 374.891375 315.003677 
L 413.470875 315.003677 
L 413.470875 308.883316 
L 374.891375 308.883316 
z
" clip-path="url(#p2d49d42701)" style="fill: #9467bd"/>
   </g>
   <g id="patch_48">
    <path d="M 452.050375 318.215312 
L 490.629875 318.215312 
L 490.629875 312.564993 
L 452.050375 312.564993 
z
" clip-path="url(#p2d49d42701)" style="fill: #9467bd"/>
   </g>
   <g id="patch_49">
    <path d="M 529.209375 312.489749 
L 567.788875 312.489749 
L 567.788875 307.356103 
L 529.209375 307.356103 
z
" clip-path="url(#p2d49d42701)" style="fill: #9467bd"/>
   </g>
   <g id="patch_50">
    <path d="M 606.368375 314.675405 
L 644.947875 314.675405 
L 644.947875 308.538967 
L 606.368375 308.538967 
z
" clip-path="url(#p2d49d42701)" style="fill: #9467bd"/>
   </g>
   <g id="patch_51">
    <path d="M 683.527375 311.395688 
L 722.106875 311.395688 
L 722.106875 307.518465 
L 683.527375 307.518465 
z
" clip-path="url(#p2d49d42701)" style="fill: #9467bd"/>
   </g>
   <g id="patch_52">
    <path d="M 760.686375 332.65929 
L 799.265875 332.65929 
L 799.265875 331.600739 
L 760.686375 331.600739 
z
" clip-path="url(#p2d49d42701)" style="fill: #9467bd"/>
   </g>
   <g id="patch_53">
    <path d="M 66.255375 309.79376 
L 104.834875 309.79376 
L 104.834875 305.064798 
L 66.255375 305.064798 
z
" clip-path="url(#p2d49d42701)" style="fill: #8c564b"/>
   </g>
   <g id="patch_54">
    <path d="M 143.414375 301.81103 
L 181.993875 301.81103 
L 181.993875 297.092574 
L 143.414375 297.092574 
z
" clip-path="url(#p2d49d42701)" style="fill: #8c564b"/>
   </g>
   <g id="patch_55">
    <path d="M 220.573375 293.961828 
L 259.152875 293.961828 
L 259.152875 286.76541 
L 220.573375 286.76541 
z
" clip-path="url(#p2d49d42701)" style="fill: #8c564b"/>
   </g>
   <g id="patch_56">
    <path d="M 297.732375 296.02172 
L 336.311875 296.02172 
L 336.311875 288.003747 
L 297.732375 288.003747 
z
" clip-path="url(#p2d49d42701)" style="fill: #8c564b"/>
   </g>
   <g id="patch_57">
    <path d="M 374.891375 308.883316 
L 413.470875 308.883316 
L 413.470875 306.156037 
L 374.891375 306.156037 
z
" clip-path="url(#p2d49d42701)" style="fill: #8c564b"/>
   </g>
   <g id="patch_58">
    <path d="M 452.050375 312.564993 
L 490.629875 312.564993 
L 490.629875 310.066308 
L 452.050375 310.066308 
z
" clip-path="url(#p2d49d42701)" style="fill: #8c564b"/>
   </g>
   <g id="patch_59">
    <path d="M 529.209375 307.356103 
L 567.788875 307.356103 
L 567.788875 304.053234 
L 529.209375 304.053234 
z
" clip-path="url(#p2d49d42701)" style="fill: #8c564b"/>
   </g>
   <g id="patch_60">
    <path d="M 606.368375 308.538967 
L 644.947875 308.538967 
L 644.947875 305.627862 
L 606.368375 305.627862 
z
" clip-path="url(#p2d49d42701)" style="fill: #8c564b"/>
   </g>
   <g id="patch_61">
    <path d="M 683.527375 307.518465 
L 722.106875 307.518465 
L 722.106875 304.208388 
L 683.527375 304.208388 
z
" clip-path="url(#p2d49d42701)" style="fill: #8c564b"/>
   </g>
   <g id="patch_62">
    <path d="M 760.686375 331.600739 
L 799.265875 331.600739 
L 799.265875 329.616311 
L 760.686375 329.616311 
z
" clip-path="url(#p2d49d42701)" style="fill: #8c564b"/>
   </g>
   <g id="patch_63">
    <path d="M 66.255375 305.064798 
L 104.834875 305.064798 
L 104.834875 304.916165 
L 66.255375 304.916165 
z
" clip-path="url(#p2d49d42701)" style="fill: #e377c2"/>
   </g>
   <g id="patch_64">
    <path d="M 143.414375 297.092574 
L 181.993875 297.092574 
L 181.993875 296.997032 
L 143.414375 296.997032 
z
" clip-path="url(#p2d49d42701)" style="fill: #e377c2"/>
   </g>
   <g id="patch_65">
    <path d="M 220.573375 286.76541 
L 259.152875 286.76541 
L 259.152875 286.522869 
L 220.573375 286.522869 
z
" clip-path="url(#p2d49d42701)" style="fill: #e377c2"/>
   </g>
   <g id="patch_66">
    <path d="M 297.732375 288.003747 
L 336.311875 288.003747 
L 336.311875 287.739464 
L 297.732375 287.739464 
z
" clip-path="url(#p2d49d42701)" style="fill: #e377c2"/>
   </g>
   <g id="patch_67">
    <path d="M 374.891375 306.156037 
L 413.470875 306.156037 
L 413.470875 306.030414 
L 374.891375 306.030414 
z
" clip-path="url(#p2d49d42701)" style="fill: #e377c2"/>
   </g>
   <g id="patch_68">
    <path d="M 452.050375 310.066308 
L 490.629875 310.066308 
L 490.629875 309.851658 
L 452.050375 309.851658 
z
" clip-path="url(#p2d49d42701)" style="fill: #e377c2"/>
   </g>
   <g id="patch_69">
    <path d="M 529.209375 304.053234 
L 567.788875 304.053234 
L 567.788875 303.906025 
L 529.209375 303.906025 
z
" clip-path="url(#p2d49d42701)" style="fill: #e377c2"/>
   </g>
   <g id="patch_70">
    <path d="M 606.368375 305.627862 
L 644.947875 305.627862 
L 644.947875 305.329914 
L 606.368375 305.329914 
z
" clip-path="url(#p2d49d42701)" style="fill: #e377c2"/>
   </g>
   <g id="patch_71">
    <path d="M 683.527375 304.208388 
L 722.106875 304.208388 
L 722.106875 296.660177 
L 683.527375 296.660177 
z
" clip-path="url(#p2d49d42701)" style="fill: #e377c2"/>
   </g>
   <g id="patch_72">
    <path d="M 760.686375 329.616311 
L 799.265875 329.616311 
L 799.265875 298.098591 
L 760.686375 298.098591 
z
" clip-path="url(#p2d49d42701)" style="fill: #e377c2"/>
   </g>
   <g id="patch_73">
    <path d="M 66.255375 304.916165 
L 104.834875 304.916165 
L 104.834875 304.081494 
L 66.255375 304.081494 
z
" clip-path="url(#p2d49d42701)" style="fill: #7f7f7f"/>
   </g>
   <g id="patch_74">
    <path d="M 143.414375 296.997032 
L 181.993875 296.997032 
L 181.993875 296.223144 
L 143.414375 296.223144 
z
" clip-path="url(#p2d49d42701)" style="fill: #7f7f7f"/>
   </g>
   <g id="patch_75">
    <path d="M 220.573375 286.522869 
L 259.152875 286.522869 
L 259.152875 285.878206 
L 220.573375 285.878206 
z
" clip-path="url(#p2d49d42701)" style="fill: #7f7f7f"/>
   </g>
   <g id="patch_76">
    <path d="M 297.732375 287.739464 
L 336.311875 287.739464 
L 336.311875 287.18271 
L 297.732375 287.18271 
z
" clip-path="url(#p2d49d42701)" style="fill: #7f7f7f"/>
   </g>
   <g id="patch_77">
    <path d="M 374.891375 306.030414 
L 413.470875 306.030414 
L 413.470875 305.189995 
L 374.891375 305.189995 
z
" clip-path="url(#p2d49d42701)" style="fill: #7f7f7f"/>
   </g>
   <g id="patch_78">
    <path d="M 452.050375 309.851658 
L 490.629875 309.851658 
L 490.629875 309.233413 
L 452.050375 309.233413 
z
" clip-path="url(#p2d49d42701)" style="fill: #7f7f7f"/>
   </g>
   <g id="patch_79">
    <path d="M 529.209375 303.906025 
L 567.788875 303.906025 
L 567.788875 302.815779 
L 529.209375 302.815779 
z
" clip-path="url(#p2d49d42701)" style="fill: #7f7f7f"/>
   </g>
   <g id="patch_80">
    <path d="M 606.368375 305.329914 
L 644.947875 305.329914 
L 644.947875 304.680288 
L 606.368375 304.680288 
z
" clip-path="url(#p2d49d42701)" style="fill: #7f7f7f"/>
   </g>
   <g id="patch_81">
    <path d="M 683.527375 296.660177 
L 722.106875 296.660177 
L 722.106875 290.168186 
L 683.527375 290.168186 
z
" clip-path="url(#p2d49d42701)" style="fill: #7f7f7f"/>
   </g>
   <g id="patch_82">
    <path d="M 760.686375 298.098591 
L 799.265875 298.098591 
L 799.265875 273.140668 
L 760.686375 273.140668 
z
" clip-path="url(#p2d49d42701)" style="fill: #7f7f7f"/>
   </g>
   <g id="patch_83">
    <path d="M 66.255375 304.081494 
L 104.834875 304.081494 
L 104.834875 300.210458 
L 66.255375 300.210458 
z
" clip-path="url(#p2d49d42701)" style="fill: #bcbd22"/>
   </g>
   <g id="patch_84">
    <path d="M 143.414375 296.223144 
L 181.993875 296.223144 
L 181.993875 292.370209 
L 143.414375 292.370209 
z
" clip-path="url(#p2d49d42701)" style="fill: #bcbd22"/>
   </g>
   <g id="patch_85">
    <path d="M 220.573375 285.878206 
L 259.152875 285.878206 
L 259.152875 283.394542 
L 220.573375 283.394542 
z
" clip-path="url(#p2d49d42701)" style="fill: #bcbd22"/>
   </g>
   <g id="patch_86">
    <path d="M 297.732375 287.18271 
L 336.311875 287.18271 
L 336.311875 283.743515 
L 297.732375 283.743515 
z
" clip-path="url(#p2d49d42701)" style="fill: #bcbd22"/>
   </g>
   <g id="patch_87">
    <path d="M 374.891375 305.189995 
L 413.470875 305.189995 
L 413.470875 299.423892 
L 374.891375 299.423892 
z
" clip-path="url(#p2d49d42701)" style="fill: #bcbd22"/>
   </g>
   <g id="patch_88">
    <path d="M 452.050375 309.233413 
L 490.629875 309.233413 
L 490.629875 304.675627 
L 452.050375 304.675627 
z
" clip-path="url(#p2d49d42701)" style="fill: #bcbd22"/>
   </g>
   <g id="patch_89">
    <path d="M 529.209375 302.815779 
L 567.788875 302.815779 
L 567.788875 298.96816 
L 529.209375 298.96816 
z
" clip-path="url(#p2d49d42701)" style="fill: #bcbd22"/>
   </g>
   <g id="patch_90">
    <path d="M 606.368375 304.680288 
L 644.947875 304.680288 
L 644.947875 300.34945 
L 606.368375 300.34945 
z
" clip-path="url(#p2d49d42701)" style="fill: #bcbd22"/>
   </g>
   <g id="patch_91">
    <path d="M 683.527375 290.168186 
L 722.106875 290.168186 
L 722.106875 287.540159 
L 683.527375 287.540159 
z
" clip-path="url(#p2d49d42701)" style="fill: #bcbd22"/>
   </g>
   <g id="patch_92">
    <path d="M 760.686375 273.140668 
L 799.265875 273.140668 
L 799.265875 270.848246 
L 760.686375 270.848246 
z
" clip-path="url(#p2d49d42701)" style="fill: #bcbd22"/>
   </g>
   <g id="patch_93">
    <path d="M 66.255375 300.210458 
L 104.834875 300.210458 
L 104.834875 298.431916 
L 66.255375 298.431916 
z
" clip-path="url(#p2d49d42701)" style="fill: #17becf"/>
   </g>
   <g id="patch_94">
    <path d="M 143.414375 292.370209 
L 181.993875 292.370209 
L 181.993875 290.118465 
L 143.414375 290.118465 
z
" clip-path="url(#p2d49d42701)" style="fill: #17becf"/>
   </g>
   <g id="patch_95">
    <path d="M 220.573375 283.394542 
L 259.152875 283.394542 
L 259.152875 279.469568 
L 220.573375 279.469568 
z
" clip-path="url(#p2d49d42701)" style="fill: #17becf"/>
   </g>
   <g id="patch_96">
    <path d="M 297.732375 283.743515 
L 336.311875 283.743515 
L 336.311875 281.77514 
L 297.732375 281.77514 
z
" clip-path="url(#p2d49d42701)" style="fill: #17becf"/>
   </g>
   <g id="patch_97">
    <path d="M 374.891375 299.423892 
L 413.470875 299.423892 
L 413.470875 298.4478 
L 374.891375 298.4478 
z
" clip-path="url(#p2d49d42701)" style="fill: #17becf"/>
   </g>
   <g id="patch_98">
    <path d="M 452.050375 304.675627 
L 490.629875 304.675627 
L 490.629875 303.535538 
L 452.050375 303.535538 
z
" clip-path="url(#p2d49d42701)" style="fill: #17becf"/>
   </g>
   <g id="patch_99">
    <path d="M 529.209375 298.96816 
L 567.788875 298.96816 
L 567.788875 297.661958 
L 529.209375 297.661958 
z
" clip-path="url(#p2d49d42701)" style="fill: #17becf"/>
   </g>
   <g id="patch_100">
    <path d="M 606.368375 300.34945 
L 644.947875 300.34945 
L 644.947875 299.143003 
L 606.368375 299.143003 
z
" clip-path="url(#p2d49d42701)" style="fill: #17becf"/>
   </g>
   <g id="patch_101">
    <path d="M 683.527375 287.540159 
L 722.106875 287.540159 
L 722.106875 283.735118 
L 683.527375 283.735118 
z
" clip-path="url(#p2d49d42701)" style="fill: #17becf"/>
   </g>
   <g id="patch_102">
    <path d="M 760.686375 270.848246 
L 799.265875 270.848246 
L 799.265875 256.48531 
L 760.686375 256.48531 
z
" clip-path="url(#p2d49d42701)" style="fill: #17becf"/>
   </g>
   <g id="patch_103">
    <path d="M 66.255375 298.431916 
L 104.834875 298.431916 
L 104.834875 39.256727 
L 66.255375 39.256727 
z
" clip-path="url(#p2d49d42701)" style="fill: #1f77b4"/>
   </g>
   <g id="patch_104">
    <path d="M 143.414375 290.118465 
L 181.993875 290.118465 
L 181.993875 39.251893 
L 143.414375 39.251893 
z
" clip-path="url(#p2d49d42701)" style="fill: #1f77b4"/>
   </g>
   <g id="patch_105">
    <path d="M 220.573375 279.469568 
L 259.152875 279.469568 
L 259.152875 39.261544 
L 220.573375 39.261544 
z
" clip-path="url(#p2d49d42701)" style="fill: #1f77b4"/>
   </g>
   <g id="patch_106">
    <path d="M 297.732375 281.77514 
L 336.311875 281.77514 
L 336.311875 39.257206 
L 297.732375 39.257206 
z
" clip-path="url(#p2d49d42701)" style="fill: #1f77b4"/>
   </g>
   <g id="patch_107">
    <path d="M 374.891375 298.4478 
L 413.470875 298.4478 
L 413.470875 39.258285 
L 374.891375 39.258285 
z
" clip-path="url(#p2d49d42701)" style="fill: #1f77b4"/>
   </g>
   <g id="patch_108">
    <path d="M 452.050375 303.535538 
L 490.629875 303.535538 
L 490.629875 39.261848 
L 452.050375 39.261848 
z
" clip-path="url(#p2d49d42701)" style="fill: #1f77b4"/>
   </g>
   <g id="patch_109">
    <path d="M 529.209375 297.661958 
L 567.788875 297.661958 
L 567.788875 39.242127 
L 529.209375 39.242127 
z
" clip-path="url(#p2d49d42701)" style="fill: #1f77b4"/>
   </g>
   <g id="patch_110">
    <path d="M 606.368375 299.143003 
L 644.947875 299.143003 
L 644.947875 39.244822 
L 606.368375 39.244822 
z
" clip-path="url(#p2d49d42701)" style="fill: #1f77b4"/>
   </g>
   <g id="patch_111">
    <path d="M 683.527375 283.735118 
L 722.106875 283.735118 
L 722.106875 39.25398 
L 683.527375 39.25398 
z
" clip-path="url(#p2d49d42701)" style="fill: #1f77b4"/>
   </g>
   <g id="patch_112">
    <path d="M 760.686375 256.48531 
L 799.265875 256.48531 
L 799.265875 39.245729 
L 760.686375 39.245729 
z
" clip-path="url(#p2d49d42701)" style="fill: #1f77b4"/>
   </g>
   <g id="matplotlib.axis_1">
    <g id="xtick_1">
     <g id="line2d_1">
      <defs>
       <path id="m3b808888e3" d="M 0 0 
L 0 3.5 
" style="stroke: #000000; stroke-width: 0.8"/>
      </defs>
      <g>
       <use xlink:href="#m3b808888e3" x="85.545125" y="368.122174" style="stroke: #000000; stroke-width: 0.8"/>
      </g>
     </g>
     <g id="text_1">
      <!-- Cpst1 -->
      <g transform="translate(63.693316 400.876329) rotate(-45) scale(0.1 -0.1)">
       <defs>
        <path id="DejaVuSans-43" d="M 4122 4306 
L 4122 3641 
Q 3803 3938 3442 4084 
Q 3081 4231 2675 4231 
Q 1875 4231 1450 3742 
Q 1025 3253 1025 2328 
Q 1025 1406 1450 917 
Q 1875 428 2675 428 
Q 3081 428 3442 575 
Q 3803 722 4122 1019 
L 4122 359 
Q 3791 134 3420 21 
Q 3050 -91 2638 -91 
Q 1578 -91 968 557 
Q 359 1206 359 2328 
Q 359 3453 968 4101 
Q 1578 4750 2638 4750 
Q 3056 4750 3426 4639 
Q 3797 4528 4122 4306 
z
" transform="scale(0.015625)"/>
        <path id="DejaVuSans-70" d="M 1159 525 
L 1159 -1331 
L 581 -1331 
L 581 3500 
L 1159 3500 
L 1159 2969 
Q 1341 3281 1617 3432 
Q 1894 3584 2278 3584 
Q 2916 3584 3314 3078 
Q 3713 2572 3713 1747 
Q 3713 922 3314 415 
Q 2916 -91 2278 -91 
Q 1894 -91 1617 61 
Q 1341 213 1159 525 
z
M 3116 1747 
Q 3116 2381 2855 2742 
Q 2594 3103 2138 3103 
Q 1681 3103 1420 2742 
Q 1159 2381 1159 1747 
Q 1159 1113 1420 752 
Q 1681 391 2138 391 
Q 2594 391 2855 752 
Q 3116 1113 3116 1747 
z
" transform="scale(0.015625)"/>
        <path id="DejaVuSans-73" d="M 2834 3397 
L 2834 2853 
Q 2591 2978 2328 3040 
Q 2066 3103 1784 3103 
Q 1356 3103 1142 2972 
Q 928 2841 928 2578 
Q 928 2378 1081 2264 
Q 1234 2150 1697 2047 
L 1894 2003 
Q 2506 1872 2764 1633 
Q 3022 1394 3022 966 
Q 3022 478 2636 193 
Q 2250 -91 1575 -91 
Q 1294 -91 989 -36 
Q 684 19 347 128 
L 347 722 
Q 666 556 975 473 
Q 1284 391 1588 391 
Q 1994 391 2212 530 
Q 2431 669 2431 922 
Q 2431 1156 2273 1281 
Q 2116 1406 1581 1522 
L 1381 1569 
Q 847 1681 609 1914 
Q 372 2147 372 2553 
Q 372 3047 722 3315 
Q 1072 3584 1716 3584 
Q 2034 3584 2315 3537 
Q 2597 3491 2834 3397 
z
" transform="scale(0.015625)"/>
        <path id="DejaVuSans-74" d="M 1172 4494 
L 1172 3500 
L 2356 3500 
L 2356 3053 
L 1172 3053 
L 1172 1153 
Q 1172 725 1289 603 
Q 1406 481 1766 481 
L 2356 481 
L 2356 0 
L 1766 0 
Q 1100 0 847 248 
Q 594 497 594 1153 
L 594 3053 
L 172 3053 
L 172 3500 
L 594 3500 
L 594 4494 
L 1172 4494 
z
" transform="scale(0.015625)"/>
        <path id="DejaVuSans-31" d="M 794 531 
L 1825 531 
L 1825 4091 
L 703 3866 
L 703 4441 
L 1819 4666 
L 2450 4666 
L 2450 531 
L 3481 531 
L 3481 0 
L 794 0 
L 794 531 
z
" transform="scale(0.015625)"/>
       </defs>
       <use xlink:href="#DejaVuSans-43"/>
       <use xlink:href="#DejaVuSans-70" transform="translate(69.824219 0)"/>
       <use xlink:href="#DejaVuSans-73" transform="translate(133.300781 0)"/>
       <use xlink:href="#DejaVuSans-74" transform="translate(185.400391 0)"/>
       <use xlink:href="#DejaVuSans-31" transform="translate(224.609375 0)"/>
      </g>
     </g>
    </g>
    <g id="xtick_2">
     <g id="line2d_2">
      <g>
       <use xlink:href="#m3b808888e3" x="162.704125" y="368.122174" style="stroke: #000000; stroke-width: 0.8"/>
      </g>
     </g>
     <g id="text_2">
      <!-- Cpst2 -->
      <g transform="translate(140.852316 400.876329) rotate(-45) scale(0.1 -0.1)">
       <defs>
        <path id="DejaVuSans-32" d="M 1228 531 
L 3431 531 
L 3431 0 
L 469 0 
L 469 531 
Q 828 903 1448 1529 
Q 2069 2156 2228 2338 
Q 2531 2678 2651 2914 
Q 2772 3150 2772 3378 
Q 2772 3750 2511 3984 
Q 2250 4219 1831 4219 
Q 1534 4219 1204 4116 
Q 875 4013 500 3803 
L 500 4441 
Q 881 4594 1212 4672 
Q 1544 4750 1819 4750 
Q 2544 4750 2975 4387 
Q 3406 4025 3406 3419 
Q 3406 3131 3298 2873 
Q 3191 2616 2906 2266 
Q 2828 2175 2409 1742 
Q 1991 1309 1228 531 
z
" transform="scale(0.015625)"/>
       </defs>
       <use xlink:href="#DejaVuSans-43"/>
       <use xlink:href="#DejaVuSans-70" transform="translate(69.824219 0)"/>
       <use xlink:href="#DejaVuSans-73" transform="translate(133.300781 0)"/>
       <use xlink:href="#DejaVuSans-74" transform="translate(185.400391 0)"/>
       <use xlink:href="#DejaVuSans-32" transform="translate(224.609375 0)"/>
      </g>
     </g>
    </g>
    <g id="xtick_3">
     <g id="line2d_3">
      <g>
       <use xlink:href="#m3b808888e3" x="239.863125" y="368.122174" style="stroke: #000000; stroke-width: 0.8"/>
      </g>
     </g>
     <g id="text_3">
      <!-- Quí2 -->
      <g transform="translate(221.881621 397.006024) rotate(-45) scale(0.1 -0.1)">
       <defs>
        <path id="DejaVuSans-51" d="M 2522 4238 
Q 1834 4238 1429 3725 
Q 1025 3213 1025 2328 
Q 1025 1447 1429 934 
Q 1834 422 2522 422 
Q 3209 422 3611 934 
Q 4013 1447 4013 2328 
Q 4013 3213 3611 3725 
Q 3209 4238 2522 4238 
z
M 3406 84 
L 4238 -825 
L 3475 -825 
L 2784 -78 
Q 2681 -84 2626 -87 
Q 2572 -91 2522 -91 
Q 1538 -91 948 567 
Q 359 1225 359 2328 
Q 359 3434 948 4092 
Q 1538 4750 2522 4750 
Q 3503 4750 4090 4092 
Q 4678 3434 4678 2328 
Q 4678 1516 4351 937 
Q 4025 359 3406 84 
z
" transform="scale(0.015625)"/>
        <path id="DejaVuSans-75" d="M 544 1381 
L 544 3500 
L 1119 3500 
L 1119 1403 
Q 1119 906 1312 657 
Q 1506 409 1894 409 
Q 2359 409 2629 706 
Q 2900 1003 2900 1516 
L 2900 3500 
L 3475 3500 
L 3475 0 
L 2900 0 
L 2900 538 
Q 2691 219 2414 64 
Q 2138 -91 1772 -91 
Q 1169 -91 856 284 
Q 544 659 544 1381 
z
M 1991 3584 
L 1991 3584 
z
" transform="scale(0.015625)"/>
        <path id="DejaVuSans-ed" d="M 1322 5119 
L 1944 5119 
L 926 3944 
L 447 3944 
L 1322 5119 
z
M 603 3500 
L 1178 3500 
L 1178 0 
L 603 0 
L 603 3500 
z
M 891 3584 
L 891 3584 
z
" transform="scale(0.015625)"/>
       </defs>
       <use xlink:href="#DejaVuSans-51"/>
       <use xlink:href="#DejaVuSans-75" transform="translate(78.710938 0)"/>
       <use xlink:href="#DejaVuSans-ed" transform="translate(142.089844 0)"/>
       <use xlink:href="#DejaVuSans-32" transform="translate(169.873047 0)"/>
      </g>
     </g>
    </g>
    <g id="xtick_4">
     <g id="line2d_4">
      <g>
       <use xlink:href="#m3b808888e3" x="317.022125" y="368.122174" style="stroke: #000000; stroke-width: 0.8"/>
      </g>
     </g>
     <g id="text_4">
      <!-- Quí3 -->
      <g transform="translate(299.040621 397.006024) rotate(-45) scale(0.1 -0.1)">
       <defs>
        <path id="DejaVuSans-33" d="M 2597 2516 
Q 3050 2419 3304 2112 
Q 3559 1806 3559 1356 
Q 3559 666 3084 287 
Q 2609 -91 1734 -91 
Q 1441 -91 1130 -33 
Q 819 25 488 141 
L 488 750 
Q 750 597 1062 519 
Q 1375 441 1716 441 
Q 2309 441 2620 675 
Q 2931 909 2931 1356 
Q 2931 1769 2642 2001 
Q 2353 2234 1838 2234 
L 1294 2234 
L 1294 2753 
L 1863 2753 
Q 2328 2753 2575 2939 
Q 2822 3125 2822 3475 
Q 2822 3834 2567 4026 
Q 2313 4219 1838 4219 
Q 1578 4219 1281 4162 
Q 984 4106 628 3988 
L 628 4550 
Q 988 4650 1302 4700 
Q 1616 4750 1894 4750 
Q 2613 4750 3031 4423 
Q 3450 4097 3450 3541 
Q 3450 3153 3228 2886 
Q 3006 2619 2597 2516 
z
" transform="scale(0.015625)"/>
       </defs>
       <use xlink:href="#DejaVuSans-51"/>
       <use xlink:href="#DejaVuSans-75" transform="translate(78.710938 0)"/>
       <use xlink:href="#DejaVuSans-ed" transform="translate(142.089844 0)"/>
       <use xlink:href="#DejaVuSans-33" transform="translate(169.873047 0)"/>
      </g>
     </g>
    </g>
    <g id="xtick_5">
     <g id="line2d_5">
      <g>
       <use xlink:href="#m3b808888e3" x="394.181125" y="368.122174" style="stroke: #000000; stroke-width: 0.8"/>
      </g>
     </g>
     <g id="text_5">
      <!-- Bk1 -->
      <g transform="translate(379.265591 393.940053) rotate(-45) scale(0.1 -0.1)">
       <defs>
        <path id="DejaVuSans-42" d="M 1259 2228 
L 1259 519 
L 2272 519 
Q 2781 519 3026 730 
Q 3272 941 3272 1375 
Q 3272 1813 3026 2020 
Q 2781 2228 2272 2228 
L 1259 2228 
z
M 1259 4147 
L 1259 2741 
L 2194 2741 
Q 2656 2741 2882 2914 
Q 3109 3088 3109 3444 
Q 3109 3797 2882 3972 
Q 2656 4147 2194 4147 
L 1259 4147 
z
M 628 4666 
L 2241 4666 
Q 2963 4666 3353 4366 
Q 3744 4066 3744 3513 
Q 3744 3084 3544 2831 
Q 3344 2578 2956 2516 
Q 3422 2416 3680 2098 
Q 3938 1781 3938 1306 
Q 3938 681 3513 340 
Q 3088 0 2303 0 
L 628 0 
L 628 4666 
z
" transform="scale(0.015625)"/>
        <path id="DejaVuSans-6b" d="M 581 4863 
L 1159 4863 
L 1159 1991 
L 2875 3500 
L 3609 3500 
L 1753 1863 
L 3688 0 
L 2938 0 
L 1159 1709 
L 1159 0 
L 581 0 
L 581 4863 
z
" transform="scale(0.015625)"/>
       </defs>
       <use xlink:href="#DejaVuSans-42"/>
       <use xlink:href="#DejaVuSans-6b" transform="translate(68.603516 0)"/>
       <use xlink:href="#DejaVuSans-31" transform="translate(126.513672 0)"/>
      </g>
     </g>
    </g>
    <g id="xtick_6">
     <g id="line2d_6">
      <g>
       <use xlink:href="#m3b808888e3" x="471.340125" y="368.122174" style="stroke: #000000; stroke-width: 0.8"/>
      </g>
     </g>
     <g id="text_6">
      <!-- Bk2 -->
      <g transform="translate(456.424591 393.940053) rotate(-45) scale(0.1 -0.1)">
       <use xlink:href="#DejaVuSans-42"/>
       <use xlink:href="#DejaVuSans-6b" transform="translate(68.603516 0)"/>
       <use xlink:href="#DejaVuSans-32" transform="translate(126.513672 0)"/>
      </g>
     </g>
    </g>
    <g id="xtick_7">
     <g id="line2d_7">
      <g>
       <use xlink:href="#m3b808888e3" x="548.499125" y="368.122174" style="stroke: #000000; stroke-width: 0.8"/>
      </g>
     </g>
     <g id="text_7">
      <!-- Bk3 -->
      <g transform="translate(533.583591 393.940053) rotate(-45) scale(0.1 -0.1)">
       <use xlink:href="#DejaVuSans-42"/>
       <use xlink:href="#DejaVuSans-6b" transform="translate(68.603516 0)"/>
       <use xlink:href="#DejaVuSans-33" transform="translate(126.513672 0)"/>
      </g>
     </g>
    </g>
    <g id="xtick_8">
     <g id="line2d_8">
      <g>
       <use xlink:href="#m3b808888e3" x="625.658125" y="368.122174" style="stroke: #000000; stroke-width: 0.8"/>
      </g>
     </g>
     <g id="text_8">
      <!-- Cpst3 -->
      <g transform="translate(603.806316 400.876329) rotate(-45) scale(0.1 -0.1)">
       <use xlink:href="#DejaVuSans-43"/>
       <use xlink:href="#DejaVuSans-70" transform="translate(69.824219 0)"/>
       <use xlink:href="#DejaVuSans-73" transform="translate(133.300781 0)"/>
       <use xlink:href="#DejaVuSans-74" transform="translate(185.400391 0)"/>
       <use xlink:href="#DejaVuSans-33" transform="translate(224.609375 0)"/>
      </g>
     </g>
    </g>
    <g id="xtick_9">
     <g id="line2d_9">
      <g>
       <use xlink:href="#m3b808888e3" x="702.817125" y="368.122174" style="stroke: #000000; stroke-width: 0.8"/>
      </g>
     </g>
     <g id="text_9">
      <!-- Quí1 -->
      <g transform="translate(684.835621 397.006024) rotate(-45) scale(0.1 -0.1)">
       <use xlink:href="#DejaVuSans-51"/>
       <use xlink:href="#DejaVuSans-75" transform="translate(78.710938 0)"/>
       <use xlink:href="#DejaVuSans-ed" transform="translate(142.089844 0)"/>
       <use xlink:href="#DejaVuSans-31" transform="translate(169.873047 0)"/>
      </g>
     </g>
    </g>
    <g id="xtick_10">
     <g id="line2d_10">
      <g>
       <use xlink:href="#m3b808888e3" x="779.976125" y="368.122174" style="stroke: #000000; stroke-width: 0.8"/>
      </g>
     </g>
     <g id="text_10">
      <!-- Te2 -->
      <g transform="translate(766.538886 392.461758) rotate(-45) scale(0.1 -0.1)">
       <defs>
        <path id="DejaVuSans-54" d="M -19 4666 
L 3928 4666 
L 3928 4134 
L 2272 4134 
L 2272 0 
L 1638 0 
L 1638 4134 
L -19 4134 
L -19 4666 
z
" transform="scale(0.015625)"/>
        <path id="DejaVuSans-65" d="M 3597 1894 
L 3597 1613 
L 953 1613 
Q 991 1019 1311 708 
Q 1631 397 2203 397 
Q 2534 397 2845 478 
Q 3156 559 3463 722 
L 3463 178 
Q 3153 47 2828 -22 
Q 2503 -91 2169 -91 
Q 1331 -91 842 396 
Q 353 884 353 1716 
Q 353 2575 817 3079 
Q 1281 3584 2069 3584 
Q 2775 3584 3186 3129 
Q 3597 2675 3597 1894 
z
M 3022 2063 
Q 3016 2534 2758 2815 
Q 2500 3097 2075 3097 
Q 1594 3097 1305 2825 
Q 1016 2553 972 2059 
L 3022 2063 
z
" transform="scale(0.015625)"/>
       </defs>
       <use xlink:href="#DejaVuSans-54"/>
       <use xlink:href="#DejaVuSans-65" transform="translate(44.083984 0)"/>
       <use xlink:href="#DejaVuSans-32" transform="translate(105.607422 0)"/>
      </g>
     </g>
    </g>
    <g id="text_11">
     <!-- Muestra -->
     <g transform="translate(412.516875 413.945327) scale(0.1 -0.1)">
      <defs>
       <path id="DejaVuSans-4d" d="M 628 4666 
L 1569 4666 
L 2759 1491 
L 3956 4666 
L 4897 4666 
L 4897 0 
L 4281 0 
L 4281 4097 
L 3078 897 
L 2444 897 
L 1241 4097 
L 1241 0 
L 628 0 
L 628 4666 
z
" transform="scale(0.015625)"/>
       <path id="DejaVuSans-72" d="M 2631 2963 
Q 2534 3019 2420 3045 
Q 2306 3072 2169 3072 
Q 1681 3072 1420 2755 
Q 1159 2438 1159 1844 
L 1159 0 
L 581 0 
L 581 3500 
L 1159 3500 
L 1159 2956 
Q 1341 3275 1631 3429 
Q 1922 3584 2338 3584 
Q 2397 3584 2469 3576 
Q 2541 3569 2628 3553 
L 2631 2963 
z
" transform="scale(0.015625)"/>
       <path id="DejaVuSans-61" d="M 2194 1759 
Q 1497 1759 1228 1600 
Q 959 1441 959 1056 
Q 959 750 1161 570 
Q 1363 391 1709 391 
Q 2188 391 2477 730 
Q 2766 1069 2766 1631 
L 2766 1759 
L 2194 1759 
z
M 3341 1997 
L 3341 0 
L 2766 0 
L 2766 531 
Q 2569 213 2275 61 
Q 1981 -91 1556 -91 
Q 1019 -91 701 211 
Q 384 513 384 1019 
Q 384 1609 779 1909 
Q 1175 2209 1959 2209 
L 2766 2209 
L 2766 2266 
Q 2766 2663 2505 2880 
Q 2244 3097 1772 3097 
Q 1472 3097 1187 3025 
Q 903 2953 641 2809 
L 641 3341 
Q 956 3463 1253 3523 
Q 1550 3584 1831 3584 
Q 2591 3584 2966 3190 
Q 3341 2797 3341 1997 
z
" transform="scale(0.015625)"/>
      </defs>
      <use xlink:href="#DejaVuSans-4d"/>
      <use xlink:href="#DejaVuSans-75" transform="translate(86.279297 0)"/>
      <use xlink:href="#DejaVuSans-65" transform="translate(149.658203 0)"/>
      <use xlink:href="#DejaVuSans-73" transform="translate(211.181641 0)"/>
      <use xlink:href="#DejaVuSans-74" transform="translate(263.28125 0)"/>
      <use xlink:href="#DejaVuSans-72" transform="translate(302.490234 0)"/>
      <use xlink:href="#DejaVuSans-61" transform="translate(343.603516 0)"/>
     </g>
    </g>
   </g>
   <g id="matplotlib.axis_2">
    <g id="ytick_1">
     <g id="line2d_11">
      <defs>
       <path id="m9c904b308e" d="M 0 0 
L -3.5 0 
" style="stroke: #000000; stroke-width: 0.8"/>
      </defs>
      <g>
       <use xlink:href="#m9c904b308e" x="46.965625" y="368.122174" style="stroke: #000000; stroke-width: 0.8"/>
      </g>
     </g>
     <g id="text_12">
      <!-- 0 -->
      <g transform="translate(33.603125 371.921392) scale(0.1 -0.1)">
       <defs>
        <path id="DejaVuSans-30" d="M 2034 4250 
Q 1547 4250 1301 3770 
Q 1056 3291 1056 2328 
Q 1056 1369 1301 889 
Q 1547 409 2034 409 
Q 2525 409 2770 889 
Q 3016 1369 3016 2328 
Q 3016 3291 2770 3770 
Q 2525 4250 2034 4250 
z
M 2034 4750 
Q 2819 4750 3233 4129 
Q 3647 3509 3647 2328 
Q 3647 1150 3233 529 
Q 2819 -91 2034 -91 
Q 1250 -91 836 529 
Q 422 1150 422 2328 
Q 422 3509 836 4129 
Q 1250 4750 2034 4750 
z
" transform="scale(0.015625)"/>
       </defs>
       <use xlink:href="#DejaVuSans-30"/>
      </g>
     </g>
    </g>
    <g id="ytick_2">
     <g id="line2d_12">
      <g>
       <use xlink:href="#m9c904b308e" x="46.965625" y="302.348148" style="stroke: #000000; stroke-width: 0.8"/>
      </g>
     </g>
     <g id="text_13">
      <!-- 20 -->
      <g transform="translate(27.240625 306.147367) scale(0.1 -0.1)">
       <use xlink:href="#DejaVuSans-32"/>
       <use xlink:href="#DejaVuSans-30" transform="translate(63.623047 0)"/>
      </g>
     </g>
    </g>
    <g id="ytick_3">
     <g id="line2d_13">
      <g>
       <use xlink:href="#m9c904b308e" x="46.965625" y="236.574122" style="stroke: #000000; stroke-width: 0.8"/>
      </g>
     </g>
     <g id="text_14">
      <!-- 40 -->
      <g transform="translate(27.240625 240.373341) scale(0.1 -0.1)">
       <defs>
        <path id="DejaVuSans-34" d="M 2419 4116 
L 825 1625 
L 2419 1625 
L 2419 4116 
z
M 2253 4666 
L 3047 4666 
L 3047 1625 
L 3713 1625 
L 3713 1100 
L 3047 1100 
L 3047 0 
L 2419 0 
L 2419 1100 
L 313 1100 
L 313 1709 
L 2253 4666 
z
" transform="scale(0.015625)"/>
       </defs>
       <use xlink:href="#DejaVuSans-34"/>
       <use xlink:href="#DejaVuSans-30" transform="translate(63.623047 0)"/>
      </g>
     </g>
    </g>
    <g id="ytick_4">
     <g id="line2d_14">
      <g>
       <use xlink:href="#m9c904b308e" x="46.965625" y="170.800096" style="stroke: #000000; stroke-width: 0.8"/>
      </g>
     </g>
     <g id="text_15">
      <!-- 60 -->
      <g transform="translate(27.240625 174.599315) scale(0.1 -0.1)">
       <defs>
        <path id="DejaVuSans-36" d="M 2113 2584 
Q 1688 2584 1439 2293 
Q 1191 2003 1191 1497 
Q 1191 994 1439 701 
Q 1688 409 2113 409 
Q 2538 409 2786 701 
Q 3034 994 3034 1497 
Q 3034 2003 2786 2293 
Q 2538 2584 2113 2584 
z
M 3366 4563 
L 3366 3988 
Q 3128 4100 2886 4159 
Q 2644 4219 2406 4219 
Q 1781 4219 1451 3797 
Q 1122 3375 1075 2522 
Q 1259 2794 1537 2939 
Q 1816 3084 2150 3084 
Q 2853 3084 3261 2657 
Q 3669 2231 3669 1497 
Q 3669 778 3244 343 
Q 2819 -91 2113 -91 
Q 1303 -91 875 529 
Q 447 1150 447 2328 
Q 447 3434 972 4092 
Q 1497 4750 2381 4750 
Q 2619 4750 2861 4703 
Q 3103 4656 3366 4563 
z
" transform="scale(0.015625)"/>
       </defs>
       <use xlink:href="#DejaVuSans-36"/>
       <use xlink:href="#DejaVuSans-30" transform="translate(63.623047 0)"/>
      </g>
     </g>
    </g>
    <g id="ytick_5">
     <g id="line2d_15">
      <g>
       <use xlink:href="#m9c904b308e" x="46.965625" y="105.026071" style="stroke: #000000; stroke-width: 0.8"/>
      </g>
     </g>
     <g id="text_16">
      <!-- 80 -->
      <g transform="translate(27.240625 108.825289) scale(0.1 -0.1)">
       <defs>
        <path id="DejaVuSans-38" d="M 2034 2216 
Q 1584 2216 1326 1975 
Q 1069 1734 1069 1313 
Q 1069 891 1326 650 
Q 1584 409 2034 409 
Q 2484 409 2743 651 
Q 3003 894 3003 1313 
Q 3003 1734 2745 1975 
Q 2488 2216 2034 2216 
z
M 1403 2484 
Q 997 2584 770 2862 
Q 544 3141 544 3541 
Q 544 4100 942 4425 
Q 1341 4750 2034 4750 
Q 2731 4750 3128 4425 
Q 3525 4100 3525 3541 
Q 3525 3141 3298 2862 
Q 3072 2584 2669 2484 
Q 3125 2378 3379 2068 
Q 3634 1759 3634 1313 
Q 3634 634 3220 271 
Q 2806 -91 2034 -91 
Q 1263 -91 848 271 
Q 434 634 434 1313 
Q 434 1759 690 2068 
Q 947 2378 1403 2484 
z
M 1172 3481 
Q 1172 3119 1398 2916 
Q 1625 2713 2034 2713 
Q 2441 2713 2670 2916 
Q 2900 3119 2900 3481 
Q 2900 3844 2670 4047 
Q 2441 4250 2034 4250 
Q 1625 4250 1398 4047 
Q 1172 3844 1172 3481 
z
" transform="scale(0.015625)"/>
       </defs>
       <use xlink:href="#DejaVuSans-38"/>
       <use xlink:href="#DejaVuSans-30" transform="translate(63.623047 0)"/>
      </g>
     </g>
    </g>
    <g id="ytick_6">
     <g id="line2d_16">
      <g>
       <use xlink:href="#m9c904b308e" x="46.965625" y="39.252045" style="stroke: #000000; stroke-width: 0.8"/>
      </g>
     </g>
     <g id="text_17">
      <!-- 100 -->
      <g transform="translate(20.878125 43.051264) scale(0.1 -0.1)">
       <use xlink:href="#DejaVuSans-31"/>
       <use xlink:href="#DejaVuSans-30" transform="translate(63.623047 0)"/>
       <use xlink:href="#DejaVuSans-30" transform="translate(127.246094 0)"/>
      </g>
     </g>
    </g>
    <g id="text_18">
     <!-- Abundancia relativa (%) -->
     <g transform="translate(14.798438 255.677337) rotate(-90) scale(0.1 -0.1)">
      <defs>
       <path id="DejaVuSans-41" d="M 2188 4044 
L 1331 1722 
L 3047 1722 
L 2188 4044 
z
M 1831 4666 
L 2547 4666 
L 4325 0 
L 3669 0 
L 3244 1197 
L 1141 1197 
L 716 0 
L 50 0 
L 1831 4666 
z
" transform="scale(0.015625)"/>
       <path id="DejaVuSans-62" d="M 3116 1747 
Q 3116 2381 2855 2742 
Q 2594 3103 2138 3103 
Q 1681 3103 1420 2742 
Q 1159 2381 1159 1747 
Q 1159 1113 1420 752 
Q 1681 391 2138 391 
Q 2594 391 2855 752 
Q 3116 1113 3116 1747 
z
M 1159 2969 
Q 1341 3281 1617 3432 
Q 1894 3584 2278 3584 
Q 2916 3584 3314 3078 
Q 3713 2572 3713 1747 
Q 3713 922 3314 415 
Q 2916 -91 2278 -91 
Q 1894 -91 1617 61 
Q 1341 213 1159 525 
L 1159 0 
L 581 0 
L 581 4863 
L 1159 4863 
L 1159 2969 
z
" transform="scale(0.015625)"/>
       <path id="DejaVuSans-6e" d="M 3513 2113 
L 3513 0 
L 2938 0 
L 2938 2094 
Q 2938 2591 2744 2837 
Q 2550 3084 2163 3084 
Q 1697 3084 1428 2787 
Q 1159 2491 1159 1978 
L 1159 0 
L 581 0 
L 581 3500 
L 1159 3500 
L 1159 2956 
Q 1366 3272 1645 3428 
Q 1925 3584 2291 3584 
Q 2894 3584 3203 3211 
Q 3513 2838 3513 2113 
z
" transform="scale(0.015625)"/>
       <path id="DejaVuSans-64" d="M 2906 2969 
L 2906 4863 
L 3481 4863 
L 3481 0 
L 2906 0 
L 2906 525 
Q 2725 213 2448 61 
Q 2172 -91 1784 -91 
Q 1150 -91 751 415 
Q 353 922 353 1747 
Q 353 2572 751 3078 
Q 1150 3584 1784 3584 
Q 2172 3584 2448 3432 
Q 2725 3281 2906 2969 
z
M 947 1747 
Q 947 1113 1208 752 
Q 1469 391 1925 391 
Q 2381 391 2643 752 
Q 2906 1113 2906 1747 
Q 2906 2381 2643 2742 
Q 2381 3103 1925 3103 
Q 1469 3103 1208 2742 
Q 947 2381 947 1747 
z
" transform="scale(0.015625)"/>
       <path id="DejaVuSans-63" d="M 3122 3366 
L 3122 2828 
Q 2878 2963 2633 3030 
Q 2388 3097 2138 3097 
Q 1578 3097 1268 2742 
Q 959 2388 959 1747 
Q 959 1106 1268 751 
Q 1578 397 2138 397 
Q 2388 397 2633 464 
Q 2878 531 3122 666 
L 3122 134 
Q 2881 22 2623 -34 
Q 2366 -91 2075 -91 
Q 1284 -91 818 406 
Q 353 903 353 1747 
Q 353 2603 823 3093 
Q 1294 3584 2113 3584 
Q 2378 3584 2631 3529 
Q 2884 3475 3122 3366 
z
" transform="scale(0.015625)"/>
       <path id="DejaVuSans-69" d="M 603 3500 
L 1178 3500 
L 1178 0 
L 603 0 
L 603 3500 
z
M 603 4863 
L 1178 4863 
L 1178 4134 
L 603 4134 
L 603 4863 
z
" transform="scale(0.015625)"/>
       <path id="DejaVuSans-20" transform="scale(0.015625)"/>
       <path id="DejaVuSans-6c" d="M 603 4863 
L 1178 4863 
L 1178 0 
L 603 0 
L 603 4863 
z
" transform="scale(0.015625)"/>
       <path id="DejaVuSans-76" d="M 191 3500 
L 800 3500 
L 1894 563 
L 2988 3500 
L 3597 3500 
L 2284 0 
L 1503 0 
L 191 3500 
z
" transform="scale(0.015625)"/>
       <path id="DejaVuSans-28" d="M 1984 4856 
Q 1566 4138 1362 3434 
Q 1159 2731 1159 2009 
Q 1159 1288 1364 580 
Q 1569 -128 1984 -844 
L 1484 -844 
Q 1016 -109 783 600 
Q 550 1309 550 2009 
Q 550 2706 781 3412 
Q 1013 4119 1484 4856 
L 1984 4856 
z
" transform="scale(0.015625)"/>
       <path id="DejaVuSans-25" d="M 4653 2053 
Q 4381 2053 4226 1822 
Q 4072 1591 4072 1178 
Q 4072 772 4226 539 
Q 4381 306 4653 306 
Q 4919 306 5073 539 
Q 5228 772 5228 1178 
Q 5228 1588 5073 1820 
Q 4919 2053 4653 2053 
z
M 4653 2450 
Q 5147 2450 5437 2106 
Q 5728 1763 5728 1178 
Q 5728 594 5436 251 
Q 5144 -91 4653 -91 
Q 4153 -91 3862 251 
Q 3572 594 3572 1178 
Q 3572 1766 3864 2108 
Q 4156 2450 4653 2450 
z
M 1428 4353 
Q 1159 4353 1004 4120 
Q 850 3888 850 3481 
Q 850 3069 1003 2837 
Q 1156 2606 1428 2606 
Q 1700 2606 1854 2837 
Q 2009 3069 2009 3481 
Q 2009 3884 1853 4118 
Q 1697 4353 1428 4353 
z
M 4250 4750 
L 4750 4750 
L 1831 -91 
L 1331 -91 
L 4250 4750 
z
M 1428 4750 
Q 1922 4750 2215 4408 
Q 2509 4066 2509 3481 
Q 2509 2891 2217 2550 
Q 1925 2209 1428 2209 
Q 931 2209 642 2551 
Q 353 2894 353 3481 
Q 353 4063 643 4406 
Q 934 4750 1428 4750 
z
" transform="scale(0.015625)"/>
       <path id="DejaVuSans-29" d="M 513 4856 
L 1013 4856 
Q 1481 4119 1714 3412 
Q 1947 2706 1947 2009 
Q 1947 1309 1714 600 
Q 1481 -109 1013 -844 
L 513 -844 
Q 928 -128 1133 580 
Q 1338 1288 1338 2009 
Q 1338 2731 1133 3434 
Q 928 4138 513 4856 
z
" transform="scale(0.015625)"/>
      </defs>
      <use xlink:href="#DejaVuSans-41"/>
      <use xlink:href="#DejaVuSans-62" transform="translate(68.408203 0)"/>
      <use xlink:href="#DejaVuSans-75" transform="translate(131.884766 0)"/>
      <use xlink:href="#DejaVuSans-6e" transform="translate(195.263672 0)"/>
      <use xlink:href="#DejaVuSans-64" transform="translate(258.642578 0)"/>
      <use xlink:href="#DejaVuSans-61" transform="translate(322.119141 0)"/>
      <use xlink:href="#DejaVuSans-6e" transform="translate(383.398438 0)"/>
      <use xlink:href="#DejaVuSans-63" transform="translate(446.777344 0)"/>
      <use xlink:href="#DejaVuSans-69" transform="translate(501.757812 0)"/>
      <use xlink:href="#DejaVuSans-61" transform="translate(529.541016 0)"/>
      <use xlink:href="#DejaVuSans-20" transform="translate(590.820312 0)"/>
      <use xlink:href="#DejaVuSans-72" transform="translate(622.607422 0)"/>
      <use xlink:href="#DejaVuSans-65" transform="translate(661.470703 0)"/>
      <use xlink:href="#DejaVuSans-6c" transform="translate(722.994141 0)"/>
      <use xlink:href="#DejaVuSans-61" transform="translate(750.777344 0)"/>
      <use xlink:href="#DejaVuSans-74" transform="translate(812.056641 0)"/>
      <use xlink:href="#DejaVuSans-69" transform="translate(851.265625 0)"/>
      <use xlink:href="#DejaVuSans-76" transform="translate(879.048828 0)"/>
      <use xlink:href="#DejaVuSans-61" transform="translate(938.228516 0)"/>
      <use xlink:href="#DejaVuSans-20" transform="translate(999.507812 0)"/>
      <use xlink:href="#DejaVuSans-28" transform="translate(1031.294922 0)"/>
      <use xlink:href="#DejaVuSans-25" transform="translate(1070.308594 0)"/>
      <use xlink:href="#DejaVuSans-29" transform="translate(1165.328125 0)"/>
     </g>
    </g>
   </g>
   <g id="patch_113">
    <path d="M 46.965625 368.122174 
L 46.965625 22.798125 
" style="fill: none; stroke: #000000; stroke-width: 0.8; stroke-linejoin: miter; stroke-linecap: square"/>
   </g>
   <g id="patch_114">
    <path d="M 818.555625 368.122174 
L 818.555625 22.798125 
" style="fill: none; stroke: #000000; stroke-width: 0.8; stroke-linejoin: miter; stroke-linecap: square"/>
   </g>
   <g id="patch_115">
    <path d="M 46.965625 368.122174 
L 818.555625 368.122174 
" style="fill: none; stroke: #000000; stroke-width: 0.8; stroke-linejoin: miter; stroke-linecap: square"/>
   </g>
   <g id="patch_116">
    <path d="M 46.965625 22.798125 
L 818.555625 22.798125 
" style="fill: none; stroke: #000000; stroke-width: 0.8; stroke-linejoin: miter; stroke-linecap: square"/>
   </g>
   <g id="text_19">
    <!-- Composición taxonómica - suelos2 - genus -->
    <g transform="translate(304.32125 16.798125) scale(0.12 -0.12)">
     <defs>
      <path id="DejaVuSans-6f" d="M 1959 3097 
Q 1497 3097 1228 2736 
Q 959 2375 959 1747 
Q 959 1119 1226 758 
Q 1494 397 1959 397 
Q 2419 397 2687 759 
Q 2956 1122 2956 1747 
Q 2956 2369 2687 2733 
Q 2419 3097 1959 3097 
z
M 1959 3584 
Q 2709 3584 3137 3096 
Q 3566 2609 3566 1747 
Q 3566 888 3137 398 
Q 2709 -91 1959 -91 
Q 1206 -91 779 398 
Q 353 888 353 1747 
Q 353 2609 779 3096 
Q 1206 3584 1959 3584 
z
" transform="scale(0.015625)"/>
      <path id="DejaVuSans-6d" d="M 3328 2828 
Q 3544 3216 3844 3400 
Q 4144 3584 4550 3584 
Q 5097 3584 5394 3201 
Q 5691 2819 5691 2113 
L 5691 0 
L 5113 0 
L 5113 2094 
Q 5113 2597 4934 2840 
Q 4756 3084 4391 3084 
Q 3944 3084 3684 2787 
Q 3425 2491 3425 1978 
L 3425 0 
L 2847 0 
L 2847 2094 
Q 2847 2600 2669 2842 
Q 2491 3084 2119 3084 
Q 1678 3084 1418 2786 
Q 1159 2488 1159 1978 
L 1159 0 
L 581 0 
L 581 3500 
L 1159 3500 
L 1159 2956 
Q 1356 3278 1631 3431 
Q 1906 3584 2284 3584 
Q 2666 3584 2933 3390 
Q 3200 3197 3328 2828 
z
" transform="scale(0.015625)"/>
      <path id="DejaVuSans-f3" d="M 1959 3097 
Q 1497 3097 1228 2736 
Q 959 2375 959 1747 
Q 959 1119 1226 758 
Q 1494 397 1959 397 
Q 2419 397 2687 759 
Q 2956 1122 2956 1747 
Q 2956 2369 2687 2733 
Q 2419 3097 1959 3097 
z
M 1959 3584 
Q 2709 3584 3137 3096 
Q 3566 2609 3566 1747 
Q 3566 888 3137 398 
Q 2709 -91 1959 -91 
Q 1206 -91 779 398 
Q 353 888 353 1747 
Q 353 2609 779 3096 
Q 1206 3584 1959 3584 
z
M 2394 5119 
L 3016 5119 
L 1998 3944 
L 1519 3944 
L 2394 5119 
z
" transform="scale(0.015625)"/>
      <path id="DejaVuSans-78" d="M 3513 3500 
L 2247 1797 
L 3578 0 
L 2900 0 
L 1881 1375 
L 863 0 
L 184 0 
L 1544 1831 
L 300 3500 
L 978 3500 
L 1906 2253 
L 2834 3500 
L 3513 3500 
z
" transform="scale(0.015625)"/>
      <path id="DejaVuSans-2d" d="M 313 2009 
L 1997 2009 
L 1997 1497 
L 313 1497 
L 313 2009 
z
" transform="scale(0.015625)"/>
      <path id="DejaVuSans-67" d="M 2906 1791 
Q 2906 2416 2648 2759 
Q 2391 3103 1925 3103 
Q 1463 3103 1205 2759 
Q 947 2416 947 1791 
Q 947 1169 1205 825 
Q 1463 481 1925 481 
Q 2391 481 2648 825 
Q 2906 1169 2906 1791 
z
M 3481 434 
Q 3481 -459 3084 -895 
Q 2688 -1331 1869 -1331 
Q 1566 -1331 1297 -1286 
Q 1028 -1241 775 -1147 
L 775 -588 
Q 1028 -725 1275 -790 
Q 1522 -856 1778 -856 
Q 2344 -856 2625 -561 
Q 2906 -266 2906 331 
L 2906 616 
Q 2728 306 2450 153 
Q 2172 0 1784 0 
Q 1141 0 747 490 
Q 353 981 353 1791 
Q 353 2603 747 3093 
Q 1141 3584 1784 3584 
Q 2172 3584 2450 3431 
Q 2728 3278 2906 2969 
L 2906 3500 
L 3481 3500 
L 3481 434 
z
" transform="scale(0.015625)"/>
     </defs>
     <use xlink:href="#DejaVuSans-43"/>
     <use xlink:href="#DejaVuSans-6f" transform="translate(69.824219 0)"/>
     <use xlink:href="#DejaVuSans-6d" transform="translate(131.005859 0)"/>
     <use xlink:href="#DejaVuSans-70" transform="translate(228.417969 0)"/>
     <use xlink:href="#DejaVuSans-6f" transform="translate(291.894531 0)"/>
     <use xlink:href="#DejaVuSans-73" transform="translate(353.076172 0)"/>
     <use xlink:href="#DejaVuSans-69" transform="translate(405.175781 0)"/>
     <use xlink:href="#DejaVuSans-63" transform="translate(432.958984 0)"/>
     <use xlink:href="#DejaVuSans-69" transform="translate(487.939453 0)"/>
     <use xlink:href="#DejaVuSans-f3" transform="translate(515.722656 0)"/>
     <use xlink:href="#DejaVuSans-6e" transform="translate(576.904297 0)"/>
     <use xlink:href="#DejaVuSans-20" transform="translate(640.283203 0)"/>
     <use xlink:href="#DejaVuSans-74" transform="translate(672.070312 0)"/>
     <use xlink:href="#DejaVuSans-61" transform="translate(711.279297 0)"/>
     <use xlink:href="#DejaVuSans-78" transform="translate(772.558594 0)"/>
     <use xlink:href="#DejaVuSans-6f" transform="translate(828.613281 0)"/>
     <use xlink:href="#DejaVuSans-6e" transform="translate(889.794922 0)"/>
     <use xlink:href="#DejaVuSans-f3" transform="translate(953.173828 0)"/>
     <use xlink:href="#DejaVuSans-6d" transform="translate(1014.355469 0)"/>
     <use xlink:href="#DejaVuSans-69" transform="translate(1111.767578 0)"/>
     <use xlink:href="#DejaVuSans-63" transform="translate(1139.550781 0)"/>
     <use xlink:href="#DejaVuSans-61" transform="translate(1194.53125 0)"/>
     <use xlink:href="#DejaVuSans-20" transform="translate(1255.810547 0)"/>
     <use xlink:href="#DejaVuSans-2d" transform="translate(1287.597656 0)"/>
     <use xlink:href="#DejaVuSans-20" transform="translate(1323.681641 0)"/>
     <use xlink:href="#DejaVuSans-73" transform="translate(1355.46875 0)"/>
     <use xlink:href="#DejaVuSans-75" transform="translate(1407.568359 0)"/>
     <use xlink:href="#DejaVuSans-65" transform="translate(1470.947266 0)"/>
     <use xlink:href="#DejaVuSans-6c" transform="translate(1532.470703 0)"/>
     <use xlink:href="#DejaVuSans-6f" transform="translate(1560.253906 0)"/>
     <use xlink:href="#DejaVuSans-73" transform="translate(1621.435547 0)"/>
     <use xlink:href="#DejaVuSans-32" transform="translate(1673.535156 0)"/>
     <use xlink:href="#DejaVuSans-20" transform="translate(1737.158203 0)"/>
     <use xlink:href="#DejaVuSans-2d" transform="translate(1768.945312 0)"/>
     <use xlink:href="#DejaVuSans-20" transform="translate(1805.029297 0)"/>
     <use xlink:href="#DejaVuSans-67" transform="translate(1836.816406 0)"/>
     <use xlink:href="#DejaVuSans-65" transform="translate(1900.292969 0)"/>
     <use xlink:href="#DejaVuSans-6e" transform="translate(1961.816406 0)"/>
     <use xlink:href="#DejaVuSans-75" transform="translate(2025.195312 0)"/>
     <use xlink:href="#DejaVuSans-73" transform="translate(2088.574219 0)"/>
    </g>
   </g>
   <g id="legend_1">
    <g id="patch_117">
     <path d="M 864.135125 195.03875 
L 990.63825 195.03875 
Q 992.63825 195.03875 992.63825 193.03875 
L 992.63825 29.798125 
Q 992.63825 27.798125 990.63825 27.798125 
L 864.135125 27.798125 
Q 862.135125 27.798125 862.135125 29.798125 
L 862.135125 193.03875 
Q 862.135125 195.03875 864.135125 195.03875 
z
" style="fill: #ffffff; opacity: 0.8; stroke: #cccccc; stroke-linejoin: miter"/>
    </g>
    <g id="patch_118">
     <path d="M 866.135125 39.396562 
L 886.135125 39.396562 
L 886.135125 32.396562 
L 866.135125 32.396562 
z
" style="fill: #1f77b4"/>
    </g>
    <g id="text_20">
     <!-- g__ -->
     <g transform="translate(894.135125 39.396562) scale(0.1 -0.1)">
      <defs>
       <path id="DejaVuSans-5f" d="M 3263 -1063 
L 3263 -1509 
L -63 -1509 
L -63 -1063 
L 3263 -1063 
z
" transform="scale(0.015625)"/>
      </defs>
      <use xlink:href="#DejaVuSans-67"/>
      <use xlink:href="#DejaVuSans-5f" transform="translate(63.476562 0)"/>
      <use xlink:href="#DejaVuSans-5f" transform="translate(113.476562 0)"/>
     </g>
    </g>
    <g id="patch_119">
     <path d="M 866.135125 54.352812 
L 886.135125 54.352812 
L 886.135125 47.352812 
L 866.135125 47.352812 
z
" style="fill: #ff7f0e"/>
    </g>
    <g id="text_21">
     <!-- g__PSRF01 -->
     <g transform="translate(894.135125 54.352812) scale(0.1 -0.1)">
      <defs>
       <path id="DejaVuSans-50" d="M 1259 4147 
L 1259 2394 
L 2053 2394 
Q 2494 2394 2734 2622 
Q 2975 2850 2975 3272 
Q 2975 3691 2734 3919 
Q 2494 4147 2053 4147 
L 1259 4147 
z
M 628 4666 
L 2053 4666 
Q 2838 4666 3239 4311 
Q 3641 3956 3641 3272 
Q 3641 2581 3239 2228 
Q 2838 1875 2053 1875 
L 1259 1875 
L 1259 0 
L 628 0 
L 628 4666 
z
" transform="scale(0.015625)"/>
       <path id="DejaVuSans-53" d="M 3425 4513 
L 3425 3897 
Q 3066 4069 2747 4153 
Q 2428 4238 2131 4238 
Q 1616 4238 1336 4038 
Q 1056 3838 1056 3469 
Q 1056 3159 1242 3001 
Q 1428 2844 1947 2747 
L 2328 2669 
Q 3034 2534 3370 2195 
Q 3706 1856 3706 1288 
Q 3706 609 3251 259 
Q 2797 -91 1919 -91 
Q 1588 -91 1214 -16 
Q 841 59 441 206 
L 441 856 
Q 825 641 1194 531 
Q 1563 422 1919 422 
Q 2459 422 2753 634 
Q 3047 847 3047 1241 
Q 3047 1584 2836 1778 
Q 2625 1972 2144 2069 
L 1759 2144 
Q 1053 2284 737 2584 
Q 422 2884 422 3419 
Q 422 4038 858 4394 
Q 1294 4750 2059 4750 
Q 2388 4750 2728 4690 
Q 3069 4631 3425 4513 
z
" transform="scale(0.015625)"/>
       <path id="DejaVuSans-52" d="M 2841 2188 
Q 3044 2119 3236 1894 
Q 3428 1669 3622 1275 
L 4263 0 
L 3584 0 
L 2988 1197 
Q 2756 1666 2539 1819 
Q 2322 1972 1947 1972 
L 1259 1972 
L 1259 0 
L 628 0 
L 628 4666 
L 2053 4666 
Q 2853 4666 3247 4331 
Q 3641 3997 3641 3322 
Q 3641 2881 3436 2590 
Q 3231 2300 2841 2188 
z
M 1259 4147 
L 1259 2491 
L 2053 2491 
Q 2509 2491 2742 2702 
Q 2975 2913 2975 3322 
Q 2975 3731 2742 3939 
Q 2509 4147 2053 4147 
L 1259 4147 
z
" transform="scale(0.015625)"/>
       <path id="DejaVuSans-46" d="M 628 4666 
L 3309 4666 
L 3309 4134 
L 1259 4134 
L 1259 2759 
L 3109 2759 
L 3109 2228 
L 1259 2228 
L 1259 0 
L 628 0 
L 628 4666 
z
" transform="scale(0.015625)"/>
      </defs>
      <use xlink:href="#DejaVuSans-67"/>
      <use xlink:href="#DejaVuSans-5f" transform="translate(63.476562 0)"/>
      <use xlink:href="#DejaVuSans-5f" transform="translate(113.476562 0)"/>
      <use xlink:href="#DejaVuSans-50" transform="translate(163.476562 0)"/>
      <use xlink:href="#DejaVuSans-53" transform="translate(223.779297 0)"/>
      <use xlink:href="#DejaVuSans-52" transform="translate(287.255859 0)"/>
      <use xlink:href="#DejaVuSans-46" transform="translate(356.738281 0)"/>
      <use xlink:href="#DejaVuSans-30" transform="translate(414.257812 0)"/>
      <use xlink:href="#DejaVuSans-31" transform="translate(477.880859 0)"/>
     </g>
    </g>
    <g id="patch_120">
     <path d="M 866.135125 69.309062 
L 886.135125 69.309062 
L 886.135125 62.309062 
L 866.135125 62.309062 
z
" style="fill: #2ca02c"/>
    </g>
    <g id="text_22">
     <!-- g__Rubrobacter_F -->
     <g transform="translate(894.135125 69.309062) scale(0.1 -0.1)">
      <use xlink:href="#DejaVuSans-67"/>
      <use xlink:href="#DejaVuSans-5f" transform="translate(63.476562 0)"/>
      <use xlink:href="#DejaVuSans-5f" transform="translate(113.476562 0)"/>
      <use xlink:href="#DejaVuSans-52" transform="translate(163.476562 0)"/>
      <use xlink:href="#DejaVuSans-75" transform="translate(228.458984 0)"/>
      <use xlink:href="#DejaVuSans-62" transform="translate(291.837891 0)"/>
      <use xlink:href="#DejaVuSans-72" transform="translate(355.314453 0)"/>
      <use xlink:href="#DejaVuSans-6f" transform="translate(394.177734 0)"/>
      <use xlink:href="#DejaVuSans-62" transform="translate(455.359375 0)"/>
      <use xlink:href="#DejaVuSans-61" transform="translate(518.835938 0)"/>
      <use xlink:href="#DejaVuSans-63" transform="translate(580.115234 0)"/>
      <use xlink:href="#DejaVuSans-74" transform="translate(635.095703 0)"/>
      <use xlink:href="#DejaVuSans-65" transform="translate(674.304688 0)"/>
      <use xlink:href="#DejaVuSans-72" transform="translate(735.828125 0)"/>
      <use xlink:href="#DejaVuSans-5f" transform="translate(776.941406 0)"/>
      <use xlink:href="#DejaVuSans-46" transform="translate(826.941406 0)"/>
     </g>
    </g>
    <g id="patch_121">
     <path d="M 866.135125 84.265312 
L 886.135125 84.265312 
L 886.135125 77.265312 
L 866.135125 77.265312 
z
" style="fill: #d62728"/>
    </g>
    <g id="text_23">
     <!-- g__Streptomyces -->
     <g transform="translate(894.135125 84.265312) scale(0.1 -0.1)">
      <defs>
       <path id="DejaVuSans-79" d="M 2059 -325 
Q 1816 -950 1584 -1140 
Q 1353 -1331 966 -1331 
L 506 -1331 
L 506 -850 
L 844 -850 
Q 1081 -850 1212 -737 
Q 1344 -625 1503 -206 
L 1606 56 
L 191 3500 
L 800 3500 
L 1894 763 
L 2988 3500 
L 3597 3500 
L 2059 -325 
z
" transform="scale(0.015625)"/>
      </defs>
      <use xlink:href="#DejaVuSans-67"/>
      <use xlink:href="#DejaVuSans-5f" transform="translate(63.476562 0)"/>
      <use xlink:href="#DejaVuSans-5f" transform="translate(113.476562 0)"/>
      <use xlink:href="#DejaVuSans-53" transform="translate(163.476562 0)"/>
      <use xlink:href="#DejaVuSans-74" transform="translate(226.953125 0)"/>
      <use xlink:href="#DejaVuSans-72" transform="translate(266.162109 0)"/>
      <use xlink:href="#DejaVuSans-65" transform="translate(305.025391 0)"/>
      <use xlink:href="#DejaVuSans-70" transform="translate(366.548828 0)"/>
      <use xlink:href="#DejaVuSans-74" transform="translate(430.025391 0)"/>
      <use xlink:href="#DejaVuSans-6f" transform="translate(469.234375 0)"/>
      <use xlink:href="#DejaVuSans-6d" transform="translate(530.416016 0)"/>
      <use xlink:href="#DejaVuSans-79" transform="translate(627.828125 0)"/>
      <use xlink:href="#DejaVuSans-63" transform="translate(687.007812 0)"/>
      <use xlink:href="#DejaVuSans-65" transform="translate(741.988281 0)"/>
      <use xlink:href="#DejaVuSans-73" transform="translate(803.511719 0)"/>
     </g>
    </g>
    <g id="patch_122">
     <path d="M 866.135125 99.221562 
L 886.135125 99.221562 
L 886.135125 92.221562 
L 866.135125 92.221562 
z
" style="fill: #9467bd"/>
    </g>
    <g id="text_24">
     <!-- g__Rubrobacter_D -->
     <g transform="translate(894.135125 99.221562) scale(0.1 -0.1)">
      <defs>
       <path id="DejaVuSans-44" d="M 1259 4147 
L 1259 519 
L 2022 519 
Q 2988 519 3436 956 
Q 3884 1394 3884 2338 
Q 3884 3275 3436 3711 
Q 2988 4147 2022 4147 
L 1259 4147 
z
M 628 4666 
L 1925 4666 
Q 3281 4666 3915 4102 
Q 4550 3538 4550 2338 
Q 4550 1131 3912 565 
Q 3275 0 1925 0 
L 628 0 
L 628 4666 
z
" transform="scale(0.015625)"/>
      </defs>
      <use xlink:href="#DejaVuSans-67"/>
      <use xlink:href="#DejaVuSans-5f" transform="translate(63.476562 0)"/>
      <use xlink:href="#DejaVuSans-5f" transform="translate(113.476562 0)"/>
      <use xlink:href="#DejaVuSans-52" transform="translate(163.476562 0)"/>
      <use xlink:href="#DejaVuSans-75" transform="translate(228.458984 0)"/>
      <use xlink:href="#DejaVuSans-62" transform="translate(291.837891 0)"/>
      <use xlink:href="#DejaVuSans-72" transform="translate(355.314453 0)"/>
      <use xlink:href="#DejaVuSans-6f" transform="translate(394.177734 0)"/>
      <use xlink:href="#DejaVuSans-62" transform="translate(455.359375 0)"/>
      <use xlink:href="#DejaVuSans-61" transform="translate(518.835938 0)"/>
      <use xlink:href="#DejaVuSans-63" transform="translate(580.115234 0)"/>
      <use xlink:href="#DejaVuSans-74" transform="translate(635.095703 0)"/>
      <use xlink:href="#DejaVuSans-65" transform="translate(674.304688 0)"/>
      <use xlink:href="#DejaVuSans-72" transform="translate(735.828125 0)"/>
      <use xlink:href="#DejaVuSans-5f" transform="translate(776.941406 0)"/>
      <use xlink:href="#DejaVuSans-44" transform="translate(826.941406 0)"/>
     </g>
    </g>
    <g id="patch_123">
     <path d="M 866.135125 114.177812 
L 886.135125 114.177812 
L 886.135125 107.177812 
L 866.135125 107.177812 
z
" style="fill: #8c564b"/>
    </g>
    <g id="text_25">
     <!-- g__Defluviilinea -->
     <g transform="translate(894.135125 114.177812) scale(0.1 -0.1)">
      <defs>
       <path id="DejaVuSans-66" d="M 2375 4863 
L 2375 4384 
L 1825 4384 
Q 1516 4384 1395 4259 
Q 1275 4134 1275 3809 
L 1275 3500 
L 2222 3500 
L 2222 3053 
L 1275 3053 
L 1275 0 
L 697 0 
L 697 3053 
L 147 3053 
L 147 3500 
L 697 3500 
L 697 3744 
Q 697 4328 969 4595 
Q 1241 4863 1831 4863 
L 2375 4863 
z
" transform="scale(0.015625)"/>
      </defs>
      <use xlink:href="#DejaVuSans-67"/>
      <use xlink:href="#DejaVuSans-5f" transform="translate(63.476562 0)"/>
      <use xlink:href="#DejaVuSans-5f" transform="translate(113.476562 0)"/>
      <use xlink:href="#DejaVuSans-44" transform="translate(163.476562 0)"/>
      <use xlink:href="#DejaVuSans-65" transform="translate(240.478516 0)"/>
      <use xlink:href="#DejaVuSans-66" transform="translate(302.001953 0)"/>
      <use xlink:href="#DejaVuSans-6c" transform="translate(337.207031 0)"/>
      <use xlink:href="#DejaVuSans-75" transform="translate(364.990234 0)"/>
      <use xlink:href="#DejaVuSans-76" transform="translate(428.369141 0)"/>
      <use xlink:href="#DejaVuSans-69" transform="translate(487.548828 0)"/>
      <use xlink:href="#DejaVuSans-69" transform="translate(515.332031 0)"/>
      <use xlink:href="#DejaVuSans-6c" transform="translate(543.115234 0)"/>
      <use xlink:href="#DejaVuSans-69" transform="translate(570.898438 0)"/>
      <use xlink:href="#DejaVuSans-6e" transform="translate(598.681641 0)"/>
      <use xlink:href="#DejaVuSans-65" transform="translate(662.060547 0)"/>
      <use xlink:href="#DejaVuSans-61" transform="translate(723.583984 0)"/>
     </g>
    </g>
    <g id="patch_124">
     <path d="M 866.135125 129.134062 
L 886.135125 129.134062 
L 886.135125 122.134062 
L 866.135125 122.134062 
z
" style="fill: #e377c2"/>
    </g>
    <g id="text_26">
     <!-- g__Cutibacterium -->
     <g transform="translate(894.135125 129.134062) scale(0.1 -0.1)">
      <use xlink:href="#DejaVuSans-67"/>
      <use xlink:href="#DejaVuSans-5f" transform="translate(63.476562 0)"/>
      <use xlink:href="#DejaVuSans-5f" transform="translate(113.476562 0)"/>
      <use xlink:href="#DejaVuSans-43" transform="translate(163.476562 0)"/>
      <use xlink:href="#DejaVuSans-75" transform="translate(233.300781 0)"/>
      <use xlink:href="#DejaVuSans-74" transform="translate(296.679688 0)"/>
      <use xlink:href="#DejaVuSans-69" transform="translate(335.888672 0)"/>
      <use xlink:href="#DejaVuSans-62" transform="translate(363.671875 0)"/>
      <use xlink:href="#DejaVuSans-61" transform="translate(427.148438 0)"/>
      <use xlink:href="#DejaVuSans-63" transform="translate(488.427734 0)"/>
      <use xlink:href="#DejaVuSans-74" transform="translate(543.408203 0)"/>
      <use xlink:href="#DejaVuSans-65" transform="translate(582.617188 0)"/>
      <use xlink:href="#DejaVuSans-72" transform="translate(644.140625 0)"/>
      <use xlink:href="#DejaVuSans-69" transform="translate(685.253906 0)"/>
      <use xlink:href="#DejaVuSans-75" transform="translate(713.037109 0)"/>
      <use xlink:href="#DejaVuSans-6d" transform="translate(776.416016 0)"/>
     </g>
    </g>
    <g id="patch_125">
     <path d="M 866.135125 144.090312 
L 886.135125 144.090312 
L 886.135125 137.090312 
L 866.135125 137.090312 
z
" style="fill: #7f7f7f"/>
    </g>
    <g id="text_27">
     <!-- g__Brevundimonas -->
     <g transform="translate(894.135125 144.090312) scale(0.1 -0.1)">
      <use xlink:href="#DejaVuSans-67"/>
      <use xlink:href="#DejaVuSans-5f" transform="translate(63.476562 0)"/>
      <use xlink:href="#DejaVuSans-5f" transform="translate(113.476562 0)"/>
      <use xlink:href="#DejaVuSans-42" transform="translate(163.476562 0)"/>
      <use xlink:href="#DejaVuSans-72" transform="translate(232.080078 0)"/>
      <use xlink:href="#DejaVuSans-65" transform="translate(270.943359 0)"/>
      <use xlink:href="#DejaVuSans-76" transform="translate(332.466797 0)"/>
      <use xlink:href="#DejaVuSans-75" transform="translate(391.646484 0)"/>
      <use xlink:href="#DejaVuSans-6e" transform="translate(455.025391 0)"/>
      <use xlink:href="#DejaVuSans-64" transform="translate(518.404297 0)"/>
      <use xlink:href="#DejaVuSans-69" transform="translate(581.880859 0)"/>
      <use xlink:href="#DejaVuSans-6d" transform="translate(609.664062 0)"/>
      <use xlink:href="#DejaVuSans-6f" transform="translate(707.076172 0)"/>
      <use xlink:href="#DejaVuSans-6e" transform="translate(768.257812 0)"/>
      <use xlink:href="#DejaVuSans-61" transform="translate(831.636719 0)"/>
      <use xlink:href="#DejaVuSans-73" transform="translate(892.916016 0)"/>
     </g>
    </g>
    <g id="patch_126">
     <path d="M 866.135125 159.046562 
L 886.135125 159.046562 
L 886.135125 152.046562 
L 866.135125 152.046562 
z
" style="fill: #bcbd22"/>
    </g>
    <g id="text_28">
     <!-- g__Gp6-AA40 -->
     <g transform="translate(894.135125 159.046562) scale(0.1 -0.1)">
      <defs>
       <path id="DejaVuSans-47" d="M 3809 666 
L 3809 1919 
L 2778 1919 
L 2778 2438 
L 4434 2438 
L 4434 434 
Q 4069 175 3628 42 
Q 3188 -91 2688 -91 
Q 1594 -91 976 548 
Q 359 1188 359 2328 
Q 359 3472 976 4111 
Q 1594 4750 2688 4750 
Q 3144 4750 3555 4637 
Q 3966 4525 4313 4306 
L 4313 3634 
Q 3963 3931 3569 4081 
Q 3175 4231 2741 4231 
Q 1884 4231 1454 3753 
Q 1025 3275 1025 2328 
Q 1025 1384 1454 906 
Q 1884 428 2741 428 
Q 3075 428 3337 486 
Q 3600 544 3809 666 
z
" transform="scale(0.015625)"/>
      </defs>
      <use xlink:href="#DejaVuSans-67"/>
      <use xlink:href="#DejaVuSans-5f" transform="translate(63.476562 0)"/>
      <use xlink:href="#DejaVuSans-5f" transform="translate(113.476562 0)"/>
      <use xlink:href="#DejaVuSans-47" transform="translate(163.476562 0)"/>
      <use xlink:href="#DejaVuSans-70" transform="translate(240.966797 0)"/>
      <use xlink:href="#DejaVuSans-36" transform="translate(304.443359 0)"/>
      <use xlink:href="#DejaVuSans-2d" transform="translate(368.066406 0)"/>
      <use xlink:href="#DejaVuSans-41" transform="translate(401.900391 0)"/>
      <use xlink:href="#DejaVuSans-41" transform="translate(473.058594 0)"/>
      <use xlink:href="#DejaVuSans-34" transform="translate(541.466797 0)"/>
      <use xlink:href="#DejaVuSans-30" transform="translate(605.089844 0)"/>
     </g>
    </g>
    <g id="patch_127">
     <path d="M 866.135125 174.002812 
L 886.135125 174.002812 
L 886.135125 167.002812 
L 866.135125 167.002812 
z
" style="fill: #17becf"/>
    </g>
    <g id="text_29">
     <!-- g__Homo -->
     <g transform="translate(894.135125 174.002812) scale(0.1 -0.1)">
      <defs>
       <path id="DejaVuSans-48" d="M 628 4666 
L 1259 4666 
L 1259 2753 
L 3553 2753 
L 3553 4666 
L 4184 4666 
L 4184 0 
L 3553 0 
L 3553 2222 
L 1259 2222 
L 1259 0 
L 628 0 
L 628 4666 
z
" transform="scale(0.015625)"/>
      </defs>
      <use xlink:href="#DejaVuSans-67"/>
      <use xlink:href="#DejaVuSans-5f" transform="translate(63.476562 0)"/>
      <use xlink:href="#DejaVuSans-5f" transform="translate(113.476562 0)"/>
      <use xlink:href="#DejaVuSans-48" transform="translate(163.476562 0)"/>
      <use xlink:href="#DejaVuSans-6f" transform="translate(238.671875 0)"/>
      <use xlink:href="#DejaVuSans-6d" transform="translate(299.853516 0)"/>
      <use xlink:href="#DejaVuSans-6f" transform="translate(397.265625 0)"/>
     </g>
    </g>
    <g id="patch_128">
     <path d="M 866.135125 188.959062 
L 886.135125 188.959062 
L 886.135125 181.959062 
L 866.135125 181.959062 
z
" style="fill: #1f77b4"/>
    </g>
    <g id="text_30">
     <!-- Others -->
     <g transform="translate(894.135125 188.959062) scale(0.1 -0.1)">
      <defs>
       <path id="DejaVuSans-4f" d="M 2522 4238 
Q 1834 4238 1429 3725 
Q 1025 3213 1025 2328 
Q 1025 1447 1429 934 
Q 1834 422 2522 422 
Q 3209 422 3611 934 
Q 4013 1447 4013 2328 
Q 4013 3213 3611 3725 
Q 3209 4238 2522 4238 
z
M 2522 4750 
Q 3503 4750 4090 4092 
Q 4678 3434 4678 2328 
Q 4678 1225 4090 567 
Q 3503 -91 2522 -91 
Q 1538 -91 948 565 
Q 359 1222 359 2328 
Q 359 3434 948 4092 
Q 1538 4750 2522 4750 
z
" transform="scale(0.015625)"/>
       <path id="DejaVuSans-68" d="M 3513 2113 
L 3513 0 
L 2938 0 
L 2938 2094 
Q 2938 2591 2744 2837 
Q 2550 3084 2163 3084 
Q 1697 3084 1428 2787 
Q 1159 2491 1159 1978 
L 1159 0 
L 581 0 
L 581 4863 
L 1159 4863 
L 1159 2956 
Q 1366 3272 1645 3428 
Q 1925 3584 2291 3584 
Q 2894 3584 3203 3211 
Q 3513 2838 3513 2113 
z
" transform="scale(0.015625)"/>
      </defs>
      <use xlink:href="#DejaVuSans-4f"/>
      <use xlink:href="#DejaVuSans-74" transform="translate(78.710938 0)"/>
      <use xlink:href="#DejaVuSans-68" transform="translate(117.919922 0)"/>
      <use xlink:href="#DejaVuSans-65" transform="translate(181.298828 0)"/>
      <use xlink:href="#DejaVuSans-72" transform="translate(242.822266 0)"/>
      <use xlink:href="#DejaVuSans-73" transform="translate(283.935547 0)"/>
     </g>
    </g>
   </g>
  </g>
 </g>
 <defs>
  <clipPath id="p2d49d42701">
   <rect x="46.965625" y="22.798125" width="771.59" height="345.324049"/>
  </clipPath>
 </defs>
</svg>
